<?xml version="1.0" encoding="UTF-8" standalone="no"?>
<!-- Created with Inkscape (http://www.inkscape.org/) -->

<svg
   xmlns:dc="http://purl.org/dc/elements/1.1/"
   xmlns:cc="http://creativecommons.org/ns#"
   xmlns:rdf="http://www.w3.org/1999/02/22-rdf-syntax-ns#"
   xmlns:svg="http://www.w3.org/2000/svg"
   xmlns="http://www.w3.org/2000/svg"
   xmlns:sodipodi="http://sodipodi.sourceforge.net/DTD/sodipodi-0.dtd"
   xmlns:inkscape="http://www.inkscape.org/namespaces/inkscape"
   width="81.945999cm"
   height="81.945999cm"
   viewBox="0 0 819.45998 819.45994"
   version="1.1"
   id="svg8"
   inkscape:version="0.92.2 (5c3e80d, 2017-08-06)"
   sodipodi:docname="66.svg">
  <defs
     id="defs2" />
  <sodipodi:namedview
     id="base"
     pagecolor="#ffffff"
     bordercolor="#666666"
     borderopacity="1.0"
     inkscape:pageopacity="0.0"
     inkscape:pageshadow="2"
     inkscape:zoom="0.15879247"
     inkscape:cx="2150.6467"
     inkscape:cy="932.88548"
     inkscape:document-units="cm"
     inkscape:current-layer="layer1"
     showgrid="false"
     units="cm"
     inkscape:window-width="1920"
     inkscape:window-height="1057"
     inkscape:window-x="-8"
     inkscape:window-y="-8"
     inkscape:window-maximized="1"
     fit-margin-top="0"
     fit-margin-left="0"
     fit-margin-right="0"
     fit-margin-bottom="0" />
  <metadata
     id="metadata5">
    <rdf:RDF>
      <cc:Work
         rdf:about="">
        <dc:format>image/svg+xml</dc:format>
        <dc:type
           rdf:resource="http://purl.org/dc/dcmitype/StillImage" />
        <dc:title></dc:title>
      </cc:Work>
    </rdf:RDF>
  </metadata>
  <g
     inkscape:label="Layer 1"
     inkscape:groupmode="layer"
     id="layer1"
     transform="translate(-627.92144,1351.3944)">
    <rect
       style="fill:#a0ff32;fill-opacity:1;stroke:none;stroke-width:59.79019928;stroke-miterlimit:4;stroke-dasharray:none;stroke-opacity:1"
       id="rect815"
       width="600"
       height="600"
       x="1099.5903"
       y="-232.12695"
       rx="40"
       ry="40"
       transform="rotate(-45)" />
    <rect
       y="-220.12695"
       x="1111.5903"
       height="576"
       width="576"
       id="rect12551"
       style="fill:#000000;fill-opacity:1;stroke:none;stroke-width:57.39859009;stroke-miterlimit:4;stroke-dasharray:none;stroke-opacity:1"
       rx="28"
       ry="28"
       transform="rotate(-45)" />
    <rect
       y="-208.12694"
       x="1123.5903"
       height="552"
       width="552"
       id="rect12553"
       style="fill:#a0ff32;fill-opacity:1;stroke:none;stroke-width:55.00698471;stroke-miterlimit:4;stroke-dasharray:none;stroke-opacity:1"
       rx="16"
       ry="16"
       transform="rotate(-45)" />
    <path
       d="m 1039.2099,-985.92757 0.9496,-1.7056 -58.38186,-20.28243 -1.32757,0.9478 24.64123,29.38173 h 3.6011 z m -11.4452,20.8322 c 0,0 -6.5708,2.7437 -7.0773,2.8884 -0.5046,0.1447 -1.2986,1.1557 -1.2986,1.1557 l 5.3428,7.29075 c -0.1157,-3.98095 1.0291,-7.73745 3.0331,-11.33485 m 38.2858,17.68506 -2.212,-0.63846 -1.3185,3.23749 -18.0758,-5.54717 0.3093,-3.18325 -13.7313,-3.95377 -1.6912,8.05946 30.3494,33.86898 3.185,-0.53171 6.7156,-19.79764 z m -13.6319,62.59783 c 1.6423,-0.9188 1.5464,-2.41637 2.3187,-3.6228 -0.6764,-4.56684 -2.7528,-7.03023 -6.522,-6.95609 -1.8123,3.52506 -1.3276,7.05198 4.2033,10.57889 m 18.0885,-3.21583 c -0.9189,-1.64407 -2.4183,-1.5482 -3.6246,-2.32048 -4.5669,0.67641 -7.0303,2.75454 -6.9543,6.52019 3.525,1.81412 7.0502,1.33118 10.5789,-4.19971 m -3.3642,-18.2313 c -1.6422,0.91701 -1.5428,2.41456 -2.3169,3.62272 0.6747,4.56328 2.751,7.02665 6.5202,6.95617 1.8141,-3.52692 1.3294,-7.05383 -4.2033,-10.57889 m -18.0866,3.50518 c 0.9188,1.64046 2.4182,1.54458 3.6246,2.31689 4.5632,-0.67643 7.0284,-2.7528 6.9525,-6.51841 -3.5234,-1.81226 -7.0502,-1.32937 -10.5771,4.20152 m 36.7068,1.66218 c -0.047,-1.1051 -0.076,-2.2138 -0.076,-3.32977 0,-10.55899 2.1343,-20.63682 5.9885,-29.82667 -7.9237,-3.40386 -13.4184,-5.73344 -13.4184,-5.73344 l -9.7054,26.34499 c 5.1819,2.43985 9.1483,7.05555 10.7109,12.65703 z m 20.1358,-26.99973 c -3.1127,7.33954 -4.8327,15.40439 -4.8327,23.85442 0,0.96766 0.026,1.92445 0.069,2.87944 l 47.9188,-0.82842 c -0.6476,-1.53371 -0.6964,-3.36586 -0.1447,-5.50009 0.3183,-1.22811 -23.0641,-11.71113 -43.0101,-20.40535 m 56.6058,-37.58399 c -23.9884,0 -44.8404,13.86883 -54.949,33.9992 l 43.9432,20.35654 c 3.2593,-4.05869 7.374,-6.2833 12.7366,-5.83839 9.1012,0.50465 13.5686,6.1802 14.8618,15.39173 -2.4417,10.80677 -8.9655,15.09328 -18.9095,14.19258 -2.9879,-1.02916 -9.6818,-5.27227 -10.1213,-9.99651 l -48.2461,2.94995 c 4.6429,29.29673 30.1179,51.82177 60.6843,51.82177 33.84,0 61.4384,-27.59833 61.4384,-61.43846 0,-33.83822 -27.5984,-61.43841 -61.4384,-61.43841 m -250.59565,0 c -33.8401,0 -61.44027,27.60019 -61.44027,61.43841 0,33.84013 27.60017,61.43846 61.44027,61.43846 33.83826,0 61.43846,-27.59833 61.43846,-61.43846 0,-23.94486 -13.82904,-44.76799 -33.90158,-54.89651 l -23.06232,58.42706 c -10.39617,7.08454 -16.41722,-2.57192 -7.42999,-5.83658 l 3.27006,-4.59762 17.81353,-48.92616 0.83199,-2.6027 c -5.97403,-1.9497 -12.34772,-3.0059 -18.9602,-3.0059 m 0.22788,-16.2328 c 8.08111,0 15.87463,1.2498 23.20694,3.5595 l 2.60089,-6.3629 3.38217,-1.9751 3.71682,-11.1431 4.55239,-0.076 2.22282,-3.78923 9.67635,-25.8566 c -1.72905,-2.7528 -1.58981,-4.6773 2.65333,-4.7749 l 9.09936,-27.9457 -14.86176,-8.4934 -1.40354,3.3568 -6.50934,-1.9985 -0.57878,-6.1368 -1.69655,-1.2082 c -10.21169,8.3506 -13.08384,4.717 -3.76561,-2.6895 l -1.96783,-1.4053 c 1.70015,-4.339 4.39507,-5.0281 8.0847,-2.0673 1.01466,-3.129 3.81089,-6.05 6.77527,-8.0197 2.90107,0.4142 4.30461,1.8196 4.2196,4.2251 0.18447,2.5864 -2.98247,5.567 -8.43921,8.819 l 2.68585,1.3457 2.47066,-3.7729 c 6.01197,-2.3603 26.31964,-2.2717 32.66081,-0.3183 1.5048,1.7815 1.68205,3.7277 0.53172,5.8384 l -26.16769,0.3164 10.1737,7.0249 1.89727,-0.9767 5.97404,1.9118 1.00924,2.9391 -1.42159,5.6557 -2.87759,0.04 -9.52443,24.0877 -0.34002,2.4869 c 1.98591,1.749 1.56627,3.2448 -0.51187,3.7476 l -0.39791,2.9029 86.17011,31.73123 30.2499,-7.9636 0.7868,-2.27533 c -11.6297,-5.5272 -0.2876,-3.6715 1.3004,-3.7765 l 13.8345,-40.1197 -9.0216,-5.8384 c -5.6684,-0.6674 -12.9844,-0.7868 -21.4273,-0.5317 l 1.2245,-3.7041 c 8.3723,-4.5633 17.4337,-5.4188 31.3477,-2.1343 10.0435,-1.6549 18.5841,-2.7491 24.9343,-3.0222 4.9467,1.9208 6.37,4.7676 5.3192,9.9223 -1.957,0.68 -2.6985,3.2628 -5.8655,2.0419 l -6.3448,2.2048 -7.4281,2.1343 c 0.1917,3.0783 -3.3949,5.5507 -9.2061,6.0336 l -11.1558,34.7969 c 4.8363,2.6099 4.3661,4.06953 -1.4162,4.37333 l -8.8209,27.2656 -7.0935,0.9676 1.0616,-6.7716 -2.4779,-0.1754 -41.0312,11.5157 -1.1811,4.7785 13.0151,3.9628 0.9387,-1.749 17.8406,4.62658 0.1882,2.89927 8.6562,2.63887 1.248,-2.49235 6.7463,2.49235 -1.2444,4.58131 13.0514,6.04637 c 12.59,-25.8331 39.1268,-43.7063 69.7076,-43.7063 42.6809,0 77.4867,34.80767 77.4867,77.48671 0,42.68082 -34.8058,77.48674 -77.4867,77.48674 -39.0345,0 -71.4783,-29.11765 -76.7361,-66.74329 l -6.589,0.40154 -0.01,0.006 c -1.1865,9.81202 -9.5823,17.45542 -19.7072,17.45542 -1.7164,0 -3.3804,-0.21887 -4.9738,-0.63308 l -8.3506,13.80556 0.099,0.8338 2.3566,0.53714 c 1.1504,1.09604 1.3566,2.51946 0.624,4.2775 l -5.6466,-0.15193 c -1.125,2.82693 -5.3446,3.40028 -6.4551,0.53715 h -6.6378 c -0.3834,-1.00557 -0.3237,-1.90089 0.1791,-2.68767 l 2.5647,-2.94085 4.1961,-0.0415 10.3057,-17.39937 c -4.9123,-3.6173 -8.1136,-9.43939 -8.1136,-15.98855 0,-4.14364 1.2859,-7.9961 3.4708,-11.18478 l 0.01,-0.22248 -81.06067,-92.44796 -2.34403,-0.1248 -5.227,10.8393 -5.83658,4.2467 1.49757,3.3551 -3.35869,7.8315 c 25.01925,12.8741 42.19611,38.9713 42.19611,68.95347 0,42.68081 -34.80772,77.48674 -77.48854,77.48674 -42.67746,1.9e-4 -77.48705,-34.80572 -77.48705,-77.48654 0,-42.67904 34.80959,-77.48667 77.48677,-77.48667"
       style="fill:#000000;fill-opacity:1;fill-rule:evenodd;stroke:none;stroke-width:1.80866218"
       id="path6081"
       inkscape:connector-curvature="0" />
    <path
       d="m 912.65141,-777.93446 h 30 v -20 h -30 z"
       style="fill:#000000;fill-opacity:1;fill-rule:evenodd;stroke:none;stroke-width:2.99580693"
       id="path1807"
       inkscape:connector-curvature="0" />
    <path
       inkscape:connector-curvature="0"
       id="path2443"
       style="fill:#000000;fill-opacity:1;fill-rule:evenodd;stroke:none;stroke-width:2.99580693"
       d="m 1132.6514,-777.93446 h 30 v -20 h -30 z" />
    <path
       inkscape:connector-curvature="0"
       id="path2456"
       style="fill:#000000;fill-opacity:1;fill-rule:evenodd;stroke:none;stroke-width:2.99580693"
       d="m 967.65141,-777.93446 h 30 v -20 h -30 z" />
    <path
       d="m 1022.6514,-777.93446 h 30 v -20 h -30 z"
       style="fill:#000000;fill-opacity:1;fill-rule:evenodd;stroke:none;stroke-width:2.99580693"
       id="path2458"
       inkscape:connector-curvature="0" />
    <path
       inkscape:connector-curvature="0"
       id="path2460"
       style="fill:#000000;fill-opacity:1;fill-rule:evenodd;stroke:none;stroke-width:2.99580693"
       d="m 1077.6514,-777.93446 h 30 v -20 h -30 z" />
    <path
       d="m 975.15141,-1117.9344 h 29.99999 v -20 h -29.99999 z"
       style="fill:#000000;fill-opacity:1;fill-rule:evenodd;stroke:none;stroke-width:2.99580693"
       id="path2462"
       inkscape:connector-curvature="0" />
    <path
       inkscape:connector-curvature="0"
       id="path2482"
       style="fill:#000000;fill-opacity:1;fill-rule:evenodd;stroke:none;stroke-width:2.99580693"
       d="m 1070.1514,-1117.9344 h 30 v -20 h -30 z" />
    <path
       inkscape:connector-curvature="0"
       id="path2493"
       style="fill:#000000;fill-opacity:1;fill-rule:evenodd;stroke:none;stroke-width:2.99580693"
       d="m 1022.6514,-1117.9344 h 30 v -20 h -30 z" />
  </g>
</svg>
