<?xml version="1.0" encoding="UTF-8" standalone="no"?>
<!-- Created with Inkscape (http://www.inkscape.org/) -->

<svg
   xmlns:dc="http://purl.org/dc/elements/1.1/"
   xmlns:cc="http://creativecommons.org/ns#"
   xmlns:rdf="http://www.w3.org/1999/02/22-rdf-syntax-ns#"
   xmlns:svg="http://www.w3.org/2000/svg"
   xmlns="http://www.w3.org/2000/svg"
   xmlns:sodipodi="http://sodipodi.sourceforge.net/DTD/sodipodi-0.dtd"
   xmlns:inkscape="http://www.inkscape.org/namespaces/inkscape"
   width="81.945999cm"
   height="122.946cm"
   viewBox="0 0 819.45998 1229.4599"
   version="1.1"
   id="svg8"
   inkscape:version="0.92.2 (5c3e80d, 2017-08-06)"
   sodipodi:docname="66.svg">
  <defs
     id="defs2" />
  <sodipodi:namedview
     id="base"
     pagecolor="#ffffff"
     bordercolor="#666666"
     borderopacity="1.0"
     inkscape:pageopacity="0.0"
     inkscape:pageshadow="2"
     inkscape:zoom="0.15879247"
     inkscape:cx="1127.2984"
     inkscape:cy="3207.0486"
     inkscape:document-units="cm"
     inkscape:current-layer="layer1"
     showgrid="false"
     units="cm"
     inkscape:window-width="1920"
     inkscape:window-height="1057"
     inkscape:window-x="-8"
     inkscape:window-y="-8"
     inkscape:window-maximized="1"
     fit-margin-top="0"
     fit-margin-left="0"
     fit-margin-right="0"
     fit-margin-bottom="0" />
  <metadata
     id="metadata5">
    <rdf:RDF>
      <cc:Work
         rdf:about="">
        <dc:format>image/svg+xml</dc:format>
        <dc:type
           rdf:resource="http://purl.org/dc/dcmitype/StillImage" />
        <dc:title></dc:title>
      </cc:Work>
    </rdf:RDF>
  </metadata>
  <g
     inkscape:label="Layer 1"
     inkscape:groupmode="layer"
     id="layer1"
     transform="translate(-627.92144,1761.3944)">
    <rect
       style="fill:#a0ff32;fill-opacity:1;stroke:none;stroke-width:59.79019928;stroke-miterlimit:4;stroke-dasharray:none;stroke-opacity:1"
       id="rect815"
       width="600"
       height="600"
       x="1389.5042"
       y="-522.04071"
       rx="40"
       ry="40"
       transform="rotate(-45)" />
    <rect
       y="-510.04071"
       x="1401.5042"
       height="576"
       width="576"
       id="rect12551"
       style="fill:#000000;fill-opacity:1;stroke:none;stroke-width:57.39859009;stroke-miterlimit:4;stroke-dasharray:none;stroke-opacity:1"
       rx="28"
       ry="28"
       transform="rotate(-45)" />
    <rect
       y="-498.04071"
       x="1413.5042"
       height="552"
       width="552"
       id="rect12553"
       style="fill:#a0ff32;fill-opacity:1;stroke:none;stroke-width:55.00698471;stroke-miterlimit:4;stroke-dasharray:none;stroke-opacity:1"
       rx="16"
       ry="16"
       transform="rotate(-45)" />
    <path
       d="m 1039.2099,-1395.9276 0.9496,-1.7056 -58.38181,-20.2824 -1.32757,0.9478 24.64118,29.3817 h 3.6011 z m -11.4452,20.8322 c 0,0 -6.5708,2.7437 -7.0773,2.8884 -0.5046,0.1447 -1.2986,1.1557 -1.2986,1.1557 l 5.3428,7.2908 c -0.1157,-3.981 1.0291,-7.7375 3.0331,-11.3349 m 38.2858,17.6851 -2.212,-0.6385 -1.3185,3.2375 -18.0758,-5.5472 0.3093,-3.1832 -13.7313,-3.9538 -1.6912,8.0595 30.3494,33.869 3.185,-0.5317 6.7156,-19.7977 z m -13.6319,62.5978 c 1.6423,-0.9188 1.5464,-2.4164 2.3187,-3.6228 -0.6764,-4.5668 -2.7528,-7.0302 -6.522,-6.9561 -1.8123,3.5251 -1.3276,7.052 4.2033,10.5789 m 18.0885,-3.2158 c -0.9189,-1.6441 -2.4183,-1.5482 -3.6246,-2.3205 -4.5669,0.6764 -7.0303,2.7545 -6.9543,6.5202 3.525,1.8141 7.0502,1.3312 10.5789,-4.1997 m -3.3642,-18.2313 c -1.6422,0.917 -1.5428,2.4145 -2.3169,3.6227 0.6747,4.5633 2.751,7.0267 6.5202,6.9562 1.8141,-3.5269 1.3294,-7.0539 -4.2033,-10.5789 m -18.0866,3.5052 c 0.9188,1.6404 2.4182,1.5445 3.6246,2.3169 4.5632,-0.6765 7.0284,-2.7528 6.9525,-6.5185 -3.5234,-1.8122 -7.0502,-1.3293 -10.5771,4.2016 m 36.7068,1.6621 c -0.047,-1.1051 -0.076,-2.2138 -0.076,-3.3297 0,-10.559 2.1343,-20.6368 5.9885,-29.8267 -7.9237,-3.4039 -13.4184,-5.7334 -13.4184,-5.7334 l -9.7054,26.345 c 5.1819,2.4398 9.1483,7.0555 10.7109,12.657 z m 20.1358,-26.9997 c -3.1127,7.3396 -4.8327,15.4044 -4.8327,23.8544 0,0.9677 0.026,1.9245 0.069,2.8795 l 47.9188,-0.8284 c -0.6476,-1.5338 -0.6964,-3.3659 -0.1447,-5.5001 0.3183,-1.2281 -23.0641,-11.7112 -43.0101,-20.4054 m 56.6058,-37.584 c -23.9884,0 -44.8404,13.8689 -54.949,33.9992 l 43.9432,20.3566 c 3.2593,-4.0587 7.374,-6.2833 12.7366,-5.8384 9.1012,0.5046 13.5686,6.1802 14.8618,15.3917 -2.4417,10.8068 -8.9655,15.0933 -18.9095,14.1926 -2.9879,-1.0292 -9.6818,-5.2723 -10.1213,-9.9965 l -48.2461,2.9499 c 4.6429,29.2968 30.1179,51.8218 60.6843,51.8218 33.84,0 61.4384,-27.5983 61.4384,-61.4385 0,-33.8382 -27.5984,-61.4384 -61.4384,-61.4384 m -250.5956,0 c -33.8401,0 -61.44027,27.6002 -61.44027,61.4384 0,33.8402 27.60017,61.4385 61.44027,61.4385 33.83826,0 61.43846,-27.5983 61.43846,-61.4385 0,-23.9448 -13.82904,-44.768 -33.90158,-54.8965 l -23.06232,58.4271 c -10.39617,7.0845 -16.41722,-2.5719 -7.42999,-5.8366 l 3.27006,-4.5976 17.81353,-48.9262 0.83199,-2.6027 c -5.97403,-1.9497 -12.34772,-3.0059 -18.9602,-3.0059 m 0.22788,-16.2328 c 8.08111,0 15.87463,1.2498 23.20694,3.5595 l 2.60089,-6.3629 3.38217,-1.9751 3.71682,-11.1431 4.55239,-0.076 2.22282,-3.7892 9.67635,-25.8566 c -1.72905,-2.7528 -1.58981,-4.6773 2.65333,-4.7749 l 9.09936,-27.9457 -14.86176,-8.4934 -1.40354,3.3568 -6.50934,-1.9985 -0.57878,-6.1368 -1.69655,-1.2082 c -10.21169,8.3506 -13.08384,4.717 -3.76561,-2.6895 l -1.96783,-1.4053 c 1.70015,-4.339 4.39507,-5.0281 8.0847,-2.0673 1.01466,-3.129 3.81089,-6.05 6.77527,-8.0197 2.90107,0.4142 4.30461,1.8196 4.2196,4.2251 0.18447,2.5864 -2.98247,5.567 -8.43921,8.819 l 2.68585,1.3457 2.47066,-3.7729 c 6.01197,-2.3603 26.31964,-2.2717 32.66081,-0.3183 1.5048,1.7815 1.68205,3.7277 0.53172,5.8384 l -26.16769,0.3164 10.1737,7.0249 1.89727,-0.9767 5.97404,1.9118 1.00924,2.9391 -1.42159,5.6557 -2.87759,0.04 -9.52443,24.0877 -0.34002,2.4869 c 1.98591,1.749 1.56627,3.2448 -0.51187,3.7476 l -0.39791,2.9029 86.17006,31.7312 30.2499,-7.9636 0.7868,-2.2753 c -11.6297,-5.5272 -0.2876,-3.6715 1.3004,-3.7765 l 13.8345,-40.1197 -9.0216,-5.8384 c -5.6684,-0.6674 -12.9844,-0.7868 -21.4273,-0.5317 l 1.2245,-3.7041 c 8.3723,-4.5633 17.4337,-5.4188 31.3477,-2.1343 10.0435,-1.6549 18.5841,-2.7491 24.9343,-3.0222 4.9467,1.9208 6.37,4.7676 5.3192,9.9223 -1.957,0.68 -2.6985,3.2628 -5.8655,2.0419 l -6.3448,2.2048 -7.4281,2.1343 c 0.1917,3.0783 -3.3949,5.5507 -9.2061,6.0336 l -11.1558,34.7969 c 4.8363,2.6099 4.3661,4.0695 -1.4162,4.3733 l -8.8209,27.2656 -7.0935,0.9676 1.0616,-6.7716 -2.4779,-0.1754 -41.0312,11.5157 -1.1811,4.7785 13.0151,3.9628 0.9387,-1.749 17.8406,4.6266 0.1882,2.8993 8.6562,2.6388 1.248,-2.4923 6.7463,2.4923 -1.2444,4.5814 13.0514,6.0463 c 12.59,-25.8331 39.1268,-43.7063 69.7076,-43.7063 42.6809,0 77.4867,34.8077 77.4867,77.4867 0,42.6809 -34.8058,77.4868 -77.4867,77.4868 -39.0345,0 -71.4783,-29.1177 -76.7361,-66.7433 l -6.589,0.4015 -0.01,0.01 c -1.1865,9.812 -9.5823,17.4554 -19.7072,17.4554 -1.7164,0 -3.3804,-0.2188 -4.9738,-0.633 l -8.3506,13.8055 0.099,0.8338 2.3566,0.5372 c 1.1504,1.096 1.3566,2.5194 0.624,4.2775 l -5.6466,-0.152 c -1.125,2.827 -5.3446,3.4003 -6.4551,0.5372 h -6.6378 c -0.3834,-1.0056 -0.3237,-1.9009 0.1791,-2.6877 l 2.5647,-2.9408 4.1961,-0.042 10.3057,-17.3994 c -4.9123,-3.6173 -8.1136,-9.4394 -8.1136,-15.9886 0,-4.1436 1.2859,-7.9961 3.4708,-11.1847 l 0.01,-0.2225 -81.06062,-92.448 -2.34403,-0.1248 -5.227,10.8393 -5.83658,4.2467 1.49757,3.3551 -3.35869,7.8315 c 25.01925,12.8741 42.19611,38.9713 42.19611,68.9535 0,42.6808 -34.80772,77.4867 -77.48854,77.4867 -42.67746,2e-4 -77.48705,-34.8057 -77.48705,-77.4865 0,-42.679 34.80959,-77.4867 77.48677,-77.4867"
       style="fill:#000000;fill-opacity:1;fill-rule:evenodd;stroke:none;stroke-width:1.80866218"
       id="path6081"
       inkscape:connector-curvature="0" />
    <path
       d="m 912.65146,-1187.9345 h 30 v -20 h -30 z"
       style="fill:#000000;fill-opacity:1;fill-rule:evenodd;stroke:none;stroke-width:2.99580693"
       id="path1807"
       inkscape:connector-curvature="0" />
    <path
       inkscape:connector-curvature="0"
       id="path2443"
       style="fill:#000000;fill-opacity:1;fill-rule:evenodd;stroke:none;stroke-width:2.99580693"
       d="m 1132.6514,-1187.9345 h 30 v -20 h -30 z" />
    <path
       inkscape:connector-curvature="0"
       id="path2456"
       style="fill:#000000;fill-opacity:1;fill-rule:evenodd;stroke:none;stroke-width:2.99580693"
       d="m 967.65146,-1187.9345 h 30 v -20 h -30 z" />
    <path
       d="m 1022.6514,-1187.9345 h 30 v -20 h -30 z"
       style="fill:#000000;fill-opacity:1;fill-rule:evenodd;stroke:none;stroke-width:2.99580693"
       id="path2458"
       inkscape:connector-curvature="0" />
    <path
       inkscape:connector-curvature="0"
       id="path2460"
       style="fill:#000000;fill-opacity:1;fill-rule:evenodd;stroke:none;stroke-width:2.99580693"
       d="m 1077.6514,-1187.9345 h 30 v -20 h -30 z" />
    <path
       d="m 975.15146,-1527.9344 h 29.99994 v -20 h -29.99994 z"
       style="fill:#000000;fill-opacity:1;fill-rule:evenodd;stroke:none;stroke-width:2.99580693"
       id="path2462"
       inkscape:connector-curvature="0" />
    <path
       inkscape:connector-curvature="0"
       id="path2482"
       style="fill:#000000;fill-opacity:1;fill-rule:evenodd;stroke:none;stroke-width:2.99580693"
       d="m 1070.1514,-1527.9344 h 30 v -20 h -30 z" />
    <path
       inkscape:connector-curvature="0"
       id="path2493"
       style="fill:#000000;fill-opacity:1;fill-rule:evenodd;stroke:none;stroke-width:2.99580693"
       d="m 1022.6514,-1527.9344 h 30 v -20 h -30 z" />
    <rect
       style="opacity:1;fill:#a0ff32;fill-opacity:1;stroke:none;stroke-width:58.9592514;stroke-linejoin:round;stroke-miterlimit:4;stroke-dasharray:none;stroke-opacity:1"
       id="rect4179"
       width="400"
       height="400"
       x="837.65143"
       y="-933.93445"
       rx="30.000002"
       ry="30.000002" />
    <rect
       ry="20"
       rx="20"
       y="-923.93445"
       x="847.65143"
       height="380"
       width="380"
       id="rect4190"
       style="opacity:1;fill:#000000;fill-opacity:1;stroke:none;stroke-width:56.01128387;stroke-linejoin:round;stroke-miterlimit:4;stroke-dasharray:none;stroke-opacity:1" />
    <rect
       style="opacity:1;fill:#a0ff32;fill-opacity:1;stroke:none;stroke-width:53.06332016;stroke-linejoin:round;stroke-miterlimit:4;stroke-dasharray:none;stroke-opacity:1"
       id="rect4201"
       width="359.99997"
       height="359.99997"
       x="857.65143"
       y="-913.93445"
       rx="10"
       ry="10" />
    <path
       style="fill:#000000;fill-opacity:1;fill-rule:evenodd;stroke:none;stroke-width:5.45359898"
       d="m 1096.1561,-863.14972 -98.85355,98.8537 -21.13992,-32.217 c -0.75739,-1.4345 -1.72838,-2.7757 -2.92798,-3.9701 -6.40561,-6.4056 -16.78043,-6.4081 -23.18363,0 -2.46116,2.447 -3.96984,5.5023 -4.54175,8.6817 l -38.85778,188.867 188.86701,-38.8578 c 3.1794,-0.5719 6.2333,-2.0819 8.6818,-4.5416 6.4056,-6.4057 6.4056,-16.7781 0,-23.1837 -1.197,-1.197 -2.5357,-2.1706 -3.9702,-2.928 l -32.2169,-21.1399 98.8536,-98.8536 z"
       id="path4203"
       inkscape:connector-curvature="0"
       sodipodi:nodetypes="cccccccccccccc" />
  </g>
</svg>
