<?xml version="1.0" encoding="UTF-8" standalone="no"?>
<!-- Created with Inkscape (http://www.inkscape.org/) -->

<svg
   xmlns:dc="http://purl.org/dc/elements/1.1/"
   xmlns:cc="http://creativecommons.org/ns#"
   xmlns:rdf="http://www.w3.org/1999/02/22-rdf-syntax-ns#"
   xmlns:svg="http://www.w3.org/2000/svg"
   xmlns="http://www.w3.org/2000/svg"
   xmlns:sodipodi="http://sodipodi.sourceforge.net/DTD/sodipodi-0.dtd"
   xmlns:inkscape="http://www.inkscape.org/namespaces/inkscape"
   width="154.472cm"
   height="114.337cm"
   viewBox="0 0 1544.72 1143.37"
   version="1.1"
   id="svg8"
   inkscape:version="0.92.2 (5c3e80d, 2017-08-06)"
   sodipodi:docname="66.svg">
  <defs
     id="defs2" />
  <sodipodi:namedview
     id="base"
     pagecolor="#ffffff"
     bordercolor="#666666"
     borderopacity="1.0"
     inkscape:pageopacity="0.0"
     inkscape:pageshadow="2"
     inkscape:zoom="0.0875"
     inkscape:cx="2142.9946"
     inkscape:cy="1487.5903"
     inkscape:document-units="cm"
     inkscape:current-layer="layer1"
     showgrid="false"
     units="cm"
     fit-margin-top="0"
     fit-margin-left="0"
     fit-margin-right="0"
     fit-margin-bottom="0"
     showguides="true"
     inkscape:window-width="1920"
     inkscape:window-height="1057"
     inkscape:window-x="-8"
     inkscape:window-y="-8"
     inkscape:window-maximized="1" />
  <metadata
     id="metadata5">
    <rdf:RDF>
      <cc:Work
         rdf:about="">
        <dc:format>image/svg+xml</dc:format>
        <dc:type
           rdf:resource="http://purl.org/dc/dcmitype/StillImage" />
        <dc:title></dc:title>
      </cc:Work>
    </rdf:RDF>
  </metadata>
  <g
     inkscape:label="Layer 1"
     inkscape:groupmode="layer"
     id="layer1"
     transform="translate(-25,871.36998)">
    <path
       sodipodi:nodetypes="ccccccc"
       inkscape:connector-curvature="0"
       id="path3210"
       d="m 193.11572,-869.37347 1314.14618,612.79654 60.4612,166.115713 -166.1156,60.4612 L 87.46114,-642.79652 27,-808.91212 Z"
       style="opacity:0.97000002;fill:#000000;fill-opacity:1;stroke:none;stroke-width:141.92835999;stroke-miterlimit:4;stroke-dasharray:none;stroke-opacity:1" />
    <path
       sodipodi:nodetypes="ccccccc"
       inkscape:connector-curvature="0"
       style="opacity:0.97000002;fill:#facd00;fill-opacity:1;stroke:none;stroke-width:125.06381989;stroke-miterlimit:4;stroke-dasharray:none;stroke-opacity:1"
       d="M 1487.3072,-238.29763 191.93958,-842.33739 59.047,-793.96848 l 48.36897,132.89256 1295.36753,604.039803 132.8927,-48.368803 z"
       id="path3212" />
    <path
       sodipodi:nodetypes="ccccccc"
       inkscape:connector-curvature="0"
       id="path3214"
       d="M 87.46106,-256.57693 1401.6074,-869.3734 1567.7231,-808.9122 1507.262,-642.79652 193.11562,-30.000017 27,-90.461217 Z"
       style="opacity:0.97000002;fill:#000000;fill-opacity:1;stroke:none;stroke-width:141.92835999;stroke-miterlimit:4;stroke-dasharray:none;stroke-opacity:1" />
    <path
       sodipodi:nodetypes="ccccccc"
       inkscape:connector-curvature="0"
       style="opacity:0.97000002;fill:#facd00;fill-opacity:1;stroke:none;stroke-width:125.06381989;stroke-miterlimit:4;stroke-dasharray:none;stroke-opacity:1"
       d="M 1402.7835,-842.33741 107.41588,-238.29763 59.04691,-105.40502 191.93949,-57.036117 1487.3071,-661.07592 1535.6762,-793.96849 Z"
       id="path3216" />
    <path
       inkscape:connector-curvature="0"
       id="path3218"
       style="fill:#000000;fill-opacity:1;fill-rule:nonzero;stroke:none;stroke-width:6.2698369"
       d="m 270.45562,-124.42632 20.20777,-9.4296 -26.6316,-57.2039 38.12139,-17.77961 -9.75023,-20.9095 -38.10859,17.786 -14.90631,-31.9903 60.68036,-28.3126 -9.55279,-20.5097 -80.896,37.7388 z" />
    <path
       inkscape:connector-curvature="0"
       id="path3220"
       style="fill:#000000;fill-opacity:1;fill-rule:nonzero;stroke:none;stroke-width:6.2698369"
       d="m 371.74661,-171.68472 80.896,-37.73891 -9.92384,-21.3054 -60.80213,28.3697 -16.73903,-35.9206 38.36574,-17.9053 -9.72239,-20.8734 -38.36206,17.9066 -14.91457,-32.0081 56.62991,-26.4136 -9.55421,-20.515 -76.72915,35.7958 z" />
    <path
       inkscape:connector-curvature="0"
       id="path3222"
       style="fill:#000000;fill-opacity:1;fill-rule:nonzero;stroke:none;stroke-width:6.2698369"
       d="m 482.48342,-318.28223 c -0.5211,0.2452 -9.04141,4.2128 -25.57513,11.9369 l -14.90833,-32.0017 26.64719,-12.426 c 5.02839,-2.345 10.0131,-2.9278 14.96618,-1.761 4.97816,1.2104 8.58952,4.264 10.89673,9.2424 2.45153,5.2289 2.34437,10.2573 -0.27016,15.0725 -2.42658,4.32 -6.3391,7.6365 -11.75632,9.9375 m 56.70821,68.4622 22.55302,-10.5265 -51.4862,-50.1979 c 4.76515,-5.9378 7.58064,-12.7777 8.47111,-20.496 0.91593,-7.7369 -0.26876,-15.0475 -3.46003,-21.9068 -5.044,-10.8169 -12.90908,-17.9075 -23.61768,-21.2492 -10.7653,-3.3548 -21.56187,-2.515 -32.42768,2.5506 l -47.04572,22.1143 60.84944,130.5843 20.22063,-9.4224 -26.46889,-56.7935 24.77866,-11.5734 z" />
    <path
       inkscape:connector-curvature="0"
       id="path3224"
       style="fill:#000000;fill-opacity:1;fill-rule:nonzero;stroke:none;stroke-width:6.2698369"
       d="m 591.59894,-369.19613 c -0.5211,0.2452 -9.04734,4.2133 -25.58115,11.9375 l -14.90208,-31.9954 26.63456,-12.4325 c 5.02855,-2.34469 10.01902,-2.92859 14.97886,-1.75539 4.97188,1.2034 8.58308,4.26369 10.89663,9.23579 2.44487,5.2416 2.33825,10.2574 -0.27649,15.0729 -2.43292,4.3322 -6.34541,7.6299 -11.75007,9.937 m 56.69578,68.475 22.55913,-10.5326 -51.47988,-50.2108 c 4.7529,-5.9248 7.57458,-12.7647 8.46507,-20.4831 0.91578,-7.743 -0.26874,-15.0537 -3.46632,-21.90689 -5.03418,-10.8219 -12.89665,-17.9134 -23.6117,-21.2555 -10.76504,-3.3547 -21.55554,-2.5086 -32.42137,2.5629 l -47.05595,22.09949 60.85319,130.5923 20.22046,-9.4355 -26.46171,-56.797 24.77863,-11.5611 z" />
    <path
       inkscape:connector-curvature="0"
       id="path3226"
       style="fill:#000000;fill-opacity:1;fill-rule:nonzero;stroke:none;stroke-width:6.2698369"
       d="m 728.17456,-360.74573 c -9.46767,4.4137 -18.97901,1.8112 -28.57775,-7.807 -6.55157,-6.5896 -12.53288,-15.6689 -17.91821,-27.2494 -5.31192,-11.39149 -8.41879,-21.78169 -9.27822,-31.12989 -1.31626,-13.7875 2.57135,-22.7909 11.70662,-27.0541 10.1949,-4.7584 20.04486,-2.783 29.6059,5.876 6.7024,6.1886 12.86525,15.3615 18.50143,27.4624 5.64219,12.095 8.82064,22.89169 9.54765,32.42169 0.94648,13.6497 -3.56814,22.8096 -13.58742,27.4803 m 25.29485,-68.55969 c -8.96525,-19.2237 -19.24095,-33.0928 -30.82737,-41.5576 -14.72118,-10.9288 -30.70291,-12.3713 -47.90137,-4.3467 -16.53375,7.7176 -25.19915,20.8777 -25.95224,39.449 -0.69639,14.4146 3.17136,30.6784 11.60384,48.77339 8.75736,18.8039 18.92744,32.6792 30.48227,41.5639 15.01612,11.7688 31.08537,13.6566 48.2274,5.6569 16.53403,-7.711 25.25574,-21.0596 26.1593,-40.032 0.60249,-14.7842 -3.32196,-31.31789 -11.79183,-49.50689" />
    <path
       inkscape:connector-curvature="0"
       id="path3228"
       style="fill:#000000;fill-opacity:1;fill-rule:nonzero;stroke:none;stroke-width:6.2698369"
       d="m 857.66821,-439.59682 c 0.87108,11.5679 -3.85026,19.7435 -14.14557,24.5524 -10.07566,4.6961 -19.98216,2.6012 -29.76283,-6.2963 -7.11597,-6.4393 -13.44199,-15.5745 -18.94635,-27.3934 -3.78638,-8.101 -6.43899,-16.2577 -7.92426,-24.459 -1.93083,-10.7529 -1.22196,-19.0226 2.10737,-24.8411 2.42676,-4.1002 6.85948,-7.6426 13.31133,-10.6581 7.12272,-3.3291 15.76857,-1.7235 25.88793,4.791 l 15.27401,-17.3232 c -15.69284,-14.189 -33.3611,-16.71 -52.94218,-7.5692 -16.96032,7.9054 -26.19622,21.0906 -27.79558,39.5241 -1.28592,14.9973 2.41899,31.7753 11.06431,50.3405 8.35083,17.907 18.74576,31.3815 31.22254,40.44179 15.44222,11.1168 31.40523,12.8228 47.845,5.1556 20.61554,-9.61759 29.88908,-25.66799 27.78955,-48.08899 z" />
    <path
       inkscape:connector-curvature="0"
       id="path3230"
       style="fill:#000000;fill-opacity:1;fill-rule:nonzero;stroke:none;stroke-width:6.2698369"
       d="m 928.90194,-501.62812 -3.61,-42.8295 29.8246,30.5982 z m -10.59929,-84.0791 -20.61572,9.611 15.69441,151.6679 22.0388,-10.2879 -4.0363,-42.4846 40.9555,-19.1023 29.91866,30.4034 22.0448,-10.2885 z" />
    <path
       inkscape:connector-curvature="0"
       id="path3232"
       style="fill:#000000;fill-opacity:1;fill-rule:nonzero;stroke:none;stroke-width:6.2698369"
       d="m 1054.1512,-585.03782 c -0.5147,0.2378 -9.0351,4.2132 -25.5811,11.9375 l -14.9011,-31.9934 26.641,-12.4382 c 5.0098,-2.3383 10.0129,-2.9219 14.9598,-1.7557 4.9907,1.2105 8.5834,4.264 10.9093,9.2424 2.4521,5.2349 2.3382,10.2572 -0.27,15.0662 -2.4453,4.3387 -6.358,7.6428 -11.7627,9.9434 m 56.6895,68.4628 22.5719,-10.5266 -51.4861,-50.1979 c 4.7651,-5.925 7.5744,-12.7778 8.4587,-20.4961 0.9219,-7.7366 -0.2629,-15.0411 -3.4477,-21.9005 -5.044,-10.8169 -12.9153,-17.9072 -23.624,-21.2554 -10.7527,-3.361 -21.5494,-2.515 -32.4278,2.5632 l -47.05076,22.097 60.84956,130.5845 20.2209,-9.4225 -26.4629,-56.7995 24.7788,-11.5733 z" />
    <path
       inkscape:connector-curvature="0"
       id="path3234"
       style="fill:#000000;fill-opacity:1;fill-rule:nonzero;stroke:none;stroke-width:6.2698369"
       d="m 1163.2731,-635.94512 c -0.5329,0.2452 -9.0538,4.213 -25.5811,11.9375 l -14.92,-31.996 26.6472,-12.4324 c 5.0227,-2.3443 10.0257,-2.9278 14.9788,-1.7606 4.9656,1.2104 8.577,4.2699 10.8841,9.2357 2.4545,5.2401 2.3446,10.2639 -0.2707,15.0791 -2.433,4.3261 -6.3327,7.6302 -11.7375,9.9372 m 56.6895,68.4686 22.5528,-10.5265 -51.48,-50.211 c 4.7591,-5.9245 7.581,-12.7647 8.4652,-20.483 0.9102,-7.7433 -0.2572,-15.0537 -3.4603,-21.913 -5.044,-10.8169 -12.8965,-17.9011 -23.6052,-21.256 -10.7714,-3.3544 -21.5682,-2.5083 -32.4338,2.5633 l -47.0458,22.1143 60.852,130.5896 20.2203,-9.4355 -26.4751,-56.7998 24.7849,-11.5607 z" />
    <path
       inkscape:connector-curvature="0"
       id="path3236"
       style="fill:#000000;fill-opacity:1;fill-rule:nonzero;stroke:none;stroke-width:6.2698369"
       d="m 1262.8991,-587.51952 -60.8543,-130.5948 20.8789,-9.7426 60.8581,130.5958 z" />
    <path
       inkscape:connector-curvature="0"
       id="path3238"
       style="fill:#000000;fill-opacity:1;fill-rule:nonzero;stroke:none;stroke-width:6.2698369"
       d="m 1304.1679,-606.77892 80.9074,-37.7419 -8.8166,-18.9308 -60.7944,28.3662 -52.0562,-111.661 -20.0889,9.3792 z" />
    <rect
       style="opacity:0.97000002;fill:#facd00;fill-opacity:1;stroke:none;stroke-width:53.63034058;stroke-miterlimit:4;stroke-dasharray:none;stroke-opacity:1"
       id="rect10901"
       width="820"
       height="268"
       x="387.35999"
       y="1.9999787"
       rx="50"
       ry="50" />
    <rect
       ry="42"
       rx="42"
       y="9.9999781"
       x="395.35999"
       height="252"
       width="804"
       id="rect10903"
       style="opacity:0.97000002;fill:#000000;fill-opacity:1;stroke:none;stroke-width:51.49493408;stroke-miterlimit:4;stroke-dasharray:none;stroke-opacity:1" />
    <rect
       ry="36"
       rx="36"
       y="15.999978"
       x="401.35999"
       height="240"
       width="792"
       id="rect10907"
       style="opacity:0.97000002;fill:#facd00;fill-opacity:1;stroke:none;stroke-width:49.87747192;stroke-miterlimit:4;stroke-dasharray:none;stroke-opacity:1" />
    <path
       inkscape:connector-curvature="0"
       id="path10910"
       style="fill:#000000;fill-opacity:1;fill-rule:nonzero;stroke:none;stroke-width:17.39964485"
       d="m 992.70419,171.79044 c 4.0938,10.2688 10.54511,18.5499 19.47231,24.8138 8.9421,6.2836 18.91,9.3958 29.889,9.3958 12.4785,0 22.6585,-3.8965 30.6585,-11.709 7.9704,-7.7781 11.9359,-17.9235 11.9359,-30.3626 0,-15.053 -5.5981,-26.2194 -16.8582,-33.5486 -2.6634,-1.5783 -13.1344,-5.7065 -31.5265,-12.3009 -11.3786,-4.0444 -17.0703,-9.7953 -17.0703,-17.1739 0,-4.438902 2.1208,-7.881602 6.2293,-10.401902 3.5512,-2.1702 7.64,-3.2553 12.3206,-3.2553 10.91,0 18.3527,3.9951 22.3033,11.901404 l 19.0876,-5.691804 c -7.0481,-18.3033 -20.3551,-27.4574 -39.9162,-27.4574 -12.1085,0 -21.8002,2.8113 -29.1935,8.3897 -8.1431,6.3328 -12.18251,15.2947 -12.18251,26.934602 0,13.3267 5.58811,23.3835 16.75951,30.1356 10.4908,4.2417 20.947,8.4884 31.3884,12.7201 11.1714,4.7842 16.7547,11.4476 16.7547,20.0445 0,6.2983 -2.0222,11.1664 -6.1406,14.5794 -4.0937,3.4525 -9.3465,5.1493 -15.7485,5.1493 -5.9482,0 -11.5018,-1.8743 -16.7398,-5.6376 -5.164,-3.7484 -8.8385,-8.4191 -10.9938,-14.0911 z m -85.27245,-27.6104 13.89889,-37.8643 13.25771,37.8643 z m -43.83231,59.5216 h 22.84587 l 13.41553,-37.7558 h 42.42171 l 13.43035,37.7558 h 22.8311 L 931.73754,68.456238 h -21.35142 z m -35.82738,0 h 21.66216 V 68.436538 H 827.77205 Z M 710.83,68.456238 753.72026,203.70164 h 16.61651 L 813.61175,68.456238 H 790.78068 L 762.248,158.67084 733.13826,68.456238 Z" />
    <path
       inkscape:connector-curvature="0"
       id="path10912"
       style="fill:#000000;fill-opacity:1;fill-rule:nonzero;stroke:none;stroke-width:17.39964485"
       d="m 510.06,204.78174 h 91.94078 v -22.1651 h -66.3823 c 4.24172,-10.3034 10.2294,-18.55 17.99262,-24.7794 3.50185,-2.8113 9.0111,-6.2096 16.5623,-10.2639 7.53637,-4.0937 12.85821,-7.2898 16.02466,-9.7607 5.41555,-4.2417 9.50432,-9.2232 12.32059,-14.9988 2.31814,-4.9766 3.50185,-10.0912 3.50185,-15.4328 0,-12.162802 -4.94205,-22.066602 -14.86066,-29.736202 -9.20346,-6.9445 -20.04444,-10.4266 -32.5919,-10.4266 -10.9248,0 -20.52776,3.3046 -28.9519,9.9532 -8.38467,6.6289 -13.57338,15.2947 -15.5364,26.032002 l 21.34656,4.7349 c 0.83843,-6.1257 3.60044,-10.890202 8.40441,-14.337802 4.3403,-3.058 9.72625,-4.5869 16.21706,-4.5869 5.86437,0 11.22561,1.5289 16.09366,4.4882 5.67202,3.3539 8.54748,7.916202 8.54748,13.504402 0,4.1429 -1.8249,8.1232 -5.41553,11.9161 -2.17016,2.2195 -5.9679,4.7349 -11.35883,7.5709 -8.05915,4.143 -12.21705,6.3478 -12.5968,6.6288 -12.87796,7.9163 -22.91489,18.1111 -30.06652,30.5352 -7.18623,12.4389 -10.89521,26.1702 -11.17149,41.1344" />
  </g>
</svg>
