<?xml version="1.0" encoding="UTF-8" standalone="no"?>
<!-- Created with Inkscape (http://www.inkscape.org/) -->

<svg
   xmlns:dc="http://purl.org/dc/elements/1.1/"
   xmlns:cc="http://creativecommons.org/ns#"
   xmlns:rdf="http://www.w3.org/1999/02/22-rdf-syntax-ns#"
   xmlns:svg="http://www.w3.org/2000/svg"
   xmlns="http://www.w3.org/2000/svg"
   xmlns:sodipodi="http://sodipodi.sourceforge.net/DTD/sodipodi-0.dtd"
   xmlns:inkscape="http://www.inkscape.org/namespaces/inkscape"
   width="81.945999cm"
   height="81.945999cm"
   viewBox="0 0 819.45999 819.45996"
   version="1.1"
   id="svg8"
   inkscape:version="0.92.2 (5c3e80d, 2017-08-06)"
   sodipodi:docname="66.svg">
  <defs
     id="defs2" />
  <sodipodi:namedview
     id="base"
     pagecolor="#ffffff"
     bordercolor="#666666"
     borderopacity="1.0"
     inkscape:pageopacity="0.0"
     inkscape:pageshadow="2"
     inkscape:zoom="0.15879247"
     inkscape:cx="2041.1558"
     inkscape:cy="668.36911"
     inkscape:document-units="cm"
     inkscape:current-layer="layer1"
     showgrid="false"
     units="cm"
     inkscape:window-width="1920"
     inkscape:window-height="1057"
     inkscape:window-x="-8"
     inkscape:window-y="-8"
     inkscape:window-maximized="1"
     fit-margin-top="0"
     fit-margin-left="0"
     fit-margin-right="0"
     fit-margin-bottom="0" />
  <metadata
     id="metadata5">
    <rdf:RDF>
      <cc:Work
         rdf:about="">
        <dc:format>image/svg+xml</dc:format>
        <dc:type
           rdf:resource="http://purl.org/dc/dcmitype/StillImage" />
        <dc:title></dc:title>
      </cc:Work>
    </rdf:RDF>
  </metadata>
  <g
     inkscape:label="Layer 1"
     inkscape:groupmode="layer"
     id="layer1"
     transform="translate(-55,765.75999)">
    <rect
       style="fill:#facd00;fill-opacity:1;stroke:none;stroke-width:59.79019928;stroke-miterlimit:4;stroke-dasharray:none;stroke-opacity:1"
       id="rect815"
       width="600"
       height="600"
       x="280.36768"
       y="-223.13751"
       rx="40"
       ry="40"
       transform="rotate(-45)" />
    <rect
       y="-211.13751"
       x="292.36768"
       height="576"
       width="576"
       id="rect12551"
       style="fill:#000000;fill-opacity:1;stroke:none;stroke-width:57.39859009;stroke-miterlimit:4;stroke-dasharray:none;stroke-opacity:1"
       rx="28"
       ry="28"
       transform="rotate(-45)" />
    <rect
       y="-199.13751"
       x="304.36768"
       height="552"
       width="552"
       id="rect12553"
       style="fill:#facd00;fill-opacity:1;stroke:none;stroke-width:55.00698471;stroke-miterlimit:4;stroke-dasharray:none;stroke-opacity:1"
       rx="16"
       ry="16"
       transform="rotate(-45)" />
    <path
       d="m 285.88439,-519.51882 c -8.43053,-0.068 -16.948,-0.10198 -25.51051,-0.051 l -16.48628,16.46529 c 13.44028,-0.34759 27.0245,-0.49122 41.99679,-0.97733 32.95463,1.0703 59.17569,0.47082 91.95942,4.08334 2.97104,0.32633 11.6714,5.44748 13.2844,8.16673 8.39161,14.14785 12.54385,25.07573 15.66788,38.99268 2.65627,11.83636 -7.02446,11.12283 -21.21429,10.30137 -23.04912,-1.32516 -42.9951,-4.20026 -99.69741,-4.20026 -56.7023,0 -76.64532,2.8751 -99.6974,4.20026 l -3.10006,0.18017 -57.20295,57.14601 c 27.07847,-1.91581 61.1424,3.05195 62.08385,15.49689 0.45552,6.09805 -8.21467,15.20616 -23.19002,12.13321 -12.86764,-1.87085 -36.29144,8.66135 -50.01063,16.33636 -0.93236,0.5218 -1.85274,0.98039 -2.76718,1.38814 l 103.67289,103.57091 h 203.14236 v 17.52963 c 0,14.93634 12.22908,27.1564 27.1774,27.1564 h 39.76926 c 14.94831,0 27.18343,-12.22006 27.18343,-27.1564 v -86.3354 c 0,-2.82717 -0.44108,-5.54939 -1.25021,-8.11278 1.96969,-27.57316 3.47179,-55.53903 0.40453,-66.05023 -3.00403,-10.29228 -17.36179,-15.05022 -24.5931,-22.97109 0.57533,-3.60368 -1.0703,-7.40222 -12.19305,-15.52392 -3.50178,-2.55735 -5.70831,-4.99776 -7.45618,-7.75601 h 0.002 c 1.97878,1.73589 28.33165,1.76292 31.26981,0.73427 6.39184,-2.24555 12.64873,-6.75762 15.8387,-12.72972 1.6549,-3.08799 -0.74021,-8.0708 -3.78954,-9.80371 -9.03613,-5.14163 -19.52039,-7.627 -29.78275,-9.28794 -2.38645,-0.38668 -4.8838,1.544 -6.37383,3.43873 -3.14799,3.99647 -3.21393,10.16047 -7.00645,13.55126 -1.80184,1.60994 -7.16536,-3.27385 -7.18933,-0.86344 v 0.002 c -9.77965,-21.43917 -11.79744,-26.17304 -25.60943,-45.10586 -4.00242,-5.48641 -21.09736,-26.78765 -27.81597,-27.78596 -39.39448,-5.86417 -81.46928,-6.51779 -121.5173,-6.16698 m 171.11713,178.27646 c 13.71613,7.67502 25.50447,2.43744 26.10413,-5.00072 0.56089,-7.0005 -2.16464,-19.98203 -4.46713,-27.63614 -4.96775,-16.53727 -93.31753,-15.9796 -94.83459,4.16737 -0.45892,6.09806 8.21773,15.20608 23.18695,12.13313 12.86773,-1.87085 36.29154,8.66135 50.01064,16.33636 m -208.46697,46.97059 h 74.70267 c 3.80746,0 6.92248,3.10897 6.92248,6.91653 v 26.37395 c 0,3.80747 -3.11502,6.91654 -6.92248,6.91654 h -74.70199 c -3.81053,0 -6.92546,-3.10907 -6.92546,-6.91654 v -26.37395 c 0,-3.80756 3.11493,-6.91653 6.92546,-6.91653"
       style="fill:#000000;fill-opacity:1;fill-rule:evenodd;stroke:none;stroke-width:2.99805784"
       id="path1131"
       inkscape:connector-curvature="0"
       sodipodi:nodetypes="ccccccccscccccccccsssssccccccccccccccccccccccccsssssssc" />
    <path
       d="m 508.94259,-199.07836 c -1.36729,2.38364 -0.54566,5.42403 1.83798,6.79429 2.38373,1.36729 5.42709,0.54566 6.79736,-1.83798 l 72.78564,-125.94392 c 1.37026,-2.38075 0.5516,-5.42105 -1.83799,-6.79132 -2.38372,-1.37026 -5.42708,-0.54905 -6.79735,1.83501 z"
       style="fill:#000000;fill-opacity:1;fill-rule:nonzero;stroke:none;stroke-width:2.99837852"
       id="path1135"
       inkscape:connector-curvature="0" />
    <path
       d="m 529.66739,-200.1548 c -1.95196,1.95196 -1.95196,5.11524 0,7.06414 1.95196,1.95196 5.11822,1.95196 7.07018,0 l 153.87675,-153.72681 c 1.95196,-1.95196 1.95196,-5.11227 0,-7.06423 -1.95188,-1.95196 -5.11822,-1.95196 -7.07316,0 z"
       style="fill:#000000;fill-opacity:1;fill-rule:nonzero;stroke:none;stroke-width:2.99837852"
       id="path1139"
       inkscape:connector-curvature="0" />
    <path
       d="m 550.66501,-200.91039 c -2.38372,1.3672 -3.21122,4.40759 -1.83798,6.78834 1.37026,2.38372 4.4166,3.20527 6.79735,1.83798 l 126.06682,-72.71671 c 2.38372,-1.3672 3.20527,-4.41056 1.83798,-6.79131 -1.37324,-2.38067 -4.41362,-3.2023 -6.79735,-1.83501 z"
       style="fill:#000000;fill-opacity:1;fill-rule:nonzero;stroke:none;stroke-width:2.99837852"
       id="path1143"
       inkscape:connector-curvature="0" />
    <circle
       style="opacity:1;fill:#000000;fill-opacity:1;stroke:none;stroke-width:9.23323917;stroke-linejoin:round;stroke-miterlimit:4;stroke-dasharray:none;stroke-opacity:1"
       id="path1930"
       cx="604.20001"
       cy="-352.86005"
       r="5" />
    <circle
       r="5"
       cy="-366.20004"
       cx="651.09998"
       id="circle1941"
       style="opacity:1;fill:#000000;fill-opacity:1;stroke:none;stroke-width:9.23323917;stroke-linejoin:round;stroke-miterlimit:4;stroke-dasharray:none;stroke-opacity:1" />
    <circle
       style="opacity:1;fill:#000000;fill-opacity:1;stroke:none;stroke-width:9.23323917;stroke-linejoin:round;stroke-miterlimit:4;stroke-dasharray:none;stroke-opacity:1"
       id="circle1952"
       cx="627.59998"
       cy="-326.20004"
       r="5" />
    <circle
       r="5"
       cy="-339.60004"
       cx="721.39996"
       id="circle1963"
       style="opacity:1;fill:#000000;fill-opacity:1;stroke:none;stroke-width:9.23323917;stroke-linejoin:round;stroke-miterlimit:4;stroke-dasharray:none;stroke-opacity:1" />
    <circle
       style="opacity:1;fill:#000000;fill-opacity:1;stroke:none;stroke-width:9.23323917;stroke-linejoin:round;stroke-miterlimit:4;stroke-dasharray:none;stroke-opacity:1"
       id="circle1974"
       cx="744.79999"
       cy="-312.90002"
       r="5" />
    <circle
       r="5"
       cy="-299.60004"
       cx="674.5"
       id="circle1985"
       style="opacity:1;fill:#000000;fill-opacity:1;stroke:none;stroke-width:9.23323917;stroke-linejoin:round;stroke-miterlimit:4;stroke-dasharray:none;stroke-opacity:1" />
    <circle
       style="opacity:1;fill:#000000;fill-opacity:1;stroke:none;stroke-width:9.23323917;stroke-linejoin:round;stroke-miterlimit:4;stroke-dasharray:none;stroke-opacity:1"
       id="circle1996"
       cx="698"
       cy="-286.26004"
       r="5" />
  </g>
</svg>
