<?xml version="1.0" encoding="UTF-8" standalone="no"?>
<!-- Created with Inkscape (http://www.inkscape.org/) -->

<svg
   xmlns:dc="http://purl.org/dc/elements/1.1/"
   xmlns:cc="http://creativecommons.org/ns#"
   xmlns:rdf="http://www.w3.org/1999/02/22-rdf-syntax-ns#"
   xmlns:svg="http://www.w3.org/2000/svg"
   xmlns="http://www.w3.org/2000/svg"
   xmlns:sodipodi="http://sodipodi.sourceforge.net/DTD/sodipodi-0.dtd"
   xmlns:inkscape="http://www.inkscape.org/namespaces/inkscape"
   width="81.945999cm"
   height="81.945999cm"
   viewBox="0 0 819.45999 819.45997"
   version="1.1"
   id="svg8"
   inkscape:version="0.92.2 (5c3e80d, 2017-08-06)"
   sodipodi:docname="66.svg">
  <defs
     id="defs2" />
  <sodipodi:namedview
     id="base"
     pagecolor="#ffffff"
     bordercolor="#666666"
     borderopacity="1.0"
     inkscape:pageopacity="0.0"
     inkscape:pageshadow="2"
     inkscape:zoom="0.15879247"
     inkscape:cx="2308.6805"
     inkscape:cy="1106.7758"
     inkscape:document-units="cm"
     inkscape:current-layer="layer1"
     showgrid="false"
     units="cm"
     inkscape:window-width="1920"
     inkscape:window-height="1057"
     inkscape:window-x="-8"
     inkscape:window-y="-8"
     inkscape:window-maximized="1" />
  <metadata
     id="metadata5">
    <rdf:RDF>
      <cc:Work
         rdf:about="">
        <dc:format>image/svg+xml</dc:format>
        <dc:type
           rdf:resource="http://purl.org/dc/dcmitype/StillImage" />
        <dc:title></dc:title>
      </cc:Work>
    </rdf:RDF>
  </metadata>
  <g
     inkscape:label="Layer 1"
     inkscape:groupmode="layer"
     id="layer1"
     transform="translate(0,522.46)">
    <rect
       style="fill:#facd00;fill-opacity:1;stroke:none;stroke-width:59.79019928;stroke-miterlimit:4;stroke-dasharray:none;stroke-opacity:1"
       id="rect815"
       width="600"
       height="600"
       x="69.437729"
       y="-89.989304"
       rx="40"
       ry="40"
       transform="rotate(-45)" />
    <rect
       y="-77.989304"
       x="81.437729"
       height="576"
       width="576"
       id="rect12551"
       style="fill:#000000;fill-opacity:1;stroke:none;stroke-width:57.39859009;stroke-miterlimit:4;stroke-dasharray:none;stroke-opacity:1"
       rx="28"
       ry="28"
       transform="rotate(-45)" />
    <rect
       y="-65.989304"
       x="93.437729"
       height="552"
       width="552"
       id="rect12553"
       style="fill:#facd00;fill-opacity:1;stroke:none;stroke-width:55.00698471;stroke-miterlimit:4;stroke-dasharray:none;stroke-opacity:1"
       rx="16"
       ry="16"
       transform="rotate(-45)" />
    <path
       inkscape:connector-curvature="0"
       id="path3437"
       style="fill:#000000;fill-opacity:1;fill-rule:evenodd;stroke:none;stroke-width:3.08860469"
       d="m 278.6356,-158.20666 c 11.6133,-4.05523 31.0961,-8.99701 40.7541,-5.80657 11.1222,4.4044 19.0475,-1.43921 19.5201,-6.20805 1.572,-15.74265 -66.4329,-28.18032 -72.5112,-16.09781 -2.8106,5.5904 -6.6776,15.23612 -7.1965,20.706 -0.5498,5.81894 7.8204,11.46186 19.4335,7.40643 m 96.6857,54.39967 57.5624,10.14918 c 2.9341,0.51918 4.9078,3.34182 4.392,6.27907 l -3.5828,20.3416 c -0.5218,2.93419 -3.3449,4.91091 -6.2792,4.39506 l -57.5592,-10.14917 c -2.9403,-0.51568 -4.914,-3.34183 -4.3981,-6.27601 l 3.5889,-20.34467 c 0.5157,-2.93418 3.3419,-4.91397 6.2761,-4.39506 m 167.0225,-7.90069 c 9.5221,7.78022 19.3192,5.34333 20.7893,-0.31167 1.3867,-5.31855 1.0532,-15.70552 0.3213,-21.91984 -1.5814,-13.43226 -69.7315,-25.00226 -73.6415,-9.67348 -1.1861,4.64214 4.2622,12.84545 16.2151,12.51196 10.1738,0.30284 26.7875,11.60695 36.3158,19.39338 M 432.6336,-260.55034 c -25.5427,-3.65074 -45.6588,-7.67512 -71.4147,-9.34298 -2.3319,-0.15147 -9.7322,2.61602 -11.3445,4.49386 -8.3918,9.76934 -13.0802,17.63597 -17.3733,27.94568 -3.657,8.76856 3.8946,9.5315 14.9426,10.82563 17.9386,2.11258 33.6997,2.60054 77.3912,10.30362 43.6914,7.70907 58.6711,12.63537 76.2513,16.78965 10.8226,2.55731 18.1796,4.42597 17.7441,-5.0623 -0.513,-11.16221 -2.2269,-20.15313 -6.7671,-32.20489 -0.8737,-2.31638 -6.8844,-7.44667 -9.1268,-8.10137 -24.7706,-7.24588 -45.0535,-10.34067 -70.3028,-15.6469 M 562.3272,2.2003819 638.73,2.1999419 V 21.599942 h -458 V -48.09962 h 50.7735 c -8.8858,-3.78667 -14.3712,-13.33451 -12.6293,-23.23347 l 11.743,-66.58724 c 0.3825,-2.17749 1.087,-4.21908 2.0601,-6.08454 2.233,-21.53384 4.8799,-43.3116 8.6728,-51.0022 3.7124,-7.52994 15.4213,-9.25342 22.0742,-14.37742 0.044,-2.85695 1.8315,-5.56264 11.5081,-10.319 3.0391,-1.49183 5.0746,-3.07632 6.7949,-4.96654 -1.7604,1.06867 -22.0742,-2.48632 -24.1899,-3.6816 -4.6236,-2.60064 -8.8272,-6.93075 -10.4796,-11.96829 -0.8493,-2.60993 1.674,-6.12788 4.2561,-7.05137 7.6658,-2.73334 16.0792,-3.22759 24.2147,-3.11326 1.8902,0.026 3.5488,1.85318 4.4413,3.51794 1.8841,3.50857 1.0965,8.27431 3.5581,11.40305 1.1675,1.48564 5.964,-1.55044 5.6553,0.31173 10.4549,-15.20516 12.6477,-18.58412 25.867,-31.30916 3.8299,-3.68779 19.8968,-17.79353 25.2092,-17.65144 31.1548,0.83093 63.6623,6.0445 94.4742,11.75521 30.9047,5.17033 63.2392,11.39087 92.7972,21.26514 5.0405,1.68324 15.3133,20.43421 17.6482,25.20915 8.0737,16.48082 8.9755,20.40634 13.6023,38.27096 v -0.01 c 0.3493,-1.85618 3.8175,2.64088 5.4205,1.64629 3.3851,-2.1002 4.2746,-6.84438 7.2427,-9.50054 1.4084,-1.26008 3.5921,-2.40914 5.3773,-1.78828 7.6875,2.67473 15.4275,6.01654 21.6913,11.21154 2.1126,1.75133 3.2769,5.92089 1.5844,8.07681 -3.2707,4.17265 -8.7037,6.80105 -13.9357,7.66584 -2.403,0.39839 -22.7075,-3.20912 -23.9954,-4.81208 v 0 c 0.9698,2.3658 2.338,4.54648 4.6854,6.99266 7.4683,7.77706 8.2188,10.93057 7.2892,13.63305 4.4907,7.08832 14.9086,12.71266 15.8228,21.05816 0.9328,8.52142 -4.0276,29.88842 -9.2966,50.88779 0.2775,2.08792 0.2469,4.24999 -0.1392,6.42432 l -11.743,66.5903319 c -0.8309,4.71935 -3.1843,8.79326999 -6.4582,11.83558 M 388.63,2.1999419 H 513.5053 C 501.9879,0.16454189 494.2262,-10.905478 496.2555,-22.42597 l 2.3844,-13.51577 -102.4275,-18.06528 -102.4273,-18.05906 -2.3844,13.52191 c -0.7101,4.04302 -2.5389,7.5867 -5.1086,10.44367 H 388.63 Z"
       sodipodi:nodetypes="cccccccccccccccccccccccccccccccccccccccccccccccccccccccccccccccccccccccccccccccccccc" />
  </g>
</svg>
