<?xml version="1.0" encoding="utf-8"?>
<!-- Generator: Adobe Illustrator 16.0.3, SVG Export Plug-In . SVG Version: 6.00 Build 0)  -->
<!DOCTYPE svg PUBLIC "-//W3C//DTD SVG 1.1//EN" "http://www.w3.org/Graphics/SVG/1.1/DTD/svg11.dtd">
<svg version="1.1" id="Capa_1" xmlns="http://www.w3.org/2000/svg" xmlns:xlink="http://www.w3.org/1999/xlink" x="0px" y="0px"
	 width="2551.18px" height="2551.18px" viewBox="0 0 2551.18 2551.18" enable-background="new 0 0 2551.18 2551.18"
	 xml:space="preserve">
<g>
	<g>
		<g>
			<path fill="#FACD00" d="M1220.84,2450.545c-35.115-0.969-69.655-17.904-96.744-48.51
				c-58.875-66.512-116.776-133.887-175.167-200.828c-76.979-88.25-154.183-176.307-231.027-264.674
				c-56.204-64.631-111.802-129.787-168.009-194.412c-67.308-77.391-134.988-154.451-202.484-231.676
				c-50.789-58.109-101.546-116.248-152.305-174.387c-15.167-17.373-30.568-34.553-45.378-52.229
				c-35.83-42.766-38.228-101.128-5.026-144.662c16.145-21.165,38.714-37.44,58.447-55.851
				c42.839-39.969,85.693-79.92,128.6-119.817C383.63,915.26,435.6,867.107,487.487,818.866
				c55.903-51.977,111.708-104.058,167.642-155.998c47.009-43.652,94.188-87.123,141.208-130.763
				c55.063-51.108,110.05-102.298,165.041-153.483c53.284-49.595,106.523-99.233,159.788-148.849
				c24.346-22.679,48.783-45.263,73.035-68.041c46.941-44.088,118.143-49.048,169.567-10.321
				c47.816,36.01,91.373,77.196,136.822,116.078c76.328,65.295,151.891,131.49,227.893,197.166
				c79.012,68.272,158.254,136.278,237.232,204.589c70.057,60.587,139.736,121.604,209.854,182.116
				c89.967,77.639,180.311,154.837,270.24,232.518c19.402,16.759,40.422,32.187,51.738,56.598
				c20.256,43.686,13.068,84.676-11.109,124.332c-18.893,30.986-47.518,52.917-72.744,77.898
				c-82.656,81.852-165.938,163.07-249.049,244.463c-75.598,74.035-151.291,147.973-226.932,221.965
				c-89.818,87.861-179.645,175.715-269.43,263.613c-79.469,77.799-158.9,155.633-238.314,233.488
				c-35.457,34.766-70.371,70.102-106.396,104.268C1296.84,2435.856,1265.085,2450.94,1220.84,2450.545z M1231.553,2357.749
				c36.56-1.277,67.239-16.711,93.776-42.338c91.025-87.898,182.348-175.492,273.504-263.256
				c122-117.463,243.916-235.016,365.936-352.455c132.508-127.529,265.223-254.84,397.518-382.588
				c21.945-21.193,45.719-40.705,61.543-67.852c30.24-51.885,22.525-104.99-22.438-144.517
				c-12.383-10.886-25.158-21.329-37.719-32.017c-64.041-54.492-128.01-109.07-192.119-163.481
				c-64.689-54.905-129.574-109.584-194.268-164.487c-75.791-64.322-151.428-128.82-227.207-193.159
				c-70.699-60.025-141.479-119.956-212.252-179.896c-57.273-48.508-114.084-97.58-172.031-145.267
				c-51.057-42.017-119.866-39.145-169.034,5.661c-95.577,87.095-190.956,174.404-286.447,261.593
				c-106.788,97.505-213.651,194.93-320.405,292.475c-124.41,113.676-248.693,227.494-373.13,341.143
				c-34.9,31.874-43.424,85.173-19.548,126.032c16.006,27.395,39.346,48.786,60.043,72.28
				c81.235,92.219,162.951,184.014,244.344,276.094c84.559,95.656,169.612,190.871,253.792,286.869
				c38.549,43.959,77.844,87.322,116.724,131.021c87.231,98.037,173.774,196.689,261.462,294.316
				C1158.987,2342.192,1192.143,2356.977,1231.553,2357.749z"/>
			<path fill="#160A05" d="M1231.553,2357.749c-39.41-0.771-72.565-15.557-97.958-43.828
				c-87.688-97.627-174.23-196.279-261.462-294.316c-38.879-43.699-78.174-87.064-116.724-131.021
				c-84.181-95.998-169.233-191.213-253.792-286.869c-81.394-92.08-163.108-183.875-244.344-276.094
				c-20.697-23.494-44.038-44.885-60.043-72.28c-23.876-40.858-15.352-94.158,19.548-126.031
				c124.437-113.649,248.72-227.467,373.13-341.144c106.754-97.545,213.617-194.97,320.404-292.473
				c95.492-87.189,190.87-174.499,286.447-261.593c49.168-44.806,117.979-47.678,169.034-5.661
				c57.947,47.687,114.758,96.758,172.033,145.267c70.77,59.941,141.553,119.87,212.252,179.896
				c75.777,64.338,151.414,128.837,227.205,193.158c64.691,54.903,129.578,109.582,194.268,164.487
				c64.109,54.412,128.078,108.989,192.119,163.481c12.563,10.688,25.336,21.131,37.719,32.017
				c44.963,39.525,52.678,92.631,22.438,144.517c-15.822,27.147-39.596,46.659-61.541,67.852
				c-132.295,127.748-265.01,255.059-397.52,382.588c-122.02,117.441-243.934,234.992-365.936,352.455
				c-91.154,87.764-182.479,175.355-273.504,263.256C1298.792,2341.038,1268.112,2356.469,1231.553,2357.749z M1284.278,219.304
				c-27.366-0.611-51.029,9.239-70.889,27.304c-92.724,84.348-185.146,169.022-277.648,253.61
				c-99.152,90.67-198.228,181.429-297.428,272.045c-74.259,67.833-148.72,135.446-222.991,203.269
				c-59.494,54.324-118.68,108.983-178.308,163.163c-38.239,34.746-42.391,80.513-9.367,120.271
				c16.553,19.927,34.322,38.843,51.511,58.24c114.655,129.402,229.296,258.816,343.952,388.219
				c53.922,60.857,107.848,121.711,161.798,182.543c69.623,78.504,139.248,157.01,208.921,235.467
				c50.879,57.293,102.329,114.088,152.615,171.893c42.646,49.02,112.286,53.123,159.073,8.053
				c31.967-30.791,63.977-61.541,95.939-92.338c88.857-85.627,177.662-171.311,266.566-256.891
				c75.619-72.787,151.361-145.447,227.023-218.193c76.096-73.164,152.15-146.375,228.236-219.549
				c87.502-84.152,175.877-167.422,262.164-252.8c42.748-42.296,50.313-103.021-4.021-147.651
				c-99.582-81.798-196.998-166.236-295.248-249.653c-67.398-57.221-134.59-114.685-202.035-171.853
				c-90.211-76.465-180.656-152.652-270.854-229.136c-86.309-73.188-172.273-146.78-258.744-219.773
				C1334.555,228.666,1311.278,218.483,1284.278,219.304z"/>
			<path fill="#FACD00" d="M1284.29,219.295c26.988-0.813,50.268,9.37,70.256,26.245c86.473,72.993,172.438,146.586,258.744,219.772
				c90.197,76.483,180.643,152.672,270.854,229.137c67.445,57.168,134.637,114.632,202.035,171.853
				c98.25,83.417,195.666,167.855,295.248,249.653c54.332,44.63,46.77,105.354,4.021,147.65
				c-86.287,85.379-174.662,168.649-262.164,252.801c-76.086,73.174-152.141,146.385-228.236,219.549
				c-75.662,72.746-151.404,145.406-227.021,218.193c-88.906,85.578-177.709,171.264-266.568,256.891
				c-31.963,30.797-63.973,61.547-95.938,92.338c-46.788,45.07-116.427,40.967-159.074-8.053
				c-50.287-57.805-101.736-114.6-152.616-171.893c-69.674-78.457-139.299-156.963-208.921-235.467
				c-53.95-60.832-107.876-121.686-161.798-182.543c-114.655-129.4-229.296-258.814-343.951-388.219
				c-17.188-19.396-34.958-38.313-51.511-58.24c-33.023-39.759-28.872-85.525,9.367-120.271
				c59.627-54.179,118.813-108.839,178.307-163.163c74.271-67.821,148.731-135.436,222.992-203.269
				c99.2-90.616,198.273-181.375,297.427-272.045c92.502-84.587,184.926-169.262,277.648-253.61
				C1233.249,228.543,1256.912,218.693,1284.29,219.295z M1396.424,1102.28c-0.252-1.229-0.504-2.459-0.756-3.688
				c-30.721-6.413-61.416-12.943-92.16-19.218c-67.019-13.675-134.048-27.281-201.111-40.725c-6.808-1.363-9.707-3.553-7.05-11.009
				c3.287-9.22,5.693-18.764,8.281-28.222c4.35-15.89,4.235-15.68,20.604-12.247c96.55,20.259,193.118,40.438,289.698,60.548
				c15.695,3.27,15.729,3.045,10.908,18.86c-1.604,5.262-3.209,10.525-4.674,15.828c-1.92,6.927-1.084,10.519,7.723,7.931
				c19.76-5.811,40.221-6.999,60.68-7.76c36.691-1.363,73.131,1.666,109.359,7.101c8.66,1.301,12.969-1.419,16.139-9.246
				c7.264-17.938,13.568-36.171,15.602-55.438c2.99-28.378-1.277-54.764-24.402-74.788c-6.355-5.502-8.506-12.985-10.09-20.794
				c-6.32-31.209-13.076-62.337-18.918-93.637c-9.818-52.617-37.234-83.662-94.494-93.15
				c-81.707-13.539-162.887-30.222-244.372-45.138c-15.771-2.889-31.403-6.914-47.83-6.194
				c-23.482,1.031-43.001,8.803-59.685,26.166c-22.355,23.267-43.977,46.979-64.138,72.239
				c-18.037,22.596-42.796,37.833-66.785,53.698c-37.214,24.614-62.176,56.842-52.863,104.266
				c7.394,37.643,0.295,71.699-16.853,104.837c-7.128,13.776-6.815,13.82,8.653,16.588c56.008,10.023,108.938,27.597,153.929,63.999
				c8.914,7.211,17.963,13.88,28.554,18.411c37.793,16.164,76.859,13.58,116.041,7.707c38.472-5.771,73.862-21.216,109.444-35.94
				C1362.719,1116.287,1379.569,1109.274,1396.424,1102.28z M1904.153,1503.266c69.514-1.045,124.9-11.717,169.828-30.146
				c9.002-3.693,9.705-7.523,6.238-15.762c-4.082-9.699-10.012-6.4-16.184-3.943c-43.178,17.188-88.023,26.326-134.422,27.959
				c-54.063,1.906-107.084-2.756-156.076-28.203c-34.902-18.129-71.08-33.557-106.188-51.164
				c-59.467-29.82-121.025-36.59-185.797-22.586c-40.523,8.766-78.924,23.904-118.256,36.25
				c-44.154,13.861-87.033,31.674-133.29,38.844c-44.732,6.934-88.691,8.072-130.992-10.254
				c-33.895-14.688-67.38-30.477-99.254-49.219c-27.74-16.313-56.968-27.24-88.793-32.645
				c-71.512-12.143-138.876-1.654-200.37,37.082c-31.125,19.605-64.016,33.174-99.546,41.352
				c-31.431,7.238-63.303,11.807-95.281,15.535c-9.333,1.086-7.948,6.408-7.41,12.367c0.556,6.166,1.855,9.834,10.007,8.951
				c24.659-2.674,49.177-6.244,73.484-10.982c46.132-8.994,89.478-23.744,130.29-49.025
				c74.191-45.963,154.428-51.113,235.519-19.863c32.838,12.65,62.58,32.813,94.246,48.629
				c42.438,21.201,85.862,37.377,134.228,34.428c43.366-2.641,85.499-11.301,126.772-25.262
				c51.754-17.504,102.813-37.385,155.797-50.902c50.119-12.787,100.768-18.059,150.867,1.064
				c37.854,14.449,75.201,30.469,110.572,49.994C1787.225,1487.272,1847.01,1505.661,1904.153,1503.266z M1902.731,1390.413
				c28.703-0.363,47.947-1.014,67.107-3.559c36.797-4.889,72.387-14.08,106.828-28.057c7.934-3.221,6.189-7.73,4.039-12.867
				c-2.057-4.902-3.488-10.863-11.602-7.475c-44.75,18.699-91.531,28.158-139.902,30.262
				c-53.773,2.336-106.332-3.295-154.904-28.063c-35.055-17.873-70.73-34.316-106.307-51.049
				c-43.299-20.362-87.773-34.275-136.471-29.987c-44.59,3.929-87.146,15.779-129.459,29.936
				c-54.375,18.191-107.672,39.93-164.396,50.791c-57.837,11.074-112.982,6.951-166.108-21.158
				c-32.268-17.076-63.953-35.859-97.31-50.265c-88.281-38.127-176.238-33.631-259.205,15.238
				c-37.585,22.139-76.174,38.367-118.597,46.994c-26.642,5.416-53.522,8.941-80.446,12.104c-9.329,1.092-8.022,6.143-7.682,12.145
				c0.398,7.039,2.625,10.85,10.849,9.514c25.21-4.094,50.664-6.85,75.727-11.666c45.401-8.725,87.58-24.379,127.849-48.854
				c76.366-46.419,158.464-51.833,240.856-16.648c33.437,14.279,64.898,33.537,97.435,50.215
				c43.696,22.398,89.388,34.033,138.561,29.213c38.868-3.809,76.587-12.604,113.859-24.656
				c60.523-19.572,119.309-44.896,182.316-56.459c45.305-8.313,89.811-8.232,133.193,10.336
				c37.24,15.938,74.893,31.209,110.244,50.869C1793.254,1377.325,1850.575,1391.719,1902.731,1390.413z M1910.536,1271.348
				c56.975,0.618,111.771-10.195,164.801-30.852c6.514-2.538,8.256-4.925,5.998-11.919c-3.047-9.417-7.324-10.902-16.389-7.315
				c-43.502,17.226-88.697,26.838-135.539,28.428c-55.734,1.892-110.125-3.639-160.307-30.472
				c-37.828-20.229-77.273-36.965-116.053-55.155c-48.633-22.817-99.104-28.133-151.977-19.772
				c-41.512,6.565-80.455,21.193-120.166,33.703c-50.148,15.797-98.715,36.762-151.284,44.757
				c-45.465,6.916-90.068,7.989-133.1-11.338c-31.185-14.007-62.246-28.367-91.885-45.408
				c-97.313-55.952-194.845-53.673-291.623-0.053c-24.826,13.753-48.725,28.455-76.293,36.259
				c-38.353,10.858-77.427,17.511-116.996,21.598c-7.053,0.729-12.844,1.259-11.756,11.472c1.067,10.017,5.91,11.078,14.199,10.067
				c27.72-3.38,55.44-6.916,82.712-12.875c33.459-7.312,67.574-14.752,96.149-34.199c46.213-31.451,96.099-49.994,151.973-51.041
				c41.742-0.78,82.458,5.161,119.552,25.86c34.36,19.177,69.583,36.572,105.111,53.4c38.933,18.438,79.697,24.985,122.74,21.53
				c55.61-4.466,107.388-22.941,159.66-40.176c42.869-14.135,84.811-31.255,129.467-39.725
				c45.176-8.569,90.021-10.657,133.594,6.916c40.84,16.472,81.504,33.727,119.977,55.104
				C1795.454,1259.233,1851.145,1272.167,1910.536,1271.348z M1935.051,1152.105c51.82-0.97,96.801-11.034,140.494-27.62
				c6.135-2.328,9.758-4.565,5.906-11.72c-3.164-5.885-4.543-12.51-14.326-8.318c-11.508,4.93-23.604,8.652-35.688,12.029
				c-49.068,13.717-98.605,19.171-149.08,7.913c-27.723-6.183-51.385-21.319-76.336-33.634
				c-44.082-21.758-88.736-42.086-136.213-55.53c-5.537-1.565-10.24-2.151-10.559,5.585c-0.229,5.595-7.141,12.345,4.531,15.529
				c55.424,15.131,107.166,39.521,157.217,66.989C1858.545,1143.936,1898.159,1151.573,1935.051,1152.105z M860.816,1031.921
				c-48.314-0.083-95.472,10.733-140.955,31.301c-26.038,11.772-50.212,26.868-75.961,38.929
				c-39.88,18.676-82.521,24.591-126.149,24.09c-8.487-0.1-10.743,3.049-10.816,10.847c-0.063,7.041,1.07,11.052,9.434,10.946
				c54.88-0.688,107.816-8.579,156.444-36.674c67.889-39.225,139.219-66.141,219.782-56.018c9.466,1.188,7.287-5.799,8.291-10.604
				c1.047-5.022,2.792-9.772-5.659-10.9C884.244,1032.369,873.285,1032.512,860.816,1031.921z M1384.575,1619.659
				c0.141-30.006-11.07-51-32.611-58.432c-40.258-13.883-78.458,1.842-84.495,48.189c-4.974,38.174,11.297,78.914,64.444,75.016
				C1363.682,1682.102,1384.397,1657.192,1384.575,1619.659z M1595.967,1858.68c1.594-0.084,4.354-0.111,7.086-0.4
				c22.943-2.436,37.029-14.598,38.199-32.918c1.436-22.459-6.396-31.471-32.617-37.926c-9.904-2.441-19.746-5.154-29.553-7.969
				c-6.145-1.764-10.436-5.793-11.117-12.326c-0.736-7.102,1.736-12.867,8.051-17.076c15.09-10.064,38.234-3.924,44.092,13.051
				c2.783,8.061,7.918,6.381,12.943,6.064c7.584-0.477,4.125-6.42,3.637-9.904c-1.25-8.904-5.686-16.059-13.564-20.98
				c-13.084-8.168-27.182-9.592-41.988-6.854c-17.133,3.168-28.266,15.363-29.234,31.969c-1.148,19.703,4.904,28.025,25.02,33.813
				c11.674,3.361,23.527,6.1,35.146,9.627c7.324,2.223,12.18,7.08,12.156,15.443c-0.025,8.836-4.189,14.709-12.287,18.262
				c-20.518,8.998-40.184,1.504-47.469-19.207c-2.73-7.764-8.1-6.545-13.184-5.885c-6.145,0.799-3.725,5.904-3.145,9.42
				C1551.75,1846.84,1568.7,1859.04,1595.967,1858.68z M1273.793,1823.364c0-8.258-0.143-16.52,0.051-24.771
				c0.131-5.58-1.322-8.926-7.836-8.768c-12.577,0.301-25.163,0.189-37.744,0.143c-4.689-0.02-7.306,1.48-7.292,6.789
				c0.011,5.02,2.136,7.258,6.959,7.297c7.47,0.063,14.958,0.463,22.404,0.076c7.391-0.387,8.494,2.766,7.308,9.299
				c-2.727,15.029-11.869,25.488-26.032,28.709c-17.281,3.928-34.621-1.162-41.667-14.488
				c-11.333-21.441-11.984-43.945,0.198-65.309c7.483-13.123,20.538-17.666,35.354-16.332c12.958,1.164,23.693,6.195,27.939,19.627
				c2.926,9.25,9.919,4.334,14.384,3.715c5.889-0.814,2.605-5.867,1.534-9.43c-2.845-9.447-8.638-16.428-17.068-21.504
				c-32.008-19.281-71.586-4.738-83.562,30.586c-4.54,13.395-5.223,27.004-2.923,40.709c7.622,45.447,50.197,62.77,87.438,35.689
				c3.815-2.771,7.018-4.695,8.056,1.979c0.809,5.189,3.299,8.043,8.688,6.914c5.848-1.227,3.524-6.252,3.712-9.705
				C1274.082,1837.534,1273.813,1830.442,1273.793,1823.364z M1400.042,1853.301c-7.15-8.977-6.119-19.336-6.322-29.436
				c-0.191-9.598-0.584-19.146-8.928-25.688c-4.475-3.508-0.988-5.344,1.018-7.301c11.676-11.391,12.814-24.77,6.881-39.006
				c-6.072-14.57-19.352-17.449-33.063-17.971c-16.088-0.609-32.223,0.027-48.326-0.297c-6.715-0.139-9.908,1.453-9.828,9.113
				c0.365,34.576,0.311,69.158,0.109,103.738c-0.037,6.051,1.801,8.203,7.998,8.311c6.67,0.111,9.037-2.107,8.822-8.781
				c-0.363-11.381,0.088-22.789-0.016-34.184c-0.053-5.973,2.518-8.512,8.535-8.338c9.426,0.27,18.859,0.047,28.291,0.191
				c15.541,0.236,21.17,5.814,21.674,21.291c0.127,3.926,0.162,7.855,0.311,11.783
				C1377.928,1856.424,1378.26,1856.678,1400.042,1853.301z M1032.002,1619.584c0,15.723-0.196,31.449,0.099,47.166
				c0.116,6.264-3.225,14.859,9.099,14.357c11.336-0.463,6.771-8.566,7.182-13.732c0.686-8.594,0.669-17.309,0.094-25.918
				c-0.583-8.775,1.729-13.18,11.574-12.146c8.173,0.854,16.494,0.18,24.741,0.439c17.006,0.535,21.747,5.441,22.489,22.895
				c0.302,7.063,0.143,14.184,1.013,21.178c1.412,11.352,10.879,7.674,16.722,6.891c8.282-1.105,1.521-6.559,0.726-9.604
				c-1.729-6.625-1.197-13.273-1.632-19.91c-0.634-9.746-0.19-19.83-9.229-26.754c-4.104-3.146-0.766-5.152,1.403-7.424
				c11.399-11.953,12.837-25.865,6.087-40.203c-6.312-13.414-19.165-16.543-32.584-16.93c-16.103-0.465-32.233,0.037-48.337-0.453
				c-7.202-0.221-9.707,2.281-9.554,9.447C1032.258,1585.778,1032.011,1602.684,1032.002,1619.584z M1152.892,1619.317
				c0.023,0,0.044,0,0.064,0c0,18.094,0.009,36.188-0.009,54.279c-0.002,3.83,0.567,7.484,5.396,7.377
				c3.617-0.08,8.717,2.148,10.355-2.654c1.335-3.914,0.488-8.549,0.781-12.852c0.796-11.639-5.065-26.986,2.557-33.936
				c7.462-6.805,22.561-1.893,34.291-1.795c16.794,0.139,21.35,5.059,21.983,22.035c0.291,7.84-0.283,15.723,1.734,23.469
				c2.702,10.367,11.032,6.021,16.45,5.289c7.135-0.963,1.633-5.965,0.667-8.918c-2.897-8.846-1.7-17.951-2.25-26.936
				c-0.417-6.832-1.141-13.67-6.743-18.191c-5.308-4.283-3.933-6.396,0.388-10.76c10.162-10.258,11.041-23.256,6.505-36.234
				c-4.196-12.01-14.155-17.182-26.349-18.629c-19.606-2.324-39.288-0.682-58.921-1.33c-6.277-0.209-7.006,2.846-6.962,7.863
				C1152.989,1584.704,1152.892,1602.008,1152.892,1619.317z M1533.157,1792.409c-0.334-51.486-47.395-79.434-90.99-53.336
				c-21.486,12.863-27.254,34.725-26.889,58.146c0.688,44.16,31.934,68.629,74.979,59.381
				C1516.143,1851.042,1533.37,1825.266,1533.157,1792.409z M1567.717,1684.432c37.145-0.07,59.861-25.309,59.775-66.402
				c-0.084-38.523-21.869-61.178-58.904-61.252c-37.129-0.074-59.184,24.836-59.057,66.705
				C1509.645,1660.958,1532.122,1684.5,1567.717,1684.432z M1775.969,1782.315c-0.432-13.432-6.332-34.461-28.34-44.979
				c-22.002-10.514-45.184-10.748-66.248,3.799c-28.877,19.945-31.557,77.477-5.152,102.627c5.145,4.9,10.764,8.912,17.768,11.18
				C1739.211,1869.573,1776.573,1840.883,1775.969,1782.315z M918.743,1794.424c0,17.314,0.175,34.633-0.095,51.943
				c-0.096,5.988,1.787,8.4,8.053,8.342c24.395-0.238,48.794-0.07,73.193-0.074c4.415-0.002,8.688,0.32,8.52-6.469
				c-0.15-6.08-2.459-8.381-8.507-8.232c-11.405,0.275-22.822,0.061-34.234,0.061c-32.067-0.002-31.892,0.006-30.422-32.076
				c0.281-6.133,2.007-8.121,8.205-7.992c16.52,0.34,33.053-0.143,49.577,0.053c5.729,0.064,8.71-1.148,8.6-7.793
				c-0.104-6.207-3.274-7.1-8.185-7.061c-10.623,0.088-21.248,0.018-31.874,0.02c-26.949,0.008-26.658,0.014-26.344-26.625
				c0.09-7.678,2.281-10.35,10.09-10.143c17.695,0.473,35.415,0.055,53.122,0.145c4.896,0.025,8.295-0.654,8.38-6.887
				c0.088-6.338-2.596-8.063-8.503-8.012c-23.61,0.193-47.224,0.193-70.832-0.074c-6.616-0.076-8.994,2.32-8.876,8.934
				C918.921,1759.79,918.715,1777.11,918.743,1794.424z M962.845,1559.77c-6.351-0.82-10.206,1-12.608,7.584
				c-12.651,34.625-25.825,69.059-38.792,103.568c-1.608,4.279-4.85,9.799,1.338,12.039c5.871,2.125,11.861,1.551,14.854-6.643
				c3.722-10.182,3.899-24.674,12.905-29.184c9.174-4.598,22.24-1.426,33.602-1.654c0.784-0.016,1.584,0.076,2.354-0.035
				c6.718-0.99,9.913,2.195,11.689,8.529c2.117,7.539,5.018,14.883,7.938,22.166c3.057,7.625,9.924,5.365,15.32,4.566
				c5.555-0.818,3.015-5.26,1.873-8.402c-12.584-34.652-25.357-69.24-37.74-103.967
				C973.222,1561.741,969.837,1558.292,962.845,1559.77z M806.871,1794.092c-0.014,0-0.025,0-0.039,0c0,7.873,0,15.746,0,23.617
				c0,7.873-0.367,15.77,0.129,23.609c0.341,5.412-3.303,13.164,7.724,13.426c10.882,0.262,8.166-7.123,8.313-12.84
				c0.237-9.439,0.288-18.902-0.118-28.332c-0.321-7.443,1.887-10.559,10.063-9.996c10.95,0.758,22.064,0.795,32.992-0.172
				c21.254-1.881,31.23-14.916,30.446-38.318c-0.618-18.412-13.433-30.758-32.993-31.211c-15.343-0.354-30.72,0.287-46.044-0.375
				c-8.634-0.373-10.78,3.145-10.591,10.998C807.145,1761.022,806.871,1777.561,806.871,1794.092z M1405.78,1559.766
				c-9.123-1.313-10.777,1.834-5.807,9.393c5.609,8.529,10.334,17.703,16.498,25.789c17.449,22.891,28.83,47.414,23.977,77.154
				c-1.016,6.223,1.191,9.305,8.225,9.27c7.02-0.035,8.744-3.098,8.424-9.381c-0.379-7.453,0.537-15.008-0.254-22.396
				c-1.381-12.879,2.811-23.686,9.82-34.117c9.637-14.348,18.867-28.973,27.908-43.703c2.018-3.291,8.029-7.869,3.559-10.76
				c-4.641-2.996-12.264-3.699-17.139,2.115c-2.746,3.273-4.764,7.18-6.971,10.879c-6.033,10.117-11.766,20.422-18.047,30.381
				c-7.463,11.828-9.107,11.654-15.922-0.063c-7.301-12.564-14.883-24.961-22.064-37.588
				C1415.17,1561.78,1411.706,1558.793,1405.78,1559.766z M1029.67,1794.493c0.014,0,0.025,0,0.037,0
				c0,17.318,0.186,34.641-0.097,51.957c-0.1,6.115,2.053,8.328,8.187,8.254c20.072-0.25,40.15-0.143,60.225-0.057
				c4.904,0.021,8.148-0.807,8.252-6.975c0.11-6.688-3.217-7.824-8.782-7.756c-13.379,0.17-26.798-0.576-40.138,0.184
				c-9.274,0.525-11.252-3.107-11.12-11.572c0.442-27.943,0.038-55.898,0.278-83.844c0.059-6.857-0.844-11.207-9.343-11.174
				c-9.221,0.033-7.397,6.236-7.444,11.381C1029.578,1761.424,1029.67,1777.958,1029.67,1794.493z M1143.538,1794.065
				c0-16.873-0.118-33.746,0.064-50.617c0.063-5.641-0.075-9.963-7.719-10.01c-7.228-0.043-9.397,2.686-9.338,9.74
				c0.286,34.135,0.235,68.273,0.044,102.406c-0.035,6.201,1.343,9.248,8.411,9.201c6.743-0.045,8.762-2.402,8.63-8.932
				C1143.284,1828.598,1143.512,1811.329,1143.538,1794.065z M1350.204,546.807c-1.002-4.092-4.15-6.774-7.162-9.023
				c-3.24-2.42-5.664,0.92-7.984,2.888c-22.418,18.999-44.756,38.091-67.292,56.947c-4.312,3.607-6.048,6.293-1.904,11.509
				c4.3,5.41,7.79,5.19,12.586,1.098c22.344-19.063,44.816-37.978,67.168-57.031C1347.584,551.51,1350.385,550.163,1350.204,546.807
				z M1385.407,561.702c2.156-1.499,4.529-2.886,6.604-4.632c21.873-18.431,43.719-36.895,65.521-55.406
				c3.457-2.934,7.836-5.252,2.766-11.119c-4.9-5.67-8.779-5.075-13.645-0.634c-4.92,4.487-10,8.801-15.078,13.11
				c-17.031,14.447-34.137,28.813-51.092,43.35c-2.08,1.786-6.318,3.443-3.453,7.336
				C1379.223,556.688,1380.694,560.733,1385.407,561.702z M1633.188,708.041c2.041-1.578,4.566-3.384,6.93-5.382
				c21.578-18.267,43.025-36.688,64.773-54.749c4.357-3.619,6.281-6.191,2.207-11.361c-4.475-5.682-8.342-4.336-12.756-0.39
				c-3.225,2.879-6.559,5.636-9.855,8.434c-18.855,16.016-37.762,31.969-56.51,48.107c-2.381,2.049-6.729,4.312-3.084,8.528
				C1627.081,703.759,1628.168,707.778,1633.188,708.041z M1218.077,586.791c-1.019-3.511-3.087-6.351-5.864-8.627
				c-2.976-2.438-5.188,0.18-7.213,1.651c-3.477,2.523-6.645,5.479-9.929,8.263c-19.434,16.478-38.851,32.972-58.304,49.424
				c-4.483,3.79-6.446,7.993-1.799,12.805c4.013,4.155,7.606,3.195,11.979-0.602c21.319-18.503,43-36.594,64.479-54.915
				C1214.056,592.551,1217.211,590.595,1218.077,586.791z M1233.924,509.489c-1.949-2.279-3.931-5.255-6.544-7.49
				c-3.384-2.891-5.742,0.346-8.037,2.284c-22.18,18.727-44.3,37.524-66.497,56.233c-4.39,3.7-6.989,7.001-2.031,12.567
				c4.466,5.008,7.741,3.396,11.826-0.081c22.127-18.835,44.375-37.535,66.485-56.388
				C1231.078,514.949,1233.604,513.385,1233.924,509.489z M1005.439,534.709c-0.955-5.915-3.432-8.461-6.026-10.87
				c-4.011-3.716-6.383,0.152-8.883,2.233c-21.954,18.278-43.842,36.637-65.75,54.97c-4.435,3.712-7.979,6.909-2.853,13.412
				c5.919,7.506,9.456,1.741,13.211-1.396c21.925-18.32,43.659-36.865,65.511-55.273
				C1002.433,536.283,1004.602,535.238,1005.439,534.709z M1475.348,558.428c-2.053-2.275-4.117-5.191-6.785-7.373
				c-3.189-2.6-5.744-0.125-8.191,1.961c-22.35,19.047-44.621,38.188-67.16,57.006c-4.619,3.859-5.316,6.54-1.395,11.486
				c4.047,5.107,6.881,4.662,11.385,0.779c22.549-19.444,45.322-38.628,67.973-57.952
				C1472.879,562.88,1475.313,561.85,1475.348,558.428z M1117.517,566.719c-1.753-1.98-3.704-5.052-6.438-7.057
				c-3.476-2.549-5.705,1.073-7.942,2.94c-21.949,18.314-43.89,36.638-65.66,55.161c-3.472,2.955-9.142,5.58-3.397,12.081
				c5.126,5.802,9.057,4.106,13.809,0.052c21.751-18.575,43.593-37.043,65.375-55.579
				C1115.313,572.576,1117.759,571.005,1117.517,566.719z M1605.522,619.417c1.59-1.07,3.631-2.196,5.385-3.666
				c22.51-18.875,44.98-37.797,67.459-56.713c2.432-2.046,5.164-4.178,3.176-7.823c-1.695-3.106-3.887-6.281-7.441-7.186
				c-4.123-1.051-5.943,2.958-8.525,5.132c-21.574,18.178-43.17,36.328-64.648,54.619c-2.486,2.116-6.291,4.337-3.643,8.676
				C1599.102,615.442,1601.094,618.459,1605.522,619.417z M921.666,680.324c0.994-0.45,2.219-0.721,3.068-1.436
				c23.949-20.208,47.883-40.434,71.759-60.728c4.492-3.817,1.181-6.752-1.358-9.857c-3.015-3.687-5.758-4.44-9.76-1.028
				c-22.972,19.563-46.107,38.935-69.15,58.416c-2.39,2.021-5.229,4.273-2.341,7.789
				C916.042,676.112,917.527,679.658,921.666,680.324z M1028.813,720.198c1.077-0.777,2.676-1.783,4.108-2.985
				c23.11-19.371,46.171-38.801,69.313-58.132c4.385-3.663,3.897-6.817,0.309-10.831c-3.539-3.957-6.515-4.951-10.785-1.052
				c-6.074,5.546-12.468,10.743-18.772,16.035c-15.908,13.355-31.906,26.606-47.708,40.09c-2.763,2.354-7.078,4.792-4.399,9.609
				C1022.514,715.879,1023.811,719.554,1028.813,720.198z M1582.014,596.337c-0.811-4.275-3.715-6.459-6.299-8.75
				c-4.072-3.608-6.592,0.671-8.875,2.57c-22.063,18.339-43.916,36.93-65.865,55.405c-4.119,3.47-7.631,6.137-2.514,12.266
				c5.059,6.061,8.357,3.359,12.537-0.159c21.939-18.473,43.936-36.879,65.84-55.396
				C1578.875,600.551,1580.399,598.219,1582.014,596.337z"/>
			<path fill="#160A05" d="M1396.424,1102.28c-16.855,6.995-33.705,14.007-50.566,20.982
				c-35.582,14.726-70.973,30.171-109.444,35.94c-39.182,5.873-78.248,8.457-116.041-7.707c-10.591-4.531-19.641-11.2-28.554-18.411
				c-44.99-36.402-97.921-53.976-153.93-63.999c-15.469-2.768-15.78-2.813-8.652-16.588c17.146-33.138,24.245-67.194,16.852-104.837
				c-9.313-47.424,15.649-79.65,52.864-104.266c23.989-15.865,48.748-31.103,66.785-53.698
				c20.162-25.261,41.781-48.973,64.137-72.239c16.683-17.363,36.201-25.135,59.686-26.166c16.427-0.72,32.059,3.306,47.829,6.194
				c81.484,14.916,162.666,31.599,244.371,45.138c57.262,9.488,84.678,40.534,94.496,93.149c5.84,31.3,12.598,62.429,18.918,93.638
				c1.582,7.809,3.734,15.292,10.09,20.794c23.123,20.022,27.395,46.409,24.402,74.788c-2.033,19.267-8.338,37.5-15.604,55.438
				c-3.17,7.827-7.479,10.547-16.139,9.246c-36.229-5.435-72.668-8.464-109.357-7.101c-20.459,0.761-40.922,1.949-60.682,7.76
				c-8.805,2.588-9.641-1.003-7.721-7.931c1.465-5.302,3.068-10.565,4.674-15.828c4.82-15.815,4.787-15.593-10.91-18.86
				c-96.58-20.111-193.147-40.289-289.697-60.548c-16.367-3.433-16.254-3.643-20.603,12.247c-2.588,9.458-4.994,19.001-8.281,28.222
				c-2.658,7.456,0.242,9.646,7.049,11.009c67.063,13.443,134.092,27.05,201.112,40.725c30.744,6.273,61.439,12.805,92.16,19.218
				C1395.92,1099.821,1396.172,1101.05,1396.424,1102.28z M1217.816,736.763c-25.495-0.776-41.17,6.872-51.959,22.28
				c-16.879,24.104-32.269,49.251-49.049,73.427c-5.866,8.452-2.066,9.292,5.119,10.777
				c70.792,14.635,141.539,29.481,212.311,44.225c58.432,12.171,116.934,24.021,175.268,36.658c10.893,2.358,9.914-2.208,8.266-9.34
				c-6.635-28.704-13.359-57.39-19.719-86.156c-5.781-26.139-21.418-41.313-48.156-46.565
				c-54.74-10.758-109.434-21.774-164.178-32.524C1261.083,744.706,1236.372,740.247,1217.816,736.763z M1534.907,969.035
				c-30.559,0.107-54.582,24.04-54.742,54.531c-0.166,31.294,24.705,55.812,56.313,55.51c30.125-0.286,54.111-24.914,53.883-55.323
				C1590.122,992.087,1566.645,968.921,1534.907,969.035z M1096.107,928.422c-0.279-30.002-25.014-54.257-55.274-54.201
				c-29.952,0.054-54.513,24.69-54.69,54.854c-0.178,30.411,24.824,55.38,55.395,55.322
				C1072.118,984.343,1096.396,959.438,1096.107,928.422z"/>
			<path fill="#160A05" d="M1904.153,1503.266c-57.143,2.395-116.928-15.994-174.006-47.502
				c-35.371-19.525-72.719-35.545-110.572-49.994c-50.1-19.123-100.748-13.854-150.867-1.064
				c-52.984,13.518-104.043,33.398-155.797,50.902c-41.274,13.961-83.406,22.621-126.772,25.262
				c-48.364,2.949-91.789-13.227-134.228-34.428c-31.666-15.816-61.408-35.979-94.246-48.629
				c-81.09-31.25-161.327-26.1-235.518,19.863c-40.813,25.281-84.158,40.031-130.29,49.025
				c-24.309,4.738-48.825,8.311-73.485,10.982c-8.151,0.883-9.451-2.785-10.007-8.951c-0.539-5.959-1.923-11.281,7.411-12.367
				c31.978-3.729,63.85-8.297,95.28-15.535c35.53-8.178,68.422-21.746,99.547-41.352c61.492-38.736,128.857-49.225,200.369-37.082
				c31.825,5.404,61.054,16.332,88.793,32.645c31.875,18.742,65.359,34.529,99.255,49.219
				c42.301,18.326,86.26,17.188,130.991,10.254c46.256-7.17,89.135-24.98,133.292-38.844c39.33-12.346,77.729-27.484,118.254-36.25
				c64.771-14.004,126.33-7.234,185.799,22.586c35.104,17.607,71.283,33.035,106.186,51.164
				c48.992,25.447,102.014,30.109,156.076,28.203c46.398-1.633,91.244-10.771,134.422-27.959c6.172-2.457,12.104-5.756,16.184,3.943
				c3.467,8.238,2.764,12.068-6.238,15.762C2029.053,1491.549,1973.667,1502.221,1904.153,1503.266z"/>
			<path fill="#160A05" d="M1902.731,1390.413c-52.156,1.307-109.477-13.088-163.523-43.148
				c-35.352-19.66-73.004-34.932-110.242-50.869c-43.385-18.568-87.891-18.648-133.195-10.334
				c-63.008,11.561-121.791,36.887-182.316,56.457c-37.271,12.053-74.991,20.85-113.858,24.656
				c-49.173,4.822-94.863-6.813-138.561-29.213c-32.536-16.676-63.999-35.934-97.435-50.213
				c-82.394-35.186-164.491-29.772-240.856,16.648c-40.269,24.475-82.447,40.129-127.849,48.854
				c-25.063,4.816-50.517,7.57-75.727,11.666c-8.224,1.334-10.45-2.477-10.849-9.514c-0.341-6.004-1.647-11.055,7.682-12.146
				c26.924-3.16,53.806-6.686,80.446-12.102c42.423-8.629,81.012-24.857,118.597-46.996
				c82.966-48.868,170.924-53.364,259.205-15.237c33.356,14.407,65.042,33.19,97.31,50.264
				c53.126,28.109,108.271,32.232,166.108,21.158c56.725-10.861,110.02-32.6,164.395-50.791
				c42.314-14.157,84.871-26.006,129.459-29.935c48.697-4.288,93.172,9.625,136.471,29.986
				c35.576,16.732,71.252,33.176,106.307,51.049c48.572,24.77,101.133,30.398,154.904,28.063
				c48.373-2.104,95.152-11.563,139.902-30.26c8.113-3.393,9.547,2.568,11.602,7.475c2.15,5.135,3.896,9.646-4.039,12.867
				c-34.441,13.975-70.031,23.168-106.828,28.055C1950.678,1389.399,1931.436,1390.049,1902.731,1390.413z"/>
			<path fill="#160A05" d="M1910.534,1271.36c-59.389,0.808-115.08-12.127-167.432-41.22
				c-38.473-21.377-79.137-38.633-119.977-55.104c-43.572-17.573-88.418-15.486-133.594-6.916
				c-44.656,8.469-86.598,25.59-129.469,39.724c-52.27,17.234-104.047,35.71-159.659,40.177
				c-43.043,3.455-83.808-3.092-122.739-21.53c-35.528-16.828-70.751-34.225-105.111-53.401
				c-37.094-20.699-77.81-26.64-119.552-25.859c-55.874,1.047-105.76,19.59-151.974,51.041
				c-28.574,19.446-62.688,26.889-96.148,34.198c-27.271,5.958-54.992,9.495-82.712,12.875c-8.289,1.011-13.132-0.051-14.199-10.066
				c-1.088-10.212,4.703-10.743,11.756-11.473c39.569-4.085,78.645-10.737,116.996-21.597c27.568-7.804,51.467-22.505,76.293-36.259
				c96.778-53.62,194.31-55.899,291.623,0.053c29.638,17.041,60.7,31.401,91.884,45.408c43.032,19.327,87.636,18.254,133.101,11.338
				c52.569-7.996,101.133-28.96,151.282-44.757c39.713-12.511,78.656-27.139,120.166-33.703
				c52.873-8.36,103.346-3.045,151.979,19.771c38.777,18.191,78.225,34.928,116.053,55.156
				c50.182,26.833,104.57,32.363,160.307,30.471c46.842-1.589,92.035-11.202,135.539-28.427c9.063-3.587,13.342-2.103,16.389,7.315
				c2.258,6.993,0.516,9.382-5.998,11.918C2022.307,1261.152,1967.508,1271.966,1910.534,1271.36z"/>
			<path fill="#160A05" d="M1935.051,1152.105c-36.893-0.533-76.506-8.172-114.053-28.775
				c-50.049-27.468-101.791-51.858-157.215-66.989c-11.674-3.186-4.762-9.936-4.531-15.529c0.316-7.736,5.02-7.15,10.559-5.585
				c47.475,13.444,92.129,33.772,136.213,55.53c24.949,12.314,48.613,27.451,76.336,33.634
				c50.473,11.258,100.01,5.805,149.078-7.912c12.084-3.377,24.182-7.102,35.688-12.03c9.783-4.191,11.162,2.434,14.328,8.318
				c3.85,7.153,0.229,9.392-5.908,11.72C2031.85,1141.072,1986.874,1151.137,1935.051,1152.105z"/>
			<path fill="#160A05" d="M860.816,1031.921c12.469,0.59,23.428,0.447,34.41,1.917c8.45,1.128,6.706,5.878,5.659,10.9
				c-1.003,4.805,1.174,11.792-8.291,10.604c-80.563-10.123-151.894,16.793-219.783,56.018
				c-48.627,28.095-101.563,35.985-156.443,36.674c-8.362,0.105-9.497-3.905-9.434-10.946c0.073-7.797,2.329-10.946,10.816-10.847
				c43.628,0.5,86.27-5.414,126.149-24.09c25.748-12.061,49.923-27.156,75.961-38.929
				C765.345,1042.655,812.501,1031.838,860.816,1031.921z"/>
			<path fill="#160A05" d="M1384.575,1619.659c-0.178,37.533-20.893,62.443-52.662,64.773
				c-53.146,3.898-69.417-36.844-64.444-75.018c6.037-46.346,44.237-62.07,84.495-48.188
				C1373.504,1568.659,1384.715,1589.653,1384.575,1619.659z M1284.258,1620.469c0,1.572-0.033,3.146,0.008,4.713
				c0.678,26.334,14.311,42.346,37.713,44.305c23.725,1.984,38.328-10.084,44.23-36.02c1.691-7.432,1.904-14.887,1.229-22.256
				c-1.914-20.887-15.561-36.08-33.666-38.344C1303.159,1569.045,1284.651,1586.838,1284.258,1620.469z"/>
			<path fill="#160A05" d="M1595.967,1858.68c-27.268,0.357-44.217-11.84-47.83-33.797c-0.578-3.516-3-8.621,3.146-9.418
				c5.084-0.66,10.451-1.881,13.184,5.885c7.285,20.711,26.949,28.205,47.469,19.207c8.098-3.553,12.26-9.426,12.285-18.262
				c0.023-8.363-4.832-13.223-12.154-15.443c-11.619-3.527-23.475-6.266-35.146-9.627c-20.117-5.787-26.17-14.111-25.021-33.813
				c0.971-16.605,12.104-28.803,29.234-31.969c14.809-2.738,28.904-1.314,41.99,6.854c7.879,4.922,12.313,12.074,13.563,20.979
				c0.488,3.486,3.949,9.43-3.637,9.906c-5.025,0.314-10.16,1.996-12.941-6.064c-5.857-16.975-29.002-23.117-44.094-13.053
				c-6.313,4.211-8.787,9.977-8.049,17.078c0.682,6.533,4.973,10.563,11.117,12.326c9.805,2.813,19.646,5.525,29.553,7.967
				c26.221,6.457,34.051,15.467,32.615,37.928c-1.17,18.32-15.254,30.482-38.199,32.918
				C1600.321,1858.569,1597.561,1858.596,1595.967,1858.68z"/>
			<path fill="#160A05" d="M1273.803,1823.364c0.01,7.078,0.279,14.17-0.105,21.227c-0.188,3.453,2.136,8.479-3.712,9.703
				c-5.39,1.129-7.88-1.723-8.688-6.912c-1.038-6.674-4.24-4.75-8.056-1.979c-37.241,27.08-79.816,9.756-87.438-35.691
				c-2.3-13.703-1.617-27.313,2.923-40.707c11.976-35.326,51.554-49.867,83.562-30.588c8.431,5.078,14.224,12.059,17.068,21.506
				c1.072,3.563,4.354,8.613-1.534,9.43c-4.464,0.617-11.458,5.533-14.384-3.717c-4.246-13.43-14.982-18.461-27.939-19.627
				c-14.817-1.332-27.871,3.209-35.354,16.334c-12.183,21.361-11.531,43.865-0.198,65.309c7.045,13.326,24.386,18.416,41.667,14.486
				c14.163-3.221,23.306-13.68,26.032-28.709c1.187-6.531,0.083-9.684-7.308-9.299c-7.447,0.389-14.935-0.014-22.404-0.076
				c-4.823-0.037-6.948-2.275-6.959-7.297c-0.014-5.307,2.603-6.807,7.292-6.789c12.581,0.051,25.167,0.16,37.744-0.143
				c6.516-0.156,7.968,3.189,7.836,8.77C1273.65,1806.844,1273.793,1815.106,1273.803,1823.364z"/>
			<path fill="#160A05" d="M1400.042,1853.301c-21.781,3.377-22.113,3.123-22.844-16.568c-0.148-3.928-0.184-7.857-0.311-11.783
				c-0.506-15.479-6.135-21.055-21.676-21.293c-9.43-0.145-18.865,0.078-28.291-0.191c-6.018-0.174-8.588,2.367-8.535,8.34
				c0.105,11.395-0.348,22.801,0.018,34.184c0.215,6.674-2.152,8.893-8.824,8.779c-6.195-0.105-8.035-2.26-7.998-8.311
				c0.201-34.578,0.256-69.16-0.107-103.738c-0.08-7.658,3.111-9.25,9.826-9.113c16.105,0.324,32.238-0.313,48.326,0.297
				c13.713,0.521,26.99,3.4,33.063,17.971c5.936,14.238,4.795,27.615-6.881,39.006c-2.004,1.957-5.49,3.793-1.018,7.303
				c8.344,6.539,8.736,16.09,8.928,25.688C1393.922,1833.965,1392.891,1844.327,1400.042,1853.301z M1341.459,1788.545
				c6.297,0,12.621,0.377,18.885-0.078c12.168-0.883,18.938-8.271,18.771-19.818c-0.176-12.035-6.455-19.082-18.705-19.945
				c-8.225-0.58-16.523-0.334-24.783-0.199c-17.84,0.301-17.184-3.688-17.334,16.777
				C1318.122,1788.672,1318.167,1788.672,1341.459,1788.545z"/>
			<path fill="#160A05" d="M1032.007,1619.584c0.004-16.9,0.251-33.807-0.113-50.701c-0.153-7.166,2.352-9.668,9.554-9.447
				c16.104,0.49,32.235-0.012,48.337,0.453c13.419,0.387,26.272,3.516,32.584,16.93c6.75,14.338,5.313,28.25-6.087,40.203
				c-2.168,2.271-5.506,4.277-1.403,7.424c9.039,6.924,8.596,17.008,9.229,26.754c0.435,6.637-0.097,13.285,1.632,19.91
				c0.796,3.045,7.557,8.496-0.726,9.604c-5.843,0.783-15.31,4.461-16.722-6.891c-0.87-6.994-0.71-14.115-1.013-21.178
				c-0.743-17.451-5.483-22.359-22.489-22.895c-8.247-0.262-16.568,0.412-24.741-0.439c-9.846-1.031-12.157,3.371-11.574,12.146
				c0.575,8.609,0.592,17.324-0.094,25.918c-0.411,5.166,4.154,13.271-7.182,13.732c-12.323,0.502-8.982-8.094-9.099-14.357
				C1031.806,1651.034,1032.002,1635.307,1032.007,1619.584z M1077.11,1574.352c-28.55-0.281-28.553-0.281-28.492,25.271
				c0.007,2.742,0.19,5.498-0.007,8.229c-0.415,5.713,2.332,7.529,7.738,7.395c10.577-0.264,21.195,0.379,31.74-0.262
				c14.854-0.904,21.226-7.727,21.022-21.143c-0.175-11.451-7.011-17.559-20.938-18.672
				C1083.493,1574.797,1078.803,1574.475,1077.11,1574.352z"/>
			<path fill="#160A05" d="M1152.892,1619.317c0-17.309,0.098-34.613-0.06-51.92c-0.044-5.02,0.685-8.072,6.962-7.863
				c19.634,0.646,39.315-0.994,58.921,1.33c12.194,1.447,22.153,6.619,26.35,18.629c4.535,12.979,3.656,25.977-6.506,36.234
				c-4.32,4.361-5.695,6.477-0.388,10.76c5.604,4.521,6.325,11.357,6.743,18.191c0.549,8.982-0.648,18.09,2.25,26.936
				c0.966,2.953,6.468,7.955-0.667,8.918c-5.418,0.73-13.749,5.078-16.45-5.289c-2.018-7.746-1.443-15.629-1.733-23.469
				c-0.635-16.979-5.19-21.898-21.984-22.037c-11.729-0.096-26.829-5.008-34.291,1.795c-7.622,6.949-1.76,22.299-2.556,33.938
				c-0.293,4.303,0.554,8.936-0.782,12.852c-1.638,4.803-6.738,2.574-10.355,2.654c-4.827,0.105-5.397-3.547-5.396-7.377
				c0.019-18.092,0.009-36.188,0.009-54.279C1152.936,1619.317,1152.915,1619.317,1152.892,1619.317z M1193.347,1574.036
				c-23.915,0.186-23.922,0.186-23.895,24.453c0.005,3.533,0.143,7.066,0.134,10.602c-0.011,3.656,1.253,6.111,5.361,6.045
				c13.333-0.223,26.766,0.463,39.968-0.977c10.813-1.178,16.083-8.883,15.442-20.047c-0.625-10.871-5.774-17.76-17.06-18.855
				C1206.671,1574.614,1200,1574.428,1193.347,1574.036z"/>
			<path fill="#160A05" d="M1533.157,1792.409c0.213,32.859-17.014,58.633-42.9,64.193c-43.045,9.248-74.291-15.223-74.979-59.383
				c-0.363-23.424,5.402-45.283,26.889-58.146C1485.762,1712.973,1532.823,1740.92,1533.157,1792.409z M1474.051,1842.852
				c26.561,0.152,42.119-18.143,42.238-49.654c0.111-28.738-15.811-47.146-41.025-47.438c-26.094-0.299-43.258,19.469-43.146,49.688
				C1432.231,1825.18,1447.727,1842.702,1474.051,1842.852z"/>
			<path fill="#160A05" d="M1567.717,1684.432c-35.598,0.068-58.072-23.475-58.186-60.949
				c-0.127-41.869,21.928-66.779,59.057-66.705c37.035,0.074,58.82,22.729,58.904,61.252
				C1627.581,1659.124,1604.862,1684.362,1567.717,1684.432z M1610.641,1615.323c-1.145-14.137-5.137-30.977-23.145-39.264
				c-15.703-7.229-31.926-6.35-45.254,5.301c-17.344,15.156-18.502,35.664-13.676,56.283c6.051,25.842,28.805,37.813,54.275,29.986
				C1599.581,1662.485,1610.62,1643.202,1610.641,1615.323z"/>
			<path fill="#160A05" d="M1775.969,1782.315c0.604,58.568-36.758,87.258-81.973,72.627c-7.004-2.268-12.623-6.279-17.768-11.18
				c-26.404-25.15-23.725-82.682,5.152-102.627c21.063-14.547,44.244-14.313,66.248-3.799
				C1769.637,1747.854,1775.54,1768.883,1775.969,1782.315z M1675.067,1797.135c-0.457,6.982,1.377,15.809,5.174,24.088
				c10.211,22.264,44.684,29.646,63.301,13.729c18.791-16.072,20.857-58.43,3.951-76.695c-6.762-7.305-14.98-11.146-24.674-12.197
				C1694.229,1742.961,1675.411,1762.247,1675.067,1797.135z"/>
			<path fill="#160A05" d="M918.729,1794.424c-0.014-17.314,0.191-34.635-0.117-51.943c-0.118-6.611,2.261-9.01,8.876-8.934
				c23.607,0.27,47.221,0.27,70.832,0.074c5.907-0.049,8.591,1.676,8.503,8.012c-0.085,6.232-3.483,6.912-8.38,6.887
				c-17.708-0.09-35.427,0.328-53.122-0.143c-7.81-0.207-10,2.463-10.091,10.141c-0.313,26.641-0.604,26.633,26.345,26.625
				c10.625-0.002,21.25,0.07,31.874-0.018c4.909-0.039,8.081,0.852,8.185,7.059c0.111,6.645-2.87,7.859-8.6,7.793
				c-16.524-0.193-33.058,0.287-49.577-0.051c-6.198-0.129-7.924,1.859-8.205,7.99c-1.47,32.084-1.646,32.074,30.422,32.076
				c11.412,0,22.829,0.217,34.234-0.061c6.048-0.146,8.356,2.152,8.507,8.232c0.168,6.789-4.104,6.467-8.52,6.469
				c-24.398,0.006-48.799-0.164-73.193,0.074c-6.266,0.061-8.148-2.354-8.053-8.342
				C918.918,1829.057,918.743,1811.741,918.729,1794.424z"/>
			<path fill="#160A05" d="M962.845,1559.77c6.992-1.479,10.376,1.971,12.729,8.57c12.383,34.727,25.156,69.313,37.74,103.967
				c1.142,3.143,3.682,7.582-1.873,8.4c-5.396,0.799-12.264,3.061-15.32-4.564c-2.92-7.283-5.82-14.627-7.938-22.166
				c-1.775-6.334-4.971-9.521-11.688-8.529c-0.769,0.111-1.568,0.02-2.354,0.035c-11.36,0.229-24.427-2.943-33.602,1.654
				c-9.006,4.51-9.185,19.002-12.905,29.182c-2.992,8.193-8.981,8.77-14.854,6.645c-6.188-2.24-2.946-7.76-1.339-12.039
				c12.968-34.512,26.142-68.943,38.793-103.57C952.64,1560.77,956.495,1558.95,962.845,1559.77z M963.722,1582.958
				c-1.093,0.363-2.187,0.727-3.277,1.09c-2.623,7.363-5.136,14.77-7.883,22.084c-10.188,27.117-10.219,27.104,19.038,25.236
				c1.172-0.074,2.376,0.068,3.519-0.139c2.496-0.451,4.523-1.27,3.391-4.59C973.542,1612.09,968.643,1597.52,963.722,1582.958z"/>
			<path fill="#160A05" d="M806.871,1794.092c0-16.531,0.273-33.07-0.12-49.594c-0.189-7.854,1.957-11.371,10.591-10.998
				c15.324,0.662,30.702,0.021,46.044,0.375c19.561,0.453,32.375,12.799,32.993,31.211c0.784,23.402-9.193,36.438-30.446,38.318
				c-10.928,0.967-22.042,0.93-32.992,0.172c-8.176-0.563-10.384,2.553-10.063,9.996c0.406,9.43,0.355,18.893,0.118,28.332
				c-0.146,5.717,2.57,13.102-8.313,12.84c-11.026-0.262-7.382-8.014-7.724-13.426c-0.496-7.842-0.129-15.736-0.129-23.609
				c0-7.871,0-15.744,0-23.617C806.845,1794.092,806.857,1794.092,806.871,1794.092z M845.376,1748.735c0-0.08,0-0.16,0-0.242
				c-3.142,0-6.333,0.357-9.417-0.064c-10.396-1.426-13.479,2.721-13.151,13.195c0.894,28.531,0.42,28.57,28.755,27.918
				c3.521-0.08,7.065-0.34,10.538-0.906c12.542-2.047,18.386-8.813,17.898-20.449c-0.498-11.908-6.507-18.135-19.324-19.369
				C855.621,1748.331,850.479,1748.735,845.376,1748.735z"/>
			<path fill="#160A05" d="M1405.78,1559.766c5.926-0.973,9.391,2.014,12.207,6.971c7.182,12.629,14.766,25.023,22.064,37.588
				c6.814,11.719,8.459,11.893,15.922,0.064c6.281-9.959,12.014-20.264,18.047-30.381c2.209-3.701,4.225-7.605,6.971-10.879
				c4.875-5.814,12.498-5.113,17.139-2.115c4.471,2.891-1.541,7.467-3.559,10.76c-9.041,14.73-18.271,29.355-27.908,43.701
				c-7.012,10.434-11.201,21.24-9.82,34.119c0.791,7.389-0.125,14.943,0.254,22.396c0.32,6.281-1.404,9.346-8.424,9.379
				c-7.031,0.035-9.238-3.047-8.225-9.27c4.854-29.738-6.527-54.264-23.977-77.152c-6.162-8.086-10.889-17.262-16.498-25.789
				C1395,1561.6,1396.657,1558.454,1405.78,1559.766z"/>
			<path fill="#160A05" d="M1029.67,1794.493c0-16.533-0.092-33.066,0.055-49.602c0.047-5.145-1.775-11.348,7.444-11.381
				c8.499-0.031,9.4,4.314,9.343,11.174c-0.239,27.945,0.164,55.898-0.278,83.844c-0.132,8.465,1.846,12.098,11.12,11.572
				c13.339-0.76,26.758-0.014,40.138-0.184c5.565-0.068,8.893,1.068,8.782,7.756c-0.104,6.168-3.348,6.994-8.252,6.975
				c-20.073-0.086-40.152-0.193-60.225,0.057c-6.134,0.074-8.286-2.139-8.187-8.254c0.28-17.316,0.097-34.639,0.097-51.957
				C1029.695,1794.493,1029.684,1794.493,1029.67,1794.493z"/>
			<path fill="#160A05" d="M1143.524,1794.065c-0.013,17.264-0.24,34.533,0.105,51.791c0.132,6.527-1.887,8.887-8.63,8.93
				c-7.068,0.049-8.445-2.998-8.411-9.199c0.191-34.135,0.242-68.273-0.044-102.408c-0.06-7.055,2.111-9.781,9.338-9.738
				c7.644,0.047,7.781,4.369,7.719,10.01C1143.42,1760.319,1143.538,1777.192,1143.524,1794.065z"/>
			<path fill="#160A05" d="M1350.204,546.818c0.182,3.345-2.619,4.691-4.588,6.374c-22.352,19.055-44.824,37.968-67.168,57.031
				c-4.796,4.093-8.288,4.313-12.586-1.098c-4.144-5.216-2.406-7.901,1.904-11.509c22.536-18.856,44.874-37.948,67.292-56.947
				c2.32-1.968,4.744-5.308,7.984-2.888C1346.053,540.031,1349.202,542.714,1350.204,546.818z"/>
			<path fill="#160A05" d="M1385.407,561.702c-4.713-0.969-6.184-5.015-8.377-7.995c-2.865-3.892,1.373-5.55,3.453-7.336
				c16.955-14.538,34.061-28.902,51.092-43.35c5.078-4.31,10.158-8.623,15.078-13.11c4.865-4.44,8.742-5.036,13.645,0.634
				c5.07,5.867,0.691,8.186-2.766,11.119c-21.803,18.512-43.648,36.976-65.521,55.406
				C1389.936,558.816,1387.563,560.203,1385.407,561.702z"/>
			<path fill="#160A05" d="M1633.188,708.041c-5.02-0.263-6.107-4.282-8.297-6.813c-3.645-4.217,0.705-6.479,3.086-8.528
				c18.746-16.138,37.654-32.092,56.51-48.107c3.297-2.798,6.631-5.555,9.855-8.434c4.414-3.947,8.281-5.292,12.756,0.39
				c4.074,5.17,2.15,7.742-2.207,11.361c-21.75,18.061-43.195,36.482-64.773,54.749
				C1637.754,704.657,1635.229,706.463,1633.188,708.041z"/>
			<path fill="#160A05" d="M1218.063,586.795c-0.851,3.8-4.007,5.756-6.637,7.996c-21.479,18.321-43.159,36.412-64.479,54.915
				c-4.374,3.797-7.969,4.757-11.979,0.602c-4.647-4.812-2.685-9.015,1.799-12.805c19.454-16.453,38.871-32.946,58.304-49.424
				c3.285-2.784,6.451-5.739,9.929-8.263c2.024-1.473,4.238-4.091,7.213-1.651C1214.99,580.44,1217.059,583.28,1218.063,586.795z"/>
			<path fill="#160A05" d="M1233.924,509.489c-0.32,3.896-2.847,5.46-4.798,7.126c-22.111,18.854-44.358,37.553-66.485,56.388
				c-4.085,3.478-7.36,5.089-11.826,0.081c-4.959-5.566-2.357-8.867,2.031-12.567c22.197-18.708,44.317-37.507,66.497-56.233
				c2.295-1.938,4.653-5.174,8.037-2.284C1229.994,504.234,1231.975,507.209,1233.924,509.489z"/>
			<path fill="#160A05" d="M1005.439,534.709c-0.838,0.528-3.007,1.573-4.789,3.075c-21.852,18.408-43.585,36.953-65.511,55.273
				c-3.755,3.138-7.292,8.902-13.211,1.396c-5.128-6.503-1.583-9.7,2.853-13.412c21.908-18.333,43.795-36.69,65.75-54.97
				c2.5-2.081,4.872-5.949,8.883-2.233C1002.008,526.248,1004.484,528.795,1005.439,534.709z"/>
			<path fill="#160A05" d="M1475.348,558.428c-0.035,3.421-2.469,4.452-4.176,5.908c-22.648,19.324-45.424,38.508-67.973,57.952
				c-4.502,3.883-7.338,4.328-11.385-0.779c-3.922-4.945-3.225-7.627,1.396-11.485c22.537-18.819,44.811-37.959,67.158-57.007
				c2.449-2.085,5.004-4.561,8.191-1.961C1471.231,553.236,1473.295,556.152,1475.348,558.428z"/>
			<path fill="#160A05" d="M1117.517,566.719c0.242,4.286-2.204,5.857-4.254,7.6c-21.782,18.535-43.625,37.004-65.375,55.578
				c-4.752,4.056-8.683,5.75-13.809-0.051c-5.744-6.501-0.074-9.126,3.397-12.081c21.771-18.523,43.71-36.847,65.66-55.161
				c2.238-1.868,4.466-5.489,7.942-2.94C1113.813,561.667,1115.764,564.738,1117.517,566.719z"/>
			<path fill="#160A05" d="M1605.522,619.417c-4.428-0.957-6.42-3.975-8.24-6.959c-2.648-4.339,1.156-6.561,3.643-8.676
				c21.48-18.291,43.076-36.441,64.65-54.619c2.58-2.175,4.402-6.183,8.525-5.132c3.555,0.903,5.746,4.079,7.441,7.186
				c1.988,3.646-0.746,5.776-3.178,7.823c-22.479,18.916-44.947,37.839-67.459,56.713
				C1609.153,617.221,1607.112,618.346,1605.522,619.417z"/>
			<path fill="#160A05" d="M921.666,680.324c-4.139-0.667-5.624-4.212-7.783-6.842c-2.888-3.517-0.049-5.77,2.341-7.79
				c23.043-19.481,46.179-38.853,69.15-58.416c4.002-3.412,6.745-2.658,9.76,1.028c2.54,3.105,5.851,6.04,1.358,9.857
				c-23.875,20.293-47.81,40.52-71.759,60.728C923.885,679.604,922.66,679.875,921.666,680.324z"/>
			<path fill="#160A05" d="M1028.813,720.198c-5.002-0.645-6.298-4.318-7.934-7.265c-2.678-4.818,1.638-7.255,4.399-9.609
				c15.802-13.483,31.8-26.734,47.708-40.09c6.305-5.292,12.699-10.489,18.772-16.035c4.271-3.898,7.246-2.904,10.785,1.052
				c3.589,4.014,4.076,7.167-0.309,10.831c-23.143,19.331-46.204,38.762-69.313,58.132
				C1031.488,718.415,1029.889,719.42,1028.813,720.198z"/>
			<path fill="#160A05" d="M1582.014,596.337c-1.615,1.882-3.139,4.214-5.176,5.935c-21.902,18.519-43.898,36.925-65.84,55.396
				c-4.18,3.518-7.479,6.22-12.537,0.159c-5.117-6.129-1.605-8.796,2.516-12.266c21.947-18.476,43.801-37.065,65.863-55.405
				c2.283-1.898,4.805-6.179,8.875-2.57C1578.299,589.877,1581.204,592.063,1582.014,596.337z"/>
			<path fill="#FACD00" d="M1217.816,736.763c18.556,3.483,43.267,7.942,67.901,12.78c54.744,10.75,109.438,21.768,164.178,32.524
				c26.738,5.252,42.375,20.427,48.156,46.565c6.359,28.767,13.084,57.452,19.719,86.156c1.648,7.133,2.627,11.698-8.266,9.34
				c-58.334-12.637-116.836-24.487-175.268-36.658c-70.772-14.742-141.518-29.59-212.311-44.225
				c-7.186-1.485-10.984-2.325-5.119-10.777c16.78-24.176,32.169-49.322,49.049-73.427
				C1176.646,743.635,1192.321,735.986,1217.816,736.763z"/>
			<path fill="#FACD00" d="M1534.907,969.035c31.738-0.113,55.215,23.052,55.453,54.718c0.229,30.409-23.756,55.037-53.881,55.323
				c-31.609,0.302-56.48-24.215-56.314-55.51C1480.325,993.074,1504.348,969.143,1534.907,969.035z"/>
			<path fill="#FACD00" d="M1096.107,928.422c0.291,31.016-23.989,55.92-54.571,55.977c-30.57,0.058-55.572-24.912-55.395-55.322
				c0.179-30.165,24.739-54.802,54.69-54.854C1071.094,874.166,1095.828,898.42,1096.107,928.422z"/>
			<path fill="#FACD00" d="M1284.262,1620.469c0.389-33.631,18.896-51.424,49.51-47.602c18.105,2.264,31.752,17.457,33.666,38.344
				c0.676,7.369,0.463,14.824-1.229,22.256c-5.902,25.936-20.508,38.004-44.23,36.02c-23.402-1.959-37.035-17.971-37.713-44.305
				C1284.225,1623.616,1284.258,1622.042,1284.262,1620.469z"/>
			<path fill="#FACD00" d="M1341.459,1788.545c-23.293,0.127-23.338,0.127-23.168-23.264c0.15-20.467-0.504-16.479,17.334-16.777
				c8.262-0.137,16.559-0.381,24.785,0.197c12.248,0.863,18.527,7.91,18.703,19.945c0.168,11.549-6.604,18.938-18.771,19.82
				C1354.081,1788.922,1347.756,1788.545,1341.459,1788.545z"/>
			<path fill="#FACD00" d="M1077.11,1574.352c1.692,0.125,6.383,0.445,11.065,0.818c13.928,1.113,20.762,7.221,20.938,18.672
				c0.203,13.416-6.168,20.238-21.022,21.143c-10.545,0.641-21.163-0.002-31.739,0.262c-5.407,0.135-8.154-1.682-7.739-7.395
				c0.198-2.729,0.014-5.486,0.007-8.229C1048.558,1574.071,1048.561,1574.071,1077.11,1574.352z"/>
			<path fill="#FACD00" d="M1193.347,1574.036c6.653,0.393,13.324,0.578,19.952,1.221c11.285,1.096,16.435,7.984,17.06,18.855
				c0.642,11.164-4.627,18.869-15.442,20.047c-13.202,1.439-26.635,0.754-39.968,0.977c-4.108,0.066-5.373-2.389-5.361-6.045
				c0.009-3.533-0.129-7.066-0.134-10.602C1169.425,1574.219,1169.432,1574.219,1193.347,1574.036z"/>
			<path fill="#FACD00" d="M1474.051,1842.852c-26.324-0.15-41.82-17.672-41.934-47.404c-0.111-30.219,17.053-49.986,43.146-49.688
				c25.217,0.291,41.139,18.697,41.025,47.438C1516.17,1824.709,1500.612,1843.004,1474.051,1842.852z"/>
			<path fill="#FACD00" d="M1610.641,1615.323c-0.021,27.879-11.063,47.162-27.799,52.307c-25.471,7.826-48.225-4.145-54.273-29.986
				c-4.826-20.617-3.668-41.125,13.674-56.281c13.33-11.65,29.551-12.531,45.254-5.301
				C1605.504,1584.346,1609.497,1601.186,1610.641,1615.323z"/>
			<path fill="#FACD00" d="M1675.067,1797.135c0.344-34.889,19.162-54.174,47.752-51.078c9.691,1.053,17.912,4.895,24.674,12.197
				c16.906,18.268,14.84,60.625-3.951,76.695c-18.617,15.92-53.09,8.535-63.301-13.729
				C1676.444,1812.944,1674.61,1804.118,1675.067,1797.135z"/>
			<path fill="#FACD00" d="M963.722,1582.958c4.921,14.563,9.82,29.135,14.787,43.682c1.133,3.322-0.895,4.139-3.391,4.592
				c-1.143,0.207-2.347,0.063-3.519,0.139c-29.257,1.865-29.228,1.879-19.038-25.236c2.747-7.314,5.26-14.721,7.883-22.084
				C961.535,1583.682,962.628,1583.321,963.722,1582.958z"/>
			<path fill="#FACD00" d="M845.376,1748.735c5.103,0,10.245-0.404,15.299,0.082c12.817,1.232,18.826,7.459,19.324,19.367
				c0.487,11.639-5.356,18.404-17.898,20.449c-3.472,0.568-7.018,0.826-10.538,0.906c-28.335,0.654-27.861,0.615-28.755-27.916
				c-0.328-10.477,2.754-14.621,13.151-13.195c3.084,0.422,6.273,0.064,9.417,0.064
				C845.376,1748.575,845.376,1748.655,845.376,1748.735z"/>
		</g>
	</g>
</g>
</svg>
