<?xml version="1.0" encoding="UTF-8" standalone="no"?>
<!-- Created with Inkscape (http://www.inkscape.org/) -->

<svg
   xmlns:dc="http://purl.org/dc/elements/1.1/"
   xmlns:cc="http://creativecommons.org/ns#"
   xmlns:rdf="http://www.w3.org/1999/02/22-rdf-syntax-ns#"
   xmlns:svg="http://www.w3.org/2000/svg"
   xmlns="http://www.w3.org/2000/svg"
   xmlns:sodipodi="http://sodipodi.sourceforge.net/DTD/sodipodi-0.dtd"
   xmlns:inkscape="http://www.inkscape.org/namespaces/inkscape"
   width="90.400002cm"
   height="90.400002cm"
   viewBox="0 0 9040.0002 9040"
   version="1.1"
   id="svg8"
   inkscape:version="0.92.1 r15371"
   sodipodi:docname="drawing-1.svg">
  <defs
     id="defs2" />
  <sodipodi:namedview
     id="base"
     pagecolor="#ffffff"
     bordercolor="#666666"
     borderopacity="1.0"
     inkscape:pageopacity="0.0"
     inkscape:pageshadow="2"
     inkscape:zoom="0.0875"
     inkscape:cx="2840.1697"
     inkscape:cy="1133.071"
     inkscape:document-units="cm"
     inkscape:current-layer="layer1"
     showgrid="false"
     units="cm"
     fit-margin-top="0"
     fit-margin-left="0"
     fit-margin-right="0"
     fit-margin-bottom="0"
     inkscape:window-width="1920"
     inkscape:window-height="1057"
     inkscape:window-x="-8"
     inkscape:window-y="-8"
     inkscape:window-maximized="1" />
  <metadata
     id="metadata5">
    <rdf:RDF>
      <cc:Work
         rdf:about="">
        <dc:format>image/svg+xml</dc:format>
        <dc:type
           rdf:resource="http://purl.org/dc/dcmitype/StillImage" />
        <dc:title></dc:title>
      </cc:Work>
    </rdf:RDF>
  </metadata>
  <g
     inkscape:label="Layer 1"
     inkscape:groupmode="layer"
     id="layer1"
     transform="translate(-1800,13990)">
    <circle
       style="fill:#be141e;fill-opacity:1;stroke:none;stroke-width:1714.51647949;stroke-linejoin:miter;stroke-miterlimit:4;stroke-dasharray:none;stroke-opacity:1"
       id="path4485"
       cx="6320"
       cy="-9470"
       r="4500" />
    <rect
       style="fill:#ffffff;fill-opacity:1;stroke:none;stroke-width:364.59020996;stroke-linejoin:miter;stroke-miterlimit:4;stroke-dasharray:none;stroke-opacity:1"
       id="rect4487"
       width="7200"
       height="1080"
       x="2720"
       y="-10010" />
    <path
       d="m 4820,-10360 v -1800 h 305.0905 l 620.1597,1111.869 V -12160 H 6070 v 1800 H 5783.8594 L 5130.581,-11496.632 V -10360 Z"
       style="fill:#ffffff;fill-opacity:1;fill-rule:evenodd;stroke:none;stroke-width:59.21124268"
       id="path6086"
       inkscape:connector-curvature="0" />
    <path
       d="m 6450,-11240.016 c 0,-289.756 82.0662,-919.984 641.8442,-919.984 571.8714,0 628.1558,604.632 628.1558,915.53 0,422.904 -151.3904,884.47 -628.1558,884.47 -574.7627,0 -641.8442,-569 -641.8442,-880.016 m 312.3971,44.719 c -3.0689,506.464 226.9661,558.488 329.4471,558.488 124.0149,0 325.9654,-143.898 325.9654,-562.883 0,-589.369 -167.7315,-686.886 -325.9654,-682.965 -171.8036,4.215 -325.6726,78.986 -329.4471,687.36"
       style="fill:#ffffff;fill-opacity:1;fill-rule:evenodd;stroke:none;stroke-width:59.19305801"
       id="path6098"
       inkscape:connector-curvature="0" />
    <path
       d="m 4740,-6780.0045 627.9994,-1799.995 h 292.4778 L 6320,-6791.2869 h -331.9409 l -184.8359,-494.5268 H 5243.284 l -189.7316,505.8092 z m 598.1488,-794.4355 h 369.7914 l -197.2541,-502.1256 z"
       style="fill:#ffffff;fill-opacity:1;fill-rule:evenodd;stroke:none;stroke-width:59.54457474"
       id="path6102"
       inkscape:connector-curvature="0" />
    <path
       d="m 8209.9999,-6780.0045 v -1799.995 h 1134.5893 v 275.918 h -850.942 v 438.5808 h 543.0448 v 287.5574 h -543.0448 v 486.1516 h 866.3527 v 311.7872 z"
       style="fill:#ffffff;fill-opacity:1;fill-rule:evenodd;stroke:none;stroke-width:59.55775833"
       id="path6106"
       inkscape:connector-curvature="0" />
    <path
       d="m 3300,-6780.0045 v -1799.995 h 745.9101 c 644.171,0 676.5304,950.4486 64.9601,1018.1499 -53.1975,5.9393 -469.7085,3.0303 -513.2355,-2.3146 v 784.1597 z m 297.6347,-1061.9784 h 477.4116 c 200.4339,0 266.9462,-413.7567 -14.6872,-434.3655 -20.3605,-1.5993 -439.0804,-1.2457 -462.7244,0.2357 z"
       style="fill:#ffffff;fill-opacity:1;fill-rule:evenodd;stroke:none;stroke-width:59.54698181"
       id="path6110"
       inkscape:connector-curvature="0" />
    <path
       d="m 6600,-7235.3553 273.718,-104.6449 c 140.4545,407.4163 607.2365,266.0087 639.0554,121.3924 105.1607,-478.0309 -508.4273,-297.5442 -728.9373,-562.3661 -113.848,-136.7156 -121.8784,-395.2412 -30.6192,-540.6893 249.2112,-397.3793 870.1697,-320.5878 1010.3245,122.4632 l -289.5962,78.3352 c -5.8126,-80.6517 -153.0978,-186.3067 -241.3614,-178.1704 -284.2042,26.3099 -384.8114,413.1185 117.3249,452.9703 270.8414,21.4395 726.9587,400.4097 315.003,891.6258 -256.9399,306.2765 -920.8028,207.1535 -1064.9117,-280.9162"
       style="fill:#ffffff;fill-opacity:1;fill-rule:evenodd;stroke:none;stroke-width:59.65493011"
       id="path6114"
       inkscape:connector-curvature="0" />
  </g>
</svg>
