<?xml version="1.0" encoding="UTF-8" standalone="no"?>
<!-- Created with Inkscape (http://www.inkscape.org/) -->

<svg
   xmlns:dc="http://purl.org/dc/elements/1.1/"
   xmlns:cc="http://creativecommons.org/ns#"
   xmlns:rdf="http://www.w3.org/1999/02/22-rdf-syntax-ns#"
   xmlns:svg="http://www.w3.org/2000/svg"
   xmlns="http://www.w3.org/2000/svg"
   xmlns:sodipodi="http://sodipodi.sourceforge.net/DTD/sodipodi-0.dtd"
   xmlns:inkscape="http://www.inkscape.org/namespaces/inkscape"
   width="90.400002cm"
   height="90.400002cm"
   viewBox="0 0 9040.0002 9039.9997"
   version="1.1"
   id="svg30"
   inkscape:version="0.92.2 (5c3e80d, 2017-08-06)"
   sodipodi:docname="66.svg">
  <defs
     id="defs24" />
  <sodipodi:namedview
     id="base"
     pagecolor="#ffffff"
     bordercolor="#666666"
     borderopacity="1.0"
     inkscape:pageopacity="0.0"
     inkscape:pageshadow="2"
     inkscape:zoom="0.125"
     inkscape:cx="2734.7353"
     inkscape:cy="1370.2292"
     inkscape:document-units="cm"
     inkscape:current-layer="layer1"
     showgrid="false"
     units="cm"
     inkscape:window-width="1920"
     inkscape:window-height="1057"
     inkscape:window-x="-8"
     inkscape:window-y="-8"
     inkscape:window-maximized="1"
     fit-margin-top="0"
     fit-margin-left="0"
     fit-margin-right="0"
     fit-margin-bottom="0" />
  <metadata
     id="metadata27">
    <rdf:RDF>
      <cc:Work
         rdf:about="">
        <dc:format>image/svg+xml</dc:format>
        <dc:type
           rdf:resource="http://purl.org/dc/dcmitype/StillImage" />
        <dc:title></dc:title>
      </cc:Work>
    </rdf:RDF>
  </metadata>
  <g
     inkscape:label="Layer 1"
     inkscape:groupmode="layer"
     id="layer1"
     transform="translate(92.451885,23232.52)">
    <circle
       id="path32"
       cx="4427.5483"
       cy="-18712.52"
       style="fill:#be141e;fill-opacity:1;stroke:none;stroke-width:7.43594885"
       r="4500" />
    <circle
       style="fill:#ffffff;fill-opacity:1;stroke:none;stroke-width:4.06587029"
       id="path5072"
       cx="4427.5483"
       cy="-18712.52"
       r="3600" />
    <path
       style="fill:#000000;fill-opacity:1;fill-rule:evenodd;stroke:none;stroke-width:33.39524841"
       d="m 5879.1234,-17894.52 v -0.03 c 21.841,-126.101 -42.647,-270.525 -246.491,-373.983 l 224.916,0.02 c 196.8,2.204 329.78,-139.087 381.476,-312.074 l 560.772,78.311 185.911,51.165 c 59.778,15.262 182.141,190.718 385.718,186.076 245.688,0 446.123,-200.606 446.123,-446.562 v -1.845 c 0,-245.956 -200.435,-446.562 -446.123,-446.562 -203.577,-4.642 -325.94,170.815 -385.718,186.077 l -185.911,51.164 -560.772,78.311 c -51.696,-172.987 -184.676,-314.278 -381.476,-312.074 l -1250,0.01 z"
       id="path1820"
       inkscape:connector-curvature="0"
       sodipodi:nodetypes="ccccccccssccccccc" />
    <path
       style="fill:#000000;fill-opacity:1;fill-rule:evenodd;stroke:none;stroke-width:33.39524841"
       d="m 3377.5479,-19174.073 h -884.4055 c -523.605,-105.461 -670.876,-617.781 -560.705,-1408.446 h -190.355 c -199.833,592.568 -308.656,1213.604 -304.415,1870 -4.24,656.395 104.581,1277.431 304.415,1869.999 h 190.355 c -110.171,-790.665 37.1,-1302.985 560.705,-1408.446 h 1248.115 c -415.938,211.158 -251.966,604.589 43.248,628.535 l 1143.0425,0.01 -200,-205.6 -930.8565,0.04 c -116.216,-16.798 -120.956,-189.952 -5.943,-195.73 h 12.092 l 724.7075,-0.04 z"
       id="path1822"
       inkscape:connector-curvature="0"
       sodipodi:nodetypes="ccccccccccccccccc" />
    <rect
       y="-14101.001"
       x="15912.499"
       height="8000"
       width="900"
       id="rect1878"
       style="fill:#be141e;fill-opacity:1;stroke:none;stroke-width:1.9949348"
       transform="rotate(-45)" />
  </g>
</svg>
