<?xml version="1.0" encoding="utf-8"?>
<!-- Generator: Adobe Illustrator 16.0.3, SVG Export Plug-In . SVG Version: 6.00 Build 0)  -->
<!DOCTYPE svg PUBLIC "-//W3C//DTD SVG 1.1//EN" "http://www.w3.org/Graphics/SVG/1.1/DTD/svg11.dtd">
<svg version="1.1"
	 id="svg30" xmlns:dc="http://purl.org/dc/elements/1.1/" xmlns:cc="http://creativecommons.org/ns#" xmlns:rdf="http://www.w3.org/1999/02/22-rdf-syntax-ns#" xmlns:svg="http://www.w3.org/2000/svg" xmlns:sodipodi="http://sodipodi.sourceforge.net/DTD/sodipodi-0.dtd" xmlns:inkscape="http://www.inkscape.org/namespaces/inkscape" sodipodi:docname="66.svg" inkscape:version="0.92.2 (5c3e80d, 2017-08-06)"
	 xmlns="http://www.w3.org/2000/svg" xmlns:xlink="http://www.w3.org/1999/xlink" x="0px" y="0px" width="2562.52px"
	 height="2562.52px" viewBox="0 0 2562.52 2562.52" enable-background="new 0 0 2562.52 2562.52" xml:space="preserve">
<g id="layer1" transform="translate(0,6070)" inkscape:label="Layer 1" inkscape:groupmode="layer">
	<circle id="path32" fill="#BE141E" cx="1281.26" cy="-4788.74" r="1275.591"/>
	<circle id="path5072" fill="#FFFFFF" cx="1281.26" cy="-4788.74" r="1020.472"/>
	<path id="path1104" inkscape:connector-curvature="0" d="M1322.314-4811.607c-4.658-181.145,37.319-530.527,362.878-527.537
		c339.202,3.154,382.635,347.144,382.635,527.537c0,199.773-45.997,547.015-382.635,542.897
		C1335.028-4272.975,1326.48-4649.53,1322.314-4811.607 M1900.195-4811.607c-1.423-78.057-27.991-365.934-215.003-370.101
		c-181.34-4.036-199.086,296.766-199.086,370.101c0,74.478,16.454,378.32,199.086,382.732
		C1873.397-4424.35,1901.73-4727.65,1900.195-4811.607"/>
	<path id="path281" inkscape:connector-curvature="0" stroke="#000000" stroke-width="74.8" stroke-miterlimit="22.926" d="
		M991.445-4637.816v-468.611l-324.944,468.611H991.445z M991.445-4271.817v-248.827H541.04v-117.172l473.865-673.614h104.175
		v673.614h81.232v117.172h-81.232v248.827H991.445z"/>
</g>
</svg>
