<?xml version="1.0" encoding="UTF-8" standalone="no"?>
<!-- Created with Inkscape (http://www.inkscape.org/) -->

<svg
   xmlns:dc="http://purl.org/dc/elements/1.1/"
   xmlns:cc="http://creativecommons.org/ns#"
   xmlns:rdf="http://www.w3.org/1999/02/22-rdf-syntax-ns#"
   xmlns:svg="http://www.w3.org/2000/svg"
   xmlns="http://www.w3.org/2000/svg"
   xmlns:sodipodi="http://sodipodi.sourceforge.net/DTD/sodipodi-0.dtd"
   xmlns:inkscape="http://www.inkscape.org/namespaces/inkscape"
   width="90.400002cm"
   height="90.400002cm"
   viewBox="0 0 9040.0002 9039.9996"
   version="1.1"
   id="svg30"
   inkscape:version="0.92.2 (5c3e80d, 2017-08-06)"
   sodipodi:docname="100.svg">
  <defs
     id="defs24">
    <pattern
       y="0"
       x="0"
       height="6"
       width="6"
       patternUnits="userSpaceOnUse"
       id="EMFhbasepattern" />
    <pattern
       y="0"
       x="0"
       height="6"
       width="6"
       patternUnits="userSpaceOnUse"
       id="EMFhbasepattern-5" />
  </defs>
  <sodipodi:namedview
     id="base"
     pagecolor="#ffffff"
     bordercolor="#666666"
     borderopacity="1.0"
     inkscape:pageopacity="0.0"
     inkscape:pageshadow="2"
     inkscape:zoom="0.0875"
     inkscape:cx="3183.2598"
     inkscape:cy="1489.1584"
     inkscape:document-units="cm"
     inkscape:current-layer="layer1"
     showgrid="false"
     units="cm"
     inkscape:window-width="1920"
     inkscape:window-height="1057"
     inkscape:window-x="-8"
     inkscape:window-y="-8"
     inkscape:window-maximized="1" />
  <metadata
     id="metadata27">
    <rdf:RDF>
      <cc:Work
         rdf:about="">
        <dc:format>image/svg+xml</dc:format>
        <dc:type
           rdf:resource="http://purl.org/dc/dcmitype/StillImage" />
        <dc:title></dc:title>
      </cc:Work>
    </rdf:RDF>
  </metadata>
  <g
     inkscape:label="Layer 1"
     inkscape:groupmode="layer"
     id="layer1"
     transform="translate(0,6069.9998)">
    <circle
       id="path32"
       cx="4520"
       cy="-1549.9996"
       style="fill:#be141e;fill-opacity:1;stroke:none;stroke-width:7.43594885"
       r="4500" />
    <circle
       style="fill:#ffffff;fill-opacity:1;stroke:none;stroke-width:4.06587029"
       id="path5072"
       cx="4520"
       cy="-1549.9996"
       r="3600" />
    <path
       d="m 7227.0581,-1565.1532 v 0 c 0,-1310.2213 -299.1014,-1964.8464 -895.8588,-1964.8464 -608.901,0 -913.7065,654.6251 -913.7065,1964.8464 0,1328.01694 304.8055,1991.63079 913.7065,1991.63079 596.7574,0 895.8588,-663.61385 895.8588,-1991.63079 m -420.7108,88.279 c 0,323.7578 -26.522,600.27991 -79.474,829.5015 -82.2075,354.03802 -218.2344,531.57007 -407.7783,531.57007 -190.3195,0 -325.6104,-191.76598 -405.0842,-573.53455 -49.2852,-239.88081 -73.7174,-527.90242 -73.7174,-864.18472 0,-963.2678 159.6312,-1444.9077 478.8016,-1444.9077 324.7429,0 487.2523,507.4652 487.2523,1521.5554"
       style="fill:#000000;fill-opacity:1;fill-rule:nonzero;stroke:none;stroke-width:46.36450958"
       id="path1298"
       inkscape:connector-curvature="0" />
    <path
       d="m 5051.8631,-1565.1532 v 0 c 0,-1310.2213 -297.1958,-1964.8464 -890.3389,-1964.8464 -605.1948,0 -908.0945,654.6251 -908.0945,1964.8464 0,1328.01694 302.8997,1991.63079 908.0945,1991.63079 593.1431,0 890.3389,-663.61385 890.3389,-1991.63079 m -418.2007,88.279 c 0,323.7578 -26.2459,600.27991 -78.9613,829.5015 -81.6555,354.03802 -216.8544,531.57007 -405.2681,531.57007 -189.1234,0 -323.4943,-191.76598 -402.3636,-573.53455 -49.1406,-239.88081 -73.3363,-527.90242 -73.3363,-864.18472 0,-963.2678 158.6061,-1444.9077 475.6999,-1444.9077 322.9292,0 484.2294,507.4652 484.2294,1521.5554"
       style="fill:#000000;fill-opacity:1;fill-rule:nonzero;stroke:none;stroke-width:46.36450958"
       id="path1306"
       inkscape:connector-curvature="0" />
    <path
       d="m 2402.6504,430.00036 h 495.5848 V -3529.8947 h -327.9366 c -75.899,176.454 -205.9986,269.7933 -390.2986,277.2065 v 431.382 h 222.6504 z"
       style="fill:#000000;fill-opacity:1;fill-rule:nonzero;stroke:none;stroke-width:46.36450958"
       id="path1310"
       inkscape:connector-curvature="0" />
  </g>
</svg>
