<?xml version="1.0" encoding="UTF-8" standalone="no"?>
<!-- Created with Inkscape (http://www.inkscape.org/) -->

<svg
   xmlns:dc="http://purl.org/dc/elements/1.1/"
   xmlns:cc="http://creativecommons.org/ns#"
   xmlns:rdf="http://www.w3.org/1999/02/22-rdf-syntax-ns#"
   xmlns:svg="http://www.w3.org/2000/svg"
   xmlns="http://www.w3.org/2000/svg"
   xmlns:xlink="http://www.w3.org/1999/xlink"
   xmlns:sodipodi="http://sodipodi.sourceforge.net/DTD/sodipodi-0.dtd"
   xmlns:inkscape="http://www.inkscape.org/namespaces/inkscape"
   width="121.4cm"
   height="256.20001cm"
   viewBox="0 0 1214.0001 2561.9999"
   version="1.1"
   id="svg8"
   inkscape:version="0.92.2 (5c3e80d, 2017-08-06)"
   sodipodi:docname="66.svg">
  <defs
     id="defs2">
    <radialGradient
       inkscape:collect="always"
       xlink:href="#radialGradient3010"
       id="radialGradient6966"
       gradientUnits="userSpaceOnUse"
       gradientTransform="matrix(130.00551,0,0,-129.99886,-1867.096,-9246.4578)"
       cx="0"
       cy="0"
       fx="0"
       fy="0"
       r="1"
       spreadMethod="pad" />
    <radialGradient
       fx="0"
       fy="0"
       cx="0"
       cy="0"
       r="1"
       gradientUnits="userSpaceOnUse"
       gradientTransform="matrix(84.060608,0,0,84.060608,2428.5202,-1626.2093)"
       spreadMethod="pad"
       id="radialGradient3010">
      <stop
         style="stop-opacity:1;stop-color:#fff533"
         offset="0"
         id="stop3006" />
      <stop
         style="stop-opacity:1;stop-color:#f89c0e"
         offset="1"
         id="stop3008" />
    </radialGradient>
  </defs>
  <sodipodi:namedview
     id="base"
     pagecolor="#ffffff"
     bordercolor="#666666"
     borderopacity="1.0"
     inkscape:pageopacity="0.0"
     inkscape:pageshadow="2"
     inkscape:zoom="0.054848954"
     inkscape:cx="5576.821"
     inkscape:cy="4485.0185"
     inkscape:document-units="cm"
     inkscape:current-layer="layer1"
     showgrid="false"
     units="cm"
     fit-margin-top="0"
     fit-margin-left="0"
     fit-margin-right="0"
     fit-margin-bottom="0"
     inkscape:window-width="1920"
     inkscape:window-height="1057"
     inkscape:window-x="-8"
     inkscape:window-y="-8"
     inkscape:window-maximized="1"
     showguides="false"
     inkscape:measure-start="0,0"
     inkscape:measure-end="0,0" />
  <metadata
     id="metadata5">
    <rdf:RDF>
      <cc:Work
         rdf:about="">
        <dc:format>image/svg+xml</dc:format>
        <dc:type
           rdf:resource="http://purl.org/dc/dcmitype/StillImage" />
        <dc:title></dc:title>
      </cc:Work>
    </rdf:RDF>
  </metadata>
  <g
     inkscape:label="Layer 1"
     inkscape:groupmode="layer"
     id="layer1"
     transform="translate(2474.0923,9542.9613)">
    <rect
       style="fill:#000000;fill-opacity:1;stroke:none;stroke-width:1.26148379"
       id="rect815"
       width="1210"
       height="2060"
       x="-2472.0923"
       y="-9540.9629"
       rx="89"
       ry="89" />
    <rect
       ry="83.999992"
       rx="83.999992"
       y="-9535.9629"
       x="-2467.0923"
       height="2049.9998"
       width="1200"
       id="rect8703"
       style="fill:#ffffff;fill-opacity:1;stroke:none;stroke-width:1.25320745" />
    <rect
       ry="53.999996"
       rx="53.999996"
       style="fill:#000000;fill-opacity:1;stroke:none;stroke-width:1.20346737"
       id="rect8705"
       width="1140"
       height="1989.9999"
       x="-2437.0923"
       y="-9505.9629" />
    <rect
       ry="29.999998"
       rx="29.999998"
       style="fill:#ffffff;fill-opacity:1;stroke:none;stroke-width:1.16356695"
       id="rect8707"
       width="1092"
       height="1941.9999"
       x="-2413.0923"
       y="-9481.9629" />
    <circle
       style="fill:#be141e;fill-opacity:1;stroke:none;stroke-width:214.78665161;stroke-linejoin:miter;stroke-miterlimit:4;stroke-dasharray:none;stroke-opacity:1"
       id="path5041-3"
       cx="-1867.0924"
       cy="-8510.9629"
       r="499.99997" />
    <circle
       r="399.99994"
       cy="-8510.9629"
       cx="-1867.0924"
       id="circle5043-5"
       style="fill:#ffffff;fill-opacity:1;stroke:none;stroke-width:171.82933044;stroke-linejoin:miter;stroke-miterlimit:4;stroke-dasharray:none;stroke-opacity:1" />
    <path
       d="m -1672.3611,-8502.7588 c 0,35.432 -3.6044,65.691 -10.8271,90.776 -11.234,38.753 -29.7708,58.176 -55.6452,58.176 -25.96,0 -44.4097,-20.988 -55.2468,-62.769 -6.732,-26.254 -10.0558,-57.784 -10.0558,-94.58 0,-105.424 21.7637,-158.125 65.2998,-158.125 44.3186,0 66.4737,55.54 66.4737,166.522 m 57.3997,-9.663 c 0,-143.402 -40.8082,-215.044 -122.2171,-215.044 -83.065,0 -124.6432,71.642 -124.6432,215.044 0,145.337 41.5782,217.956 124.6432,217.956 81.4089,0 122.2171,-72.619 122.2171,-217.956 m -504.2562,99.557 c 0.5611,34.069 11.809,62.273 33.873,84.73 22.0583,22.456 50.0729,33.669 84.1353,33.669 33.9709,0 61.8945,-11.416 83.6597,-34.257 21.7637,-22.939 32.6008,-51.534 32.6008,-85.799 0,-43.536 -16.2057,-80.24 -48.5134,-110.009 25.3725,-27.331 38.0677,-58.079 38.0677,-92.05 0,-31.231 -9.6631,-57.294 -28.8953,-78.283 -20.1075,-21.765 -45.6819,-32.602 -76.9195,-32.602 -28.2027,0 -51.9258,8.878 -71.151,26.75 -19.2339,17.863 -30.5533,40.899 -33.8744,69.103 l 59.4487,7.139 c 0.561,-13.085 4.9648,-23.722 13.1833,-31.825 8.1905,-8.107 19.0304,-12.104 32.3975,-12.104 14.5495,0 26.1621,4.684 35.1464,14.053 8.8776,9.271 13.3656,21.379 13.3656,36.117 0,15.619 -3.997,29.966 -12.1033,43.145 -9.5651,15.038 -21.6727,22.547 -36.4114,22.547 h -25.1831 v 57.295 h 29.2867 c 15.9055,0 29.2812,8.892 40.215,26.748 9.7613,15.62 14.6475,32.022 14.6475,49.003 0,19.234 -4.8946,34.748 -14.6475,46.459 -10.6309,12.791 -25.3781,19.234 -44.3186,19.234 -16.4933,0 -30.1536,-5.751 -40.9906,-17.179 -10.9394,-11.431 -16.8846,-25.379 -18.0654,-41.879 z"
       style="fill:#000000;fill-opacity:1;fill-rule:nonzero;stroke:none;stroke-width:6.99142361"
       id="path3807"
       inkscape:connector-curvature="0" />
    <path
       d="m -1458.6426,-7641.0843 17.977,-43.0201 17.8705,43.0201 z m -47.3393,52.8119 h 25.0091 l 12.4988,-29.9788 h 55.4961 l 12.5131,29.9788 h 24.6185 l -53.194,-127.6017 h -23.3515 z m -101.2122,-22.4524 v -82.4356 h 18.132 c 11.9022,0 21.3757,3.9343 28.4206,11.7319 6.7465,7.4141 10.0984,17.0353 10.0984,28.8453 0,8.6071 -1.4628,15.662 -4.3603,21.1699 -3.1248,5.809 -8.3231,10.7802 -15.5697,14.9474 -6.6044,3.8065 -12.8254,5.7382 -18.6004,5.7382 z m -23.4578,22.4524 h 41.5898 c 10.7091,0 20.9014,-2.6703 30.4814,-8.0391 20.8447,-11.7176 31.2669,-30.4887 31.2669,-56.2746 0,-25.5104 -10.2689,-43.9405 -30.8706,-55.2477 -9.6866,-5.3687 -19.5707,-8.0389 -29.6023,-8.0389 h -42.8652 z m -104.1439,-52.8119 17.9843,-43.0201 17.8633,43.0201 z m -47.3393,52.8119 h 25.0077 l 12.4988,-29.9788 h 55.502 l 12.4988,29.9788 h 24.617 l -53.1939,-127.6017 h -23.3444 z m -138.7326,-127.6017 46.3195,127.6017 h 24.3641 l 46.7158,-127.6017 h -24.2363 l -34.4883,93.156 -34.4385,-93.156 z m -44.3013,127.6017 h 22.9623 v -127.6088 h -22.9623 z m -80.5308,0 h 22.3302 v -105.2701 h 36.8674 v -22.3316 h -95.6899 v 22.3316 h 36.4923 z m -57.8398,-25.7804 -20.2708,-10.837 c -9.019,10.9933 -18.7554,16.4701 -29.2061,16.4701 -10.8086,0 -18.9401,-4.7439 -24.3856,-14.1748 -4.346,-7.6413 -6.5191,-17.291 -6.5191,-28.9589 0,-11.3201 2.0451,-20.8802 6.1358,-28.7034 5.2692,-9.9422 13.0953,-14.9189 23.492,-14.9189 10.7093,0 19.3789,3.4228 26.0133,10.3257 0.9941,1.2782 2.4144,3.224 4.4739,5.8658 l 20.2708,-10.8654 c -5.17,-8.8345 -12.0017,-15.747 -20.4554,-20.7168 -8.4793,-4.9711 -17.7995,-7.4709 -28.0087,-7.4709 -18.4585,0 -32.5069,6.5902 -42.0998,19.768 -8.522,11.5757 -12.7687,26.9549 -12.7687,46.0923 0,18.5224 4.2042,33.7952 12.6125,45.7954 9.6155,13.6067 23.3799,20.4201 41.2432,20.4201 10.5388,0 20.1004,-2.3862 28.6963,-7.1443 9.0332,-5.028 15.9658,-11.9875 20.7806,-20.9299 m -207.4748,-27.0316 17.9841,-43.02 17.8633,43.02 z m -47.3322,52.8119 h 25.0005 l 12.5131,-29.9788 h 55.4947 l 12.4989,29.9788 h 24.6184 l -53.1953,-127.6017 h -23.343 z m 846.361,-283.7731 c 0,30.4743 -10.0985,45.7115 -30.2471,45.7115 -11.1354,0 -19.3575,-4.8432 -24.6254,-14.5583 -4.2611,-7.6554 -6.3915,-17.4742 -6.3915,-29.4816 0,-11.6465 2.1588,-21.2195 6.505,-28.6961 5.454,-9.4448 13.6208,-14.1608 24.5119,-14.1608 10.4535,0 18.3377,4.502 23.6058,13.5075 4.403,7.3288 6.647,16.5679 6.647,27.6905 m 22.9481,1.1362 c 0,-18.0551 -4.3745,-33.0224 -13.1236,-44.9322 -9.7861,-13.422 -23.4921,-20.15 -41.08,-20.15 -17.453,0 -30.9403,6.662 -40.4565,20.03 -8.3374,11.6463 -12.513,26.473 -12.513,44.3861 0,18.4017 4.2041,33.7951 12.6124,46.2145 9.8002,14.287 23.5845,21.4382 41.3626,21.4382 17.5879,0 31.2031,-7.0588 40.8116,-21.1769 8.252,-12.2574 12.3851,-27.5287 12.3851,-45.8097 m -208.3882,42.3541 v -82.4283 h 18.1249 c 11.9163,0 21.3828,3.92 28.4276,11.7317 6.7324,7.4142 10.0986,17.0354 10.0986,28.8454 0,8.6071 -1.4629,15.662 -4.3462,21.1699 -3.1248,5.809 -8.3231,10.7802 -15.5697,14.946 -6.6044,3.8207 -12.8254,5.7381 -18.6075,5.7381 z m -23.465,22.4596 h 41.5899 c 10.7234,0 20.9014,-2.6846 30.4885,-8.0392 20.8376,-11.7175 31.2598,-30.4814 31.2598,-56.2745 0,-25.5033 -10.2689,-43.9332 -30.8635,-55.2482 -9.6866,-5.368 -19.5706,-8.038 -29.6024,-8.038 h -42.8723 z m -123.4373,0 h 22.2095 v -87.9166 l 60.2331,87.9166 h 19.6544 v -127.6089 h -21.8204 v 83.8303 l -58.4492,-83.8303 h -21.8274 z m -104.138,-52.819 17.9841,-43.0201 17.8705,43.0201 z m -47.3322,52.819 h 25.0004 l 12.5131,-29.9859 h 55.4948 l 12.513,29.9859 h 24.6184 l -53.2024,-127.6089 h -23.3429 z m -124.6773,-127.6089 v 76.8139 c 0,15.1519 4.7581,27.6849 14.2884,37.6683 9.7861,10.2121 22.2111,15.2996 37.2493,15.2996 14.9817,0 27.3655,-4.9994 37.1571,-15.0099 9.7577,-9.9706 14.6421,-22.4808 14.6421,-37.4481 v -77.3238 h -22.9467 v 76.1846 c 0,8.6639 -2.656,15.9659 -7.9254,21.8276 -5.2693,5.8517 -12.2431,8.7775 -20.9299,8.7775 -8.5786,0 -15.5766,-2.9969 -20.937,-9.0616 -5.1699,-5.7665 -7.769,-12.9675 -7.769,-21.552 v -76.1841 z m -21.3404,101.8214 -20.2779,-10.837 c -9.019,10.9933 -18.7553,16.4686 -29.2061,16.4686 -10.8086,0 -18.9329,-4.7438 -24.3855,-14.1889 -4.3461,-7.6414 -6.5192,-17.2896 -6.5192,-28.9576 0,-11.32 2.0452,-20.8801 6.1216,-28.7047 5.2835,-9.9422 13.1096,-14.9178 23.4991,-14.9178 10.7093,0 19.3861,3.423 26.0204,10.34 0.8522,1.2784 2.4145,3.21 4.4598,5.8518 l 20.2779,-10.8654 c -5.17,-8.8484 -12.0017,-15.7474 -20.4554,-20.7244 -8.4794,-4.971 -17.8066,-7.47 -28.0158,-7.47 -18.4585,0 -32.507,6.576 -42.0928,19.762 -8.5219,11.5898 -12.7687,26.9548 -12.7687,46.0922 0,18.5224 4.2042,33.8022 12.6126,45.7954 9.6155,13.6067 23.3728,20.4199 41.2361,20.4199 10.5387,0 20.1004,-2.3861 28.7034,-7.1441 9.019,-5.028 15.9586,-11.9876 20.7806,-20.93"
       style="fill:#000000;fill-opacity:1;fill-rule:nonzero;stroke:none;stroke-width:7.0803256"
       id="path3811"
       inkscape:connector-curvature="0" />
    <circle
       style="opacity:1;fill:#000000;fill-opacity:1;stroke:none;stroke-width:50.76087952;stroke-linejoin:round;stroke-miterlimit:4;stroke-dasharray:none;stroke-opacity:1"
       id="path956"
       cx="-1867.0924"
       cy="-9246.4629"
       r="140" />
    <path
       d="m -1997.0924,-9246.4638 c 0,-71.815 58.1859,-129.997 129.9896,-129.997 v 0 c 71.797,0 130.0104,58.182 130.0104,129.997 v 0 c 0,71.779 -58.2134,130.003 -130.0104,130.003 v 0 c -71.8037,0 -129.9896,-58.224 -129.9896,-130.003"
       style="fill:url(#radialGradient6966);stroke:none;stroke-width:6.90205145"
       id="path6962"
       inkscape:connector-curvature="0" />
    <rect
       ry="89"
       rx="89"
       y="-7460.9614"
       x="-2472.0923"
       height="478.00003"
       width="1210"
       id="rect999"
       style="fill:#000000;fill-opacity:1;stroke:none;stroke-width:0.6076619" />
    <rect
       ry="84"
       rx="83.999992"
       y="-7455.9614"
       x="-2467.0923"
       height="467.99997"
       width="1200"
       id="rect1001"
       style="fill:#ffffff;fill-opacity:1;stroke:none;stroke-width:0.59878236" />
    <rect
       ry="53.999996"
       rx="53.999996"
       style="fill:#000000;fill-opacity:1;stroke:none;stroke-width:0.54492646"
       id="rect1003"
       width="1140"
       height="407.99997"
       x="-2437.0923"
       y="-7425.9614" />
    <rect
       ry="29.999998"
       rx="29.999998"
       style="fill:#ffffff;fill-opacity:1;stroke:none;stroke-width:0.50097728"
       id="rect1005"
       width="1092"
       height="360"
       x="-2413.0923"
       y="-7401.9614" />
    <path
       inkscape:connector-curvature="0"
       id="path1007"
       style="fill:#000000;fill-opacity:1;fill-rule:nonzero;stroke:none;stroke-width:7.09024334"
       d="m -1461.0156,-7087.7297 c 0,-1.6214 -0.569,-2.8161 -1.4792,-3.826 -0.9957,-0.9956 -2.3184,-1.5076 -3.7834,-1.5076 -1.28,0 -2.4037,0.5689 -3.314,1.6214 -0.9956,1.1379 -1.4792,2.3041 -1.4792,3.7265 0,1.4933 0.5689,2.802 1.4792,3.9113 0.9957,1.2801 2.2045,1.721 3.5984,1.721 1.4223,0 2.5887,-0.569 3.5132,-1.6072 0.9956,-1.1379 1.4793,-2.5175 1.4793,-4.0109 m -60.5934,4.8216 h 8.6761 v -35.2961 l 12.9999,35.2961 12.9999,-35.2961 v 35.2961 h 8.8469 v -60.9331 h -8.8469 l -12.9999,34.1879 -12.9999,-34.1879 h -8.6761 z m -7.0973,-4.8216 c 0,-1.6214 -0.4266,-2.8161 -1.4793,-3.8261 -0.9955,-0.9957 -2.2187,-1.5076 -3.6837,-1.5076 -1.2801,0 -2.3895,0.5689 -3.4136,1.6214 -0.8533,1.1378 -1.4223,2.3042 -1.4223,3.7265 0,1.4934 0.4267,2.802 1.4792,3.9113 0.9956,1.2801 2.2189,1.7211 3.5985,1.7211 1.4223,0 2.5886,-0.569 3.5131,-1.6072 0.8534,-1.1379 1.4222,-2.5175 1.4222,-4.011 m -46.3843,-31.6862 v -14.8688 h 12.3456 c 2.2188,0 4.0678,0.7112 5.5328,1.9058 1.6641,1.28 2.4037,3.2144 2.4037,5.6324 0,2.5175 -0.8534,4.523 -2.5887,5.8314 -1.4791,1.138 -3.4988,1.6073 -5.8882,1.4935 h -0.1423 z m -8.5766,36.4012 h 8.5766 v -26.5461 h 11.35 c 4.9781,0 9.2165,-1.4933 12.5306,-4.4233 3.5984,-3.2145 5.4474,-7.5383 5.4474,-12.7724 0,-3.6269 -0.9955,-6.8271 -3.0436,-9.8566 -2.034,-3.0153 -4.6084,-5.1202 -7.7375,-6.2439 -1.7636,-0.569 -4.4376,-0.9956 -8.0218,-0.9956 h -19.086 z m -84.0131,-2.3183 c 4.0536,2.2187 8.5765,3.3139 13.64,3.3139 6.5569,0 12.0754,-2.0055 16.6894,-6.1301 5.092,-4.4235 7.5667,-10.0415 7.5667,-17.0948 0,-5.5186 -1.8349,-10.3545 -5.4333,-14.4777 -3.6836,-4.1247 -8.107,-6.1302 -13.1847,-6.1302 -2.2331,0 -5.0777,0.4267 -8.5766,1.7068 l 0.5689,-10.141 h 23.427 v -9.558 h -32.0974 l -1.4223,31.3662 8.8611,2.8162 c 2.2898,-4.2243 5.2483,-6.4289 8.9462,-6.4289 2.7594,0 5.0636,0.9956 7.0121,3.1148 2.0339,2.0055 2.9584,4.6227 2.9584,7.5241 0,4.3381 -1.5646,7.7374 -4.6083,10.2549 -2.7735,2.2188 -6.2866,3.3282 -10.2407,3.3282 -4.1531,0 -7.4671,-0.7112 -9.9561,-2.0198 z m -94.066,-58.5153 19.6408,34.2804 v 26.546 h 8.861 v -26.546 l 19.4629,-34.2804 h -10.4255 l -13.5546,23.4254 -13.3841,-23.4254 z m -46.1069,56.1115 c 0,-1.6214 -0.4267,-2.8161 -1.4793,-3.8261 -0.9955,-0.9955 -2.3041,-1.5076 -3.7834,-1.5076 -1.1378,0 -2.3041,0.5689 -3.328,1.6213 -0.9957,1.1381 -1.4793,2.3044 -1.4793,3.7266 0,1.4935 0.5689,2.802 1.5788,3.9114 0.9955,1.2801 2.1049,1.721 3.4988,1.721 1.4794,0 2.5886,-0.569 3.5985,-1.6072 0.8533,-1.1379 1.4223,-2.5175 1.4223,-4.0109 m -60.6004,4.8216 h 8.6761 v -35.2961 l 13.0142,35.2961 12.9999,-35.2961 v 35.2961 h 8.8468 v -60.9333 h -8.8468 l -12.9999,34.1882 -13.0142,-34.1882 h -8.6761 z m -6.9978,-4.8216 c 0,-1.6214 -0.5689,-2.8162 -1.5788,-3.826 -0.9956,-0.9957 -2.2187,-1.5077 -3.6979,-1.5077 -1.2801,0 -2.3895,0.5688 -3.3993,1.6214 -0.9957,1.1379 -1.4224,2.3042 -1.4224,3.7265 0,1.4934 0.4267,2.8019 1.4792,3.9113 0.9957,1.2801 2.2189,1.7211 3.5985,1.7211 1.4224,0 2.5743,-0.5691 3.513,-1.6073 0.8534,-1.1378 1.4793,-2.5175 1.4793,-4.0108 m -46.4826,-31.6864 v -14.8689 h 12.3599 c 2.2899,0 4.1389,0.7112 5.5328,1.906 1.6641,1.28 2.3895,3.2144 2.3895,5.6324 0,2.5175 -0.8534,4.5229 -2.4891,5.8314 -1.5645,1.1378 -3.4989,1.6072 -5.9879,1.4934 h -0.085 z m -8.5765,36.4013 h 8.5765 v -26.5461 h 11.3501 c 4.978,0 9.2166,-1.4935 12.5306,-4.4234 3.6978,-3.2144 5.4474,-7.5382 5.4474,-12.7722 0,-3.627 -0.9957,-6.8272 -3.0438,-9.8567 -2.0338,-3.0152 -4.6082,-5.1203 -7.652,-6.2439 -1.7494,-0.569 -4.5088,-0.9956 -8.1073,-0.9956 h -19.093 z m -60.2178,-23.8167 h -15.9598 l 15.9598,-22.8295 z m 0,23.8167 h 8.8609 v -15.0808 h 5.2484 v -8.733 h -5.2484 v -37.0099 h -8.8609 l -27.6654,39.9171 v 5.8315 h 27.6654 z m -108.3602,0 h 34.5793 v -9.8424 h -26.0071 v -16.7976 h 16.4135 v -9.757 h -16.4135 v -14.8688 h 24.2561 v -9.5579 h -32.8283 z m -36.3372,-36.2946 v -14.8759 h 11.3501 c 2.2187,0 4.0535,0.7111 5.6181,2.0054 1.4791,1.2801 2.3183,3.1149 2.3183,5.4333 0,2.5175 -0.9955,4.338 -2.5885,5.7318 -1.5646,1.1379 -3.499,1.8064 -5.7177,1.7068 z m -8.6761,36.2946 h 8.6761 v -26.4395 h 10.6105 l 9.0316,26.4395 h 9.7002 l -9.8709,-28.3539 c 2.5887,-1.4222 4.7079,-3.513 6.2724,-6.3292 1.5646,-2.8162 2.4038,-5.8315 2.4038,-9.0458 0,-5.0209 -1.6642,-9.1456 -4.7932,-12.2746 -3.2288,-3.2144 -7.197,-4.8216 -11.8052,-4.8216 h -20.1997 z m -28.8644,0 h 8.7757 v -52.2756 h 13.0853 v -8.5481 h -34.5864 v 8.5481 h 12.7297 z m -57.7288,0 h 8.6761 v -41.1233 l 21.3916,41.1233 h 7.837 v -60.8266 h -8.7615 v 38.9101 l -20.4699,-38.9101 h -8.6761 z m -41.5911,0 h 34.5863 v -9.8424 h -26.014 v -16.7976 h 16.4206 v -9.757 h -16.4206 v -14.8688 h 24.1635 v -9.5579 h -32.7358 z m 818.8314,-108.0771 c 0,-1.6215 -0.5688,-2.8305 -1.5643,-3.8261 -0.9958,-0.9956 -2.2189,-1.5077 -3.6982,-1.5077 -1.28,0 -2.4036,0.5689 -3.4134,1.6214 -0.8535,1.138 -1.4224,2.3043 -1.4224,3.7124 0,1.5076 0.4266,2.8161 1.4792,3.9254 0.9957,1.1379 2.2188,1.7068 3.5985,1.7068 1.4223,0 2.5886,-0.4266 3.4988,-1.6072 0.8534,-1.1378 1.4792,-2.5174 1.4792,-4.025 m -60.5862,4.8358 h 8.5767 v -35.2948 l 12.9998,35.2948 13.0996,-35.2948 v 35.2948 h 8.7756 v -60.9333 h -8.7756 l -13.0996,34.1824 -12.9147,-34.1824 h -8.6618 z m -7.0973,-4.8358 c 0,-1.6215 -0.4274,-2.8305 -1.4792,-3.8261 -0.9956,-0.9956 -2.3042,-1.5077 -3.7833,-1.5077 -1.2801,0 -2.3041,0.5689 -3.314,1.6214 -0.9957,1.138 -1.4792,2.3043 -1.4792,3.7124 0,1.5076 0.569,2.8161 1.5645,3.9254 0.8534,1.1379 2.1193,1.7068 3.4989,1.7068 1.4792,0 2.5886,-0.4266 3.5985,-1.6072 0.8534,-1.1378 1.4222,-2.5174 1.4222,-4.025 m -46.3844,-22.0147 5.7177,-17.0022 5.4332,17.0022 z m -18.0803,26.7296 h 9.4014 l 5.5329,-16.9811 h 17.5271 l 5.5328,16.9811 h 9.4156 l -19.2794,-60.8195 h -8.861 z m -54.8643,-43.0235 c 0,2.5175 -1.1378,4.6225 -3.5131,6.2438 -2.0338,1.4223 -4.2385,2.1194 -6.7275,2.1194 -2.4891,0 -4.6936,-0.7112 -6.6423,-2.2331 -2.1192,-1.7067 -3.2143,-3.8118 -3.2143,-6.4287 0,-2.5034 0.9956,-4.7222 3.0437,-6.429 1.9344,-1.5076 4.0536,-2.3183 6.5426,-2.3183 2.6739,0 5.0777,0.8534 7.0121,2.2188 2.3184,1.7067 3.513,4.0251 3.513,6.8271 m -12.7297,43.8327 c 6.2725,-4.8358 11.4355,-11.0513 15.2999,-18.4914 4.1531,-7.837 6.187,-15.7904 6.187,-23.8308 0,-6.0305 -1.7636,-10.9661 -5.3479,-14.6769 -3.4989,-3.7264 -8.0218,-5.6323 -13.6542,-5.6323 -4.9781,0 -9.4014,1.7068 -13.0852,5.0208 -3.883,3.5272 -5.8173,8.0503 -5.8173,13.4692 0,5.3336 1.9343,9.757 5.8884,13.2844 3.7834,3.4135 8.1214,5.1203 13.0141,5.1203 1.4792,0 3.698,-0.1422 6.6423,-0.8533 -2.7737,7.3248 -7.2824,13.4693 -13.4693,18.4986 z m -110.4879,-61.6287 19.6406,34.2819 v 26.5376 h 8.8611 v -26.5376 l 19.4629,-34.2819 h -10.4255 l -13.5548,23.4397 -13.3838,-23.4397 z m -46.0999,56.1046 c 0,-1.6215 -0.4268,-2.8305 -1.4792,-3.8261 -0.9957,-0.9956 -2.3043,-1.5077 -3.7835,-1.5077 -1.2799,0 -2.4036,0.5689 -3.3139,1.6214 -0.9956,1.138 -1.4793,2.3043 -1.4793,3.7124 0,1.5076 0.569,2.8161 1.4793,3.9254 0.9957,1.1379 2.2046,1.7068 3.5842,1.7068 1.4792,0 2.5745,-0.4266 3.5986,-1.6072 0.8533,-1.1378 1.4223,-2.5174 1.4223,-4.025 m -60.6005,4.8358 h 8.6761 v -35.2948 l 13,35.2948 12.9999,-35.2948 v 35.2948 h 8.861 v -60.9333 h -8.861 l -12.9999,34.1824 -13,-34.1824 h -8.6761 z m -7.0974,-4.8358 c 0,-1.6215 -0.4267,-2.8305 -1.4649,-3.8261 -0.9956,-0.9956 -2.2188,-1.5077 -3.6981,-1.5077 -1.2799,0 -2.4035,0.5689 -3.4135,1.6214 -0.8534,1.138 -1.4223,2.3043 -1.4223,3.7124 0,1.5076 0.4267,2.8161 1.4792,3.9254 0.9956,1.1379 2.2188,1.7068 3.5843,1.7068 1.4223,0 2.5885,-0.4266 3.5131,-1.6072 0.9956,-1.1378 1.4222,-2.5174 1.4222,-4.025 m -46.3843,-22.0147 5.7177,-17.0022 5.5327,17.0022 z m -18.0806,26.7296 h 9.4015 l 5.5329,-16.9811 h 17.52 l 5.5329,16.9811 h 9.4014 l -19.2781,-60.8195 h -8.8467 z m -74.8875,-17.6822 c 0,-2.6312 0.9957,-4.7222 3.2288,-6.4431 1.9485,-1.5219 4.1532,-2.2187 6.6421,-2.2187 2.4891,0 4.7931,0.7111 6.7276,2.2187 2.2898,1.7209 3.4136,3.8119 3.4136,6.4431 0,2.7024 -1.138,4.8217 -3.4136,6.5426 -1.9345,1.4934 -4.1531,2.3042 -6.7276,2.3042 -2.4889,0 -4.7078,-0.8534 -6.6421,-2.3042 -2.2189,-1.7209 -3.2288,-3.826 -3.2288,-6.5426 m 16.8829,-36.0969 -4.5229,-8.0502 c -6.0875,4.2242 -11.1652,10.454 -15.3154,18.4986 -4.139,8.0359 -6.1729,15.9953 -6.1729,23.8307 0,6.1445 1.7638,11.0656 5.3479,14.8817 3.513,3.826 8.1214,5.7319 13.6542,5.7319 4.978,0 9.3162,-1.6073 13,-4.9211 3.954,-3.5132 5.9026,-7.8512 5.9026,-13.1708 0,-5.7318 -1.9345,-10.3543 -6.0021,-13.9812 -3.684,-3.4278 -8.2923,-5.0208 -13.6402,-5.0208 -1.5786,0 -3.5983,0.1422 -5.9025,0.569 2.9442,-6.9267 7.4671,-13.071 13.6541,-18.3991 m -106.6945,53.779 h 34.5791 v -9.8423 h -26.0069 v -16.796 h 16.4134 v -9.7572 h -16.4134 v -14.8673 h 24.2561 v -9.558 h -32.8283 z m -36.3372,-36.2874 v -14.8744 h 11.4353 c 2.1192,0 3.9683,0.7111 5.5327,2.0054 1.5647,1.2801 2.3043,3.1148 2.3043,5.419 0,2.5175 -0.8534,4.3238 -2.5744,5.7319 -1.5646,1.2801 -3.4137,1.8205 -5.7177,1.7068 z m -8.5766,36.2874 h 8.5766 v -26.4322 h 10.5962 l 9.0459,26.4322 h 9.6858 l -9.8707,-28.3466 c 2.5743,-1.4222 4.7078,-3.5273 6.2723,-6.3293 1.6642,-2.8304 2.4037,-5.8457 2.4037,-9.0601 0,-5.0207 -1.5788,-9.1455 -4.7932,-12.2604 -3.2286,-3.2144 -7.1826,-4.8216 -11.8051,-4.8216 h -20.1002 z m -28.964,0 h 8.8611 v -52.2756 h 12.9998 v -8.548 h -34.5792 v 8.548 h 12.7154 z m -57.6292,0 h 8.5766 v -41.109 l 21.3986,41.109 h 7.9222 v -60.8194 h -8.8467 v 38.9115 l -20.477,-38.9115 h -8.5766 z m -41.6836,0 h 34.5793 v -9.8423 h -26.0141 v -16.796 h 16.4276 v -9.7572 h -16.4276 v -14.8673 h 24.2632 v -9.558 h -32.8284 z m 658.641,-117.7189 c 1.6498,4.6367 4.338,8.3347 8.0217,11.1509 3.6981,2.8162 7.7375,4.2242 12.2605,4.2242 5.1629,0 9.4155,-1.7209 12.6301,-5.2341 3.3281,-3.5131 4.978,-8.036 4.978,-13.6683 0,-6.7419 -2.3042,-11.7768 -6.9978,-15.0808 -0.9956,-0.7112 -5.3621,-2.5175 -13.0142,-5.5328 -4.6082,-1.8063 -7.0119,-4.3096 -7.0119,-7.6378 0,-2.0055 0.8534,-3.6269 2.5886,-4.7222 1.4793,-0.9954 3.1291,-1.5076 5.0776,-1.5076 4.5087,0 7.5525,1.8063 9.2308,5.4333 l 7.837,-2.6171 c -2.8589,-8.2352 -8.3917,-12.3599 -16.4135,-12.3599 -4.9923,0 -9.0317,1.2801 -12.0754,3.826 -3.3282,2.802 -4.9781,6.8272 -4.9781,12.0471 0,6.0306 2.3041,10.5677 6.9124,13.583 4.2528,1.9059 8.5908,3.8118 12.9146,5.7319 4.6082,2.105 6.9125,5.1204 6.9125,9.0459 0,2.8162 -0.8535,5.0208 -2.5887,6.5285 -1.664,1.5076 -3.7691,2.3182 -6.4431,2.3182 -2.4889,0 -4.7931,-0.8534 -6.9266,-2.5174 -2.1192,-1.721 -3.5985,-3.826 -4.523,-6.3293 z m -41.6909,14.3797 h 34.5864 v -9.8567 h -26.007 v -16.7976 h 16.4135 v -9.7571 h -16.4135 v -14.8688 h 24.256 v -9.558 h -32.8354 z m -41.5841,0 h 34.5721 v -8.7474 h -25.9997 v -52.0922 h -8.5767 z m -15.9526,0 h 8.861 v -60.8353 h -8.861 z m -36.3443,-9.8567 v -16.4918 h 12.3599 c 2.3041,0 4.2385,0.9956 5.8029,3.0011 1.4224,1.9202 2.1336,4.1248 2.1336,6.6423 0,2.0054 -0.5689,3.6126 -1.7638,4.8215 -1.1378,1.2801 -2.6738,2.0196 -4.4234,2.0196 z m 0,-26.3484 v -14.9812 h 12.9146 c 4.0536,0 6.0874,2.0197 6.0874,6.2296 0,2.3185 -0.7111,4.4235 -2.2187,6.1303 -1.5788,1.721 -3.4137,2.6171 -5.6181,2.6171 z m -8.6619,36.2036 h 21.0303 c 4.8785,0 8.861,-1.5078 11.9901,-4.4378 3.2286,-3.1006 4.8928,-7.3249 4.8928,-12.5589 0,-3.3282 -0.8534,-6.3436 -2.4891,-8.8611 -1.6641,-2.6027 -3.8829,-4.5229 -6.7275,-5.9309 5.2483,-2.8162 7.8369,-7.4388 7.8369,-13.6827 0,-4.4233 -1.5788,-8.1356 -4.6225,-11.0513 -2.9442,-2.9158 -6.4573,-4.3381 -10.6105,-4.3381 h -21.2991 z m -36.4226,-26.7453 5.8031,-17.0023 5.4333,17.0023 z m -18.0803,26.7453 h 9.4015 l 5.5327,-16.9953 h 17.5272 l 5.5328,16.9953 h 9.4014 l -19.2709,-60.8423 h -8.7614 z m 18.6336,-64.0538 4.978,-11.3643 h 8.6762 l -8.2067,11.3643 z m -63.5431,64.0538 h 8.5765 v -26.4465 h 20.4699 v 26.4465 h 8.861 v -60.8423 h -8.861 v 24.5406 h -20.4699 v -24.5406 h -8.5765 z m -84.0116,-14.3797 c 1.6497,4.6368 4.338,8.3348 8.0218,11.151 3.6837,2.8161 7.7374,4.2242 12.2603,4.2242 5.163,0 9.4015,-1.7209 12.6301,-5.2341 3.3282,-3.5131 4.978,-8.036 4.978,-13.6683 0,-6.7419 -2.304,-11.7768 -7.0119,-15.0808 -0.9956,-0.7112 -5.3478,-2.5175 -12.9999,-5.5328 -4.6083,-1.8063 -7.0121,-4.3096 -7.0121,-7.6379 0,-2.0055 0.8536,-3.6268 2.5745,-4.7221 1.4792,-0.9954 3.1433,-1.5076 5.0776,-1.5076 4.5229,0 7.5525,1.8063 9.2166,5.4332 l 7.8369,-2.617 c -2.8588,-8.2352 -8.3916,-12.3599 -16.4063,-12.3599 -4.9781,0 -9.0459,1.28 -12.0897,3.826 -3.3139,2.802 -4.9781,6.8271 -4.9781,12.0471 0,6.0306 2.3042,10.5677 6.9126,13.583 4.2526,1.9058 8.5764,3.8118 12.9144,5.7319 4.6083,2.105 6.9125,5.1203 6.9125,9.0459 0,2.8162 -0.8533,5.0207 -2.5743,6.5283 -1.6642,1.5078 -3.7835,2.3184 -6.4574,2.3184 -2.4748,0 -4.7931,-0.8534 -6.9124,-2.5174 -2.1194,-1.721 -3.5984,-3.826 -4.5087,-6.3293 z m -36.4369,-12.3598 5.7319,-17.0024 5.5328,17.0024 z m -18.0732,26.7452 h 9.4157 l 5.5328,-16.9953 h 17.52 l 5.5328,16.9953 h 9.4157 l -19.2723,-60.8424 h -8.8469 z m -15.947,0 h 8.9464 v -60.8352 h -8.9464 z m -0.9957,-64.9471 4.9781,-11.3785 h 8.7616 l -8.2068,11.3785 z m -25.9997,55.0919 h -9.3162 v -41.4221 h 10.1411 c 3.7833,0 6.5426,2.6029 8.292,7.8226 1.2801,3.6271 1.849,7.9509 1.849,12.8721 0,4.9353 -0.7112,9.2592 -2.105,13.0853 -1.9343,5.0207 -4.8927,7.6378 -8.8609,7.6378 m 1.4223,-50.9871 h -19.3704 v 60.8424 h 20.2921 c 2.3894,0 4.9638,-1.2802 7.7516,-3.627 6.6421,-5.8315 9.8566,-14.9812 9.8566,-27.5516 0,-5.8315 -0.8534,-11.3644 -2.8589,-16.6909 -2.4037,-6.443 -5.7177,-10.4539 -10.0415,-12.0612 -1.5788,-0.5689 -3.4278,-0.8533 -5.6323,-0.8533 m -74.3342,29.9638 c 0,5.6323 -0.7112,10.3687 -1.9345,14.0809 -1.9486,5.4332 -4.9923,8.1498 -9.3303,8.1498 -4.0536,0 -6.9125,-2.7166 -8.7615,-8.1498 -1.1378,-3.6126 -1.7635,-8.2353 -1.7635,-13.5688 0,-5.3195 0.5689,-9.8425 1.7635,-13.5689 1.849,-5.5328 4.7079,-8.2495 8.5765,-8.2495 4.338,0 7.4672,2.5176 9.4015,7.5382 1.4223,3.5132 2.0341,8.1358 2.0341,13.7681 m 8.8608,0.5689 c 0,-8.9462 -1.2802,-16.0806 -3.9682,-21.4129 -3.4136,-6.8271 -8.7615,-10.2548 -16.1361,-10.2548 -7.0974,0 -12.2746,3.5131 -15.5857,10.4539 -2.5744,5.4333 -3.8687,12.36 -3.8687,20.8099 0,8.7473 1.2801,15.7904 3.8687,21.3204 3.314,7.14 8.6761,10.7528 16.0536,10.7528 7.0121,0 12.2604,-3.5133 15.6682,-10.6533 2.6738,-5.5185 3.9682,-12.5731 3.9682,-21.016" />
  </g>
</svg>
