<?xml version="1.0" encoding="UTF-8" standalone="no"?>
<!-- Created with Inkscape (http://www.inkscape.org/) -->

<svg
   xmlns:dc="http://purl.org/dc/elements/1.1/"
   xmlns:cc="http://creativecommons.org/ns#"
   xmlns:rdf="http://www.w3.org/1999/02/22-rdf-syntax-ns#"
   xmlns:svg="http://www.w3.org/2000/svg"
   xmlns="http://www.w3.org/2000/svg"
   xmlns:sodipodi="http://sodipodi.sourceforge.net/DTD/sodipodi-0.dtd"
   xmlns:inkscape="http://www.inkscape.org/namespaces/inkscape"
   width="90.400002cm"
   height="90.400002cm"
   viewBox="0 0 9040.0002 9039.9996"
   version="1.1"
   id="svg30"
   inkscape:version="0.92.2 (5c3e80d, 2017-08-06)"
   sodipodi:docname="66.svg">
  <defs
     id="defs24" />
  <sodipodi:namedview
     id="base"
     pagecolor="#ffffff"
     bordercolor="#666666"
     borderopacity="1.0"
     inkscape:pageopacity="0.0"
     inkscape:pageshadow="2"
     inkscape:zoom="0.12374369"
     inkscape:cx="1541.1236"
     inkscape:cy="1680.8833"
     inkscape:document-units="cm"
     inkscape:current-layer="layer1"
     showgrid="false"
     units="cm"
     inkscape:window-width="1920"
     inkscape:window-height="1057"
     inkscape:window-x="-8"
     inkscape:window-y="-8"
     inkscape:window-maximized="1" />
  <metadata
     id="metadata27">
    <rdf:RDF>
      <cc:Work
         rdf:about="">
        <dc:format>image/svg+xml</dc:format>
        <dc:type
           rdf:resource="http://purl.org/dc/dcmitype/StillImage" />
        <dc:title></dc:title>
      </cc:Work>
    </rdf:RDF>
  </metadata>
  <g
     inkscape:label="Layer 1"
     inkscape:groupmode="layer"
     id="layer1"
     transform="translate(0,6070)">
    <circle
       id="path32"
       cx="4520"
       cy="-1549.9999"
       style="fill:#be141e;fill-opacity:1;stroke:none;stroke-width:7.43594885"
       r="4500" />
    <circle
       style="fill:#ffffff;fill-opacity:1;stroke:none;stroke-width:4.06587029"
       id="path5072"
       cx="4520"
       cy="-1549.9999"
       r="3600" />
    <path
       inkscape:connector-curvature="0"
       id="path1882"
       style="fill:#000000;fill-opacity:1;fill-rule:evenodd;stroke:none;stroke-width:33.14057159"
       d="M 1380,-177.49976 2774,-1549.9832 1380,-2922.4997 Z"
       sodipodi:nodetypes="cccc" />
    <path
       sodipodi:nodetypes="cccc"
       d="M 7660,-177.49976 6266,-1549.9832 7660,-2922.4997 Z"
       style="fill:#000000;fill-opacity:1;fill-rule:evenodd;stroke:none;stroke-width:33.14057159"
       id="path1895"
       inkscape:connector-curvature="0" />
    <path
       d="m 3514.267,-1067.2646 c 14.2493,50.6335 36.0864,91.92169 65.6446,123.56709 43.8065,47.7835 97.024,71.642 159.3208,71.642 67.0357,0 123.4017,-28.7297 169.1629,-85.7909 45.7622,-57.06199 68.6269,-133.57439 68.6269,-230.43319 0,-91.59 -21.7046,-164.126 -65.8427,-217.641 -43.7737,-53.981 -97.4223,-80.523 -160.5148,-80.523 -41.3878,0 -100.7352,-10.471 -158.6915,7.688 l 2.1548,-243.29 c 87.9118,2.187 198.3566,-52.787 244.4823,-97.919 46.1596,-45.597 69.4215,-105.707 69.4215,-180.894 0,-64.186 -16.9658,-115.05 -50.8973,-153.025 -33.8997,-38.074 -79.2636,-57.095 -135.2643,-57.095 -55.6033,0 -102.9557,21.671 -141.9577,65.015 -24.654,26.84 -43.4092,61.7 -55.9349,104.248 h -309.7624 c 20.7108,-101.995 50.1694,-184.638 88.8398,-247.564 41.818,-68.56 100.5699,-122.508 175.5249,-161.907 75.2865,-39.334 159.3218,-59.248 252.3359,-59.248 159.7529,0 287.528,57.028 383.7236,171.184 79.2964,93.346 119.1597,198.588 119.1597,316.223 0,166.778 -81.284,299.922 -243.7534,399.033 96.9911,23.428 174.3319,75.618 232.6527,157.002 57.9563,80.986 87.1829,179.137 87.1829,294.154 0,166.7447 -54.4771,308.76909 -162.9006,426.40429 -108.4563,117.238 -243.7206,176.0556 -405.3944,176.0556 -153.39,0 -280.3367,-49.5062 -381.3706,-148.1881 -92.4515,-90.7279 -149.2477,-206.8058 -170.555,-348.69779 z"
       style="fill:#000000;stroke:#000000;stroke-width:33.76632309;stroke-linecap:butt;stroke-linejoin:miter;stroke-miterlimit:22.9260006;stroke-dasharray:none;stroke-opacity:1"
       id="path1148"
       inkscape:connector-curvature="0" />
    <path
       d="m 5372.0779,-1897.2726 c 0,192.027 19.6832,319.736 58.7181,383.491 39.1673,63.424 87.1828,95.301 144.5089,95.301 57.5589,0 105.6402,-32.142 144.7747,-95.898 39.0019,-63.689 58.718,-191.43 58.718,-382.894 0,-192.492 -19.7161,-320.532 -58.718,-383.691 -39.1345,-63.457 -87.6798,-95.035 -145.9677,-95.035 -57.5251,0 -103.2206,28.034 -137.5505,83.869 -42.9113,71.077 -64.4835,202.895 -64.4835,394.857 z m -128.4054,0 c 0,-138.313 12.3932,-249.719 37.2126,-333.886 24.6212,-84.399 61.5689,-149.512 110.3791,-195.242 48.7774,-45.762 110.1462,-68.658 184.0407,-68.658 54.709,0 102.5913,12.823 143.7809,38.139 41.2216,25.086 75.0874,61.568 102.0944,109.252 26.774,47.618 47.8493,105.673 62.9928,174.034 15.4085,68.329 22.9962,160.383 22.9962,276.361 0,137.252 -12.3265,247.863 -36.7147,332.295 -24.6212,84.399 -61.3369,149.446 -110.1471,195.506 -48.8432,46.027 -110.3782,68.892 -185.0025,68.892 -98.0179,0 -175.028,-40.294 -230.9291,-121.181 -67.0357,-97.19 -100.7033,-255.981 -100.7033,-475.512 z m -174.0004,576.811 h -632.0495 c -0.93,-34.562 3.8436,-67.798 14.4475,-99.676 17.0982,-52.786 44.5683,-104.579 82.2449,-155.775 37.8757,-50.931 92.3519,-110.047 163.4303,-177.016 110.6102,-104.249 185.4337,-186.792 224.2694,-247.797 38.9024,-60.74 58.3207,-118.43 58.3207,-172.676 0,-56.895 -17.7942,-104.811 -53.085,-144.044 -35.5228,-38.969 -81.7152,-58.553 -138.5781,-58.553 -60.1759,0 -108.2243,20.677 -144.2102,62.362 -28.0675,32.044 -45.2324,73.763 -51.8592,124.927 h -128.0738 c 12.2936,-94.54 44.2048,-167.772 95.7982,-219.73 57.3598,-57.724 134.5353,-86.619 231.1949,-86.619 97.6214,0 174.8297,31.38 231.626,93.445 57.1278,62.363 85.5259,139.439 85.5259,231.494 0,46.854 -8.2847,92.881 -25.0842,138.047 -16.6023,45.231 -44.3373,92.882 -82.9081,142.719 -38.5718,50.136 -102.7904,118.729 -192.5583,205.879 -74.8554,72.47 -122.9367,121.479 -144.244,147.326 -21.3063,25.615 -38.8695,51.461 -52.853,77.639 h 458.6456 z"
       style="fill:#000000;stroke:#000000;stroke-width:30;stroke-linecap:butt;stroke-linejoin:miter;stroke-miterlimit:22.9260006;stroke-dasharray:none;stroke-opacity:1"
       id="path1156"
       inkscape:connector-curvature="0" />
    <path
       d="m 4519.9999,-1132.9993 h 1280 v 235.99955 h -1280 z"
       style="fill:#000000;stroke:none;stroke-width:5.29788876;stroke-linecap:butt;stroke-linejoin:miter;stroke-miterlimit:22.9260006;stroke-dasharray:none;stroke-opacity:1"
       id="path1162"
       inkscape:connector-curvature="0" />
  </g>
</svg>
