<?xml version="1.0" encoding="utf-8"?>
<!-- Generator: Adobe Illustrator 16.0.3, SVG Export Plug-In . SVG Version: 6.00 Build 0)  -->
<!DOCTYPE svg PUBLIC "-//W3C//DTD SVG 1.1//EN" "http://www.w3.org/Graphics/SVG/1.1/DTD/svg11.dtd">
<svg version="1.1"
	 id="svg30" xmlns:rdf="http://www.w3.org/1999/02/22-rdf-syntax-ns#" xmlns:svg="http://www.w3.org/2000/svg" xmlns:sodipodi="http://sodipodi.sourceforge.net/DTD/sodipodi-0.dtd" xmlns:dc="http://purl.org/dc/elements/1.1/" xmlns:inkscape="http://www.inkscape.org/namespaces/inkscape" xmlns:cc="http://creativecommons.org/ns#" inkscape:version="0.92.2 (5c3e80d, 2017-08-06)" sodipodi:docname="66.svg"
	 xmlns="http://www.w3.org/2000/svg" xmlns:xlink="http://www.w3.org/1999/xlink" x="0px" y="0px" width="2562.52px"
	 height="2562.52px" viewBox="0 0 2562.52 2562.52" enable-background="new 0 0 2562.52 2562.52" xml:space="preserve">
<g id="layer1" transform="translate(0,6070)" inkscape:label="Layer 1" inkscape:groupmode="layer">
	<circle id="path32" fill="#BE141E" cx="1281.26" cy="-4788.74" r="1275.591"/>
	<circle id="path5072" fill="#FFFFFF" cx="1281.26" cy="-4788.74" r="1020.472"/>
	<path id="path1104" inkscape:connector-curvature="0" d="M1322.314-4811.607c-4.658-181.145,37.318-530.526,362.877-527.537
		c339.202,3.154,382.636,347.145,382.636,527.537c0,199.773-45.997,547.016-382.636,542.897
		C1335.028-4272.975,1326.48-4649.529,1322.314-4811.607 M1900.195-4811.607c-1.424-78.057-27.991-365.934-215.004-370.101
		c-181.34-4.036-199.086,296.767-199.086,370.101c0,74.479,16.454,378.32,199.086,382.732
		C1873.396-4424.35,1901.73-4727.65,1900.195-4811.607"/>
</g>
<path id="path1100_1_" inkscape:connector-curvature="0" d="M492.486,1550.642l162.878-48.773
	c-0.506,44.115,93.269,179.412,210.426,152.107c193.286-45.064,229.562-339.398-2.646-339.398h-10.916l-6.274-138.955h9.02
	c194.151,0,126.487-173.726,123.629-178.334c-104.593-168.678-299.758-34.918-282.65,28.791l-157.958-58.056
	c52.076-249.039,509.545-352.144,617.324,30.147c20.476,72.631-4.216,188.252-50.064,245.899
	c247.484,259.087-48.76,581.265-253.467,572.717C616.77,1806.952,492.486,1628.241,492.486,1550.642"/>
<path id="path1100_2_" inkscape:connector-curvature="0" d="M1184.068,1550.642c0,77.6-124.283,256.311-359.301,266.146
	c-204.707,8.548-500.951-313.63-253.467-572.717c-45.849-57.647-70.54-173.269-50.064-245.899
	c107.779-382.291,565.248-279.187,617.324-30.147l-157.958,58.056c17.107-63.709-178.058-197.469-282.65-28.791
	c-2.858,4.608-70.522,178.334,123.629,178.334h33.393l8.171,138.955H813.41c-232.207,0-195.932,294.334-2.646,339.398
	c117.157,27.305,210.932-107.992,210.426-152.107L1184.068,1550.642"/>
</svg>
