<?xml version="1.0" encoding="utf-8"?>
<!-- Generator: Adobe Illustrator 16.0.3, SVG Export Plug-In . SVG Version: 6.00 Build 0)  -->
<!DOCTYPE svg PUBLIC "-//W3C//DTD SVG 1.1//EN" "http://www.w3.org/Graphics/SVG/1.1/DTD/svg11.dtd">
<svg version="1.1"
	 id="svg30" xmlns:rdf="http://www.w3.org/1999/02/22-rdf-syntax-ns#" xmlns:svg="http://www.w3.org/2000/svg" xmlns:sodipodi="http://sodipodi.sourceforge.net/DTD/sodipodi-0.dtd" xmlns:dc="http://purl.org/dc/elements/1.1/" xmlns:inkscape="http://www.inkscape.org/namespaces/inkscape" xmlns:cc="http://creativecommons.org/ns#" inkscape:version="0.92.2 (5c3e80d, 2017-08-06)" sodipodi:docname="66.svg"
	 xmlns="http://www.w3.org/2000/svg" xmlns:xlink="http://www.w3.org/1999/xlink" x="0px" y="0px" width="2562.52px"
	 height="2562.52px" viewBox="0 0 2562.52 2562.52" enable-background="new 0 0 2562.52 2562.52" xml:space="preserve">
<g id="layer1" transform="translate(0,6070)" inkscape:label="Layer 1" inkscape:groupmode="layer">
	<circle id="path32" fill="#BE141E" cx="1281.26" cy="-4788.74" r="1275.591"/>
	<circle id="path5072" fill="#FFFFFF" cx="1281.26" cy="-4788.74" r="1020.472"/>
	<path id="path285" inkscape:connector-curvature="0" d="M1709.081-5202.178c-23.034,0-43.765,8.342-61.853,24.636
		c-18.146,16.56-32.38,46.124-42.341,88.621c-13.026,55.22-19.781,147.994-19.781,278.566c0,130.627,6.072,220.34,17.705,269.046
		c11.807,48.96,26.71,81.338,44.609,97.722c18.142,16.048,38.626,24.318,61.66,24.318c23.23,0,43.923-8.271,62.051-24.83
		c18.158-16.365,32.378-45.876,42.353-88.391c13.008-54.711,19.765-147.238,19.765-277.865c0-130.572-6.055-220.265-17.703-269.204
		c-11.827-48.727-26.714-81.423-44.663-97.983C1752.793-5193.836,1732.312-5202.178,1709.081-5202.178 M1709.081-5379.209
		c96.926,0,172.559,38.681,226.97,115.597c64.882,91.014,97.437,242.089,97.437,453.256c0,210.432-32.817,361.821-98.139,454.085
		c-54.006,75.914-129.342,113.784-226.268,113.784c-97.017,0-175.396-41.511-234.925-124.959
		c-59.551-83.165-89.289-231.67-89.289-445.231c0-209.657,32.767-360.483,98.157-452.448
		C1536.961-5341.076,1612.277-5379.209,1709.081-5379.209 M1217.48-4459.689v198.271H546.368
		c7.408-74.913,29.036-145.938,65.532-213.069c36.304-67.135,108.153-155.967,215.128-266.919
		c86.509-89.378,139.301-150.3,158.853-182.151c26.271-44.064,39.522-87.635,39.522-130.643c0-47.444-11.384-83.939-34.437-109.615
		c-22.964-25.639-54.64-38.362-95.132-38.362c-39.981,0-71.569,13.461-95.325,40.174c-23.458,26.96-37.219,71.518-40.933,133.706
		l-190.667-21.241c11.332-117.357,46.984-201.595,106.956-252.928c59.955-51.032,134.884-76.74,224.861-76.74
		c98.615,0,176.043,29.844,232.32,88.955c56.312,59.355,84.432,132.947,84.432,221.04c0,49.993-8.112,97.701-24.144,143.015
		c-16.102,45.384-41.636,92.79-76.514,142.311c-23.316,32.905-65.145,80.296-125.398,142.028
		c-60.43,61.679-98.792,102.858-114.841,123.11c-16.084,20.185-29.282,39.877-39.312,59.059H1217.48z"/>
</g>
</svg>
