<?xml version="1.0" encoding="utf-8"?>
<!-- Generator: Adobe Illustrator 16.0.3, SVG Export Plug-In . SVG Version: 6.00 Build 0)  -->
<!DOCTYPE svg PUBLIC "-//W3C//DTD SVG 1.1//EN" "http://www.w3.org/Graphics/SVG/1.1/DTD/svg11.dtd">
<svg version="1.1"
	 id="svg30" xmlns:rdf="http://www.w3.org/1999/02/22-rdf-syntax-ns#" xmlns:svg="http://www.w3.org/2000/svg" xmlns:sodipodi="http://sodipodi.sourceforge.net/DTD/sodipodi-0.dtd" xmlns:dc="http://purl.org/dc/elements/1.1/" xmlns:inkscape="http://www.inkscape.org/namespaces/inkscape" xmlns:cc="http://creativecommons.org/ns#" inkscape:version="0.92.2 (5c3e80d, 2017-08-06)" sodipodi:docname="66.svg"
	 xmlns="http://www.w3.org/2000/svg" xmlns:xlink="http://www.w3.org/1999/xlink" x="0px" y="0px" width="2562.52px"
	 height="2562.52px" viewBox="0 0 2562.52 2562.52" enable-background="new 0 0 2562.52 2562.52" xml:space="preserve">
<g id="layer1" transform="translate(0,6069.9998)" inkscape:label="Layer 1" inkscape:groupmode="layer">
	<circle id="path32" fill="#BE141E" cx="1281.26" cy="-4788.74" r="1275.591"/>
	<circle id="path5072" fill="#FFFFFF" cx="1281.26" cy="-4788.74" r="1020.472"/>
	<path id="path285" inkscape:connector-curvature="0" d="M1923.307-4169.116h-102.07v-219.487c0-46.46-2.225-76.457-6.589-90.133
		c-4.327-13.543-11.535-24.196-21.315-31.799c-9.799-7.452-21.597-11.338-35.356-11.338c-17.72,0-33.62,5.396-47.633,16.162
		c-14.004,10.925-23.69,25.173-28.899,43.024c-5.209,17.814-7.818,50.722-7.818,98.796v194.774h-102.08v-430.012h94.76v63.186
		c33.742-48.675,76.175-73.013,127.263-73.013c22.45,0,43.155,4.571,61.759,13.563c18.611,9.113,32.766,20.602,42.302,34.689
		c9.583,14.098,16.256,30.007,19.982,47.803c3.839,17.852,5.696,43.297,5.696,76.457V-4169.116z M1177.856-4384.184
		c0,42.696,9.057,75.313,27.294,97.988c18.124,22.667,40.575,34.005,67.249,34.005c26.675,0,48.994-11.338,66.949-34.005
		c18.124-22.676,27.191-55.563,27.191-98.833c0-42.011-9.067-74.485-27.191-97.152c-17.955-22.667-40.274-34.005-66.949-34.005
		c-26.674,0-49.125,11.338-67.249,34.005C1186.914-4459.514,1177.856-4426.748,1177.856-4384.184 M1073.186-4390.274
		c0-37.74,8.429-74.383,25.051-109.749c16.754-35.243,40.443-62.35,71.079-80.877c30.645-18.659,64.875-28.055,102.709-28.055
		c58.286,0,106.191,21.165,143.51,63.448c37.317,42.302,55.93,95.651,55.93,160.188c0,64.996-18.855,118.881-56.418,161.736
		c-37.722,42.865-85.102,64.134-142.271,64.134c-35.488,0-69.099-8.86-101.236-26.675c-32.137-17.824-56.549-43.944-73.303-78.372
		C1081.614-4298.903,1073.186-4340.802,1073.186-4390.274 M797.214-4169.116v-493.169H639.213v-100.494h423.329v100.494H904.879
		v493.169H797.214z"/>
	<path id="path1192" inkscape:connector-curvature="0" d="M1365.775-4957.096c56.222,44.59,118.006,66.792,184.975,66.792
		c75.219,0,135.566-28.835,181.04-86.659c42.461-53.195,63.766-118.575,63.766-195.722c0-71.651-18.644-129.65-56.058-174.268
		c-39.924-47.102-94.909-70.551-164.932-70.551c-24.169,0-49.6,5.387-76.808,16.108l8.414-161.146h259.474v-108.345h-362.269
		l-18.441,382.312l105.129,13.787c28.646-25.24,59.438-37.792,92.222-37.792c35.813,0,62.856,14.167,81.286,42.284
		c15.78,23.992,23.828,54.986,23.828,92.739c0,49.273-12.01,90.091-36.191,122.877c-26.502,36.856-63.916,55.339-111.912,55.339
		c-35.474,0-68.951-12.024-100.65-35.988L1365.775-4957.096z"/>
	<path id="path281" inkscape:connector-curvature="0" stroke="#000000" stroke-width="74.8" stroke-miterlimit="22.926" d="
		M1038.6-5177.993v-312.603l-216.766,312.603H1038.6z M1038.6-4933.841v-165.989H738.141v-78.164l316.108-449.357h69.494v449.357
		h54.189v78.164h-54.189v165.989H1038.6z"/>
	<path id="path299" inkscape:connector-curvature="0" d="M1229.915-4974.376h87.888v81.07h-87.888V-4974.376z"/>
</g>
</svg>
