<?xml version="1.0" encoding="UTF-8" standalone="no"?>
<!-- Created with Inkscape (http://www.inkscape.org/) -->

<svg
   xmlns:dc="http://purl.org/dc/elements/1.1/"
   xmlns:cc="http://creativecommons.org/ns#"
   xmlns:rdf="http://www.w3.org/1999/02/22-rdf-syntax-ns#"
   xmlns:svg="http://www.w3.org/2000/svg"
   xmlns="http://www.w3.org/2000/svg"
   xmlns:sodipodi="http://sodipodi.sourceforge.net/DTD/sodipodi-0.dtd"
   xmlns:inkscape="http://www.inkscape.org/namespaces/inkscape"
   width="90.400002cm"
   height="90.400002cm"
   viewBox="0 0 9040.0002 9039.9996"
   version="1.1"
   id="svg30"
   inkscape:version="0.92.2 (5c3e80d, 2017-08-06)"
   sodipodi:docname="66.svg">
  <defs
     id="defs24" />
  <sodipodi:namedview
     id="base"
     pagecolor="#ffffff"
     bordercolor="#666666"
     borderopacity="1.0"
     inkscape:pageopacity="0.0"
     inkscape:pageshadow="2"
     inkscape:zoom="0.12374369"
     inkscape:cx="3720.5479"
     inkscape:cy="868.28943"
     inkscape:document-units="cm"
     inkscape:current-layer="layer1"
     showgrid="false"
     units="cm"
     inkscape:window-width="1920"
     inkscape:window-height="1057"
     inkscape:window-x="-8"
     inkscape:window-y="-8"
     inkscape:window-maximized="1" />
  <metadata
     id="metadata27">
    <rdf:RDF>
      <cc:Work
         rdf:about="">
        <dc:format>image/svg+xml</dc:format>
        <dc:type
           rdf:resource="http://purl.org/dc/dcmitype/StillImage" />
        <dc:title></dc:title>
      </cc:Work>
    </rdf:RDF>
  </metadata>
  <g
     inkscape:label="Layer 1"
     inkscape:groupmode="layer"
     id="layer1"
     transform="translate(0,6069.9998)">
    <circle
       id="path32"
       cx="4520"
       cy="-1549.9999"
       style="fill:#be141e;fill-opacity:1;stroke:none;stroke-width:7.43594885"
       r="4500" />
    <circle
       style="fill:#ffffff;fill-opacity:1;stroke:none;stroke-width:4.06587029"
       id="path5072"
       cx="4520"
       cy="-1549.9999"
       r="3600" />
    <path
       d="m 7015.7073,275.00023 h 285.0641 V -1150.6387 h -285.0641 z m -1754.1884,0 h 329.3151 l 293.6781,-476.01053 283.7879,474.67118 333.6221,1.33935 -443.3726,-745.79227 403.4286,-679.87766 h -339.3012 l -238.1648,407.83041 -249.427,-407.83041 h -334.994 l 410.5112,675.9215 z m -1400.5941,-620.02633 173.973,-399.1206 159.6487,399.1206 z m -553.1874,620.02633 h 303.6959 l 134.0622,-334.961848 h 564.4804 l 134.0295,334.961848 h 303.6959 l -573.127,-1425.66993 h -293.7098 z m -1176.4031,0 h 273.4185 V -866.91458 h 389.1681 V -1150.6697 H 1739.2 v 283.75512 h 392.1343 z m 4887.053,-2924.52963 c 0,120.7569 -21.9819,221.8616 -65.5312,303.6646 -56.2153,104.4851 -139.7085,156.6808 -250.799,156.6808 -115.1102,0 -199.2736,-50.536 -252.4899,-152.3434 -39.9121,-77.1432 -59.8522,-178.2799 -59.8522,-303.6955 0,-297.3472 107.7724,-446.0208 323.6362,-446.0208 203.2299,0 305.0361,147.0149 305.0361,441.7143 m 282.416,4.3065 c 0,-204.2186 -49.8981,-372.8636 -149.7263,-505.9371 -112.0796,-148.3223 -268.091,-222.4994 -467.6838,-222.4994 -192.9246,0 -340.9284,76.8259 -444.7127,230.8269 -90.1612,133.0725 -135.3694,299.0378 -135.3694,497.6096 0,207.2495 46.2293,377.5543 138.3686,510.5958 106.4643,154.001 259.7638,230.8578 460.3774,230.8578 199.5608,0 352.5734,-77.4955 459.0376,-232.5175 93.1283,-133.0405 139.7086,-302.6756 139.7086,-508.9361 m -2571.3829,718.4831 h 1054.785 v -265.1249 h -775.3678 v -1160.5148 h -279.4172 z m -601.4899,-722.7896 c 0,120.7569 -21.9817,221.8616 -65.5633,303.6646 -56.1831,104.4851 -139.6765,156.6808 -250.7983,156.6808 -115.0785,0 -199.242,-50.536 -252.458,-152.3434 -39.9442,-77.1432 -59.8847,-178.2799 -59.8847,-303.6955 0,-297.3472 107.8046,-446.0208 323.6681,-446.0208 203.2302,0 305.0362,147.0149 305.0362,441.7143 m 282.3844,4.3065 c 0,-204.2186 -49.8986,-372.8636 -149.6942,-505.9371 -112.1122,-148.3223 -268.0918,-222.4994 -467.6837,-222.4994 -192.925,0 -340.9289,76.8259 -444.7127,230.8269 -90.1613,133.0725 -135.4015,299.0378 -135.4015,497.6096 0,207.2495 46.2613,377.5543 138.4004,510.5958 106.4644,154.001 259.7634,230.8578 460.3457,230.8578 199.5928,0 352.6051,-77.4955 459.0369,-232.5175 93.1286,-133.0405 139.7091,-302.6756 139.7091,-508.9361 M 1739.2,-2141.9336 c 173.9412,158.6917 367.1854,238.1643 580.05,238.1643 257.818,0 430.7699,-76.8568 518.9534,-230.8578 37.2321,-65.8516 55.5455,-136.36 55.5455,-212.5471 0,-250.1286 -168.0077,-404.7993 -504.5974,-464.6847 -41.5703,-5.6469 -83.4924,-11.9633 -125.4146,-18.6002 -49.2285,-8.6768 -89.141,-20.3228 -119.7368,-35.6045 -39.9118,-19.9724 -59.8839,-51.9082 -59.8839,-95.4889 0,-86.4608 78.5157,-129.6912 235.1338,-129.6912 120.8212,0 232.55,38.2214 335.026,115.3985 l 173.9096,-225.18 c -18.951,-14.2927 -48.845,-35.6055 -89.7787,-64.1919 -109.1123,-73.1881 -260.4652,-109.7826 -453.3901,-109.7826 -130.0739,0 -241.1325,36.5945 -333.2716,109.7826 -99.1579,78.8349 -148.3865,181.9496 -148.3865,309.3434 0,58.8634 14.6445,117.4075 44.2834,175.2818 47.5374,94.1167 138.6556,161.6579 273.7061,202.5908 110.1334,25.5874 220.9044,51.2066 331.9946,76.8259 107.4539,32.2551 160.9889,87.4818 160.9889,165.3276 0,96.7973 -100.434,145.3551 -302.0372,145.3551 -149.3434,0 -273.7378,-50.2165 -373.5658,-151.0349 z"
       style="fill:#000000;fill-opacity:1;fill-rule:nonzero;stroke:none;stroke-width:31.90419769"
       id="path1062"
       inkscape:connector-curvature="0" />
  </g>
</svg>
