<?xml version="1.0" encoding="UTF-8" standalone="no"?>
<!-- Created with Inkscape (http://www.inkscape.org/) -->

<svg
   xmlns:dc="http://purl.org/dc/elements/1.1/"
   xmlns:cc="http://creativecommons.org/ns#"
   xmlns:rdf="http://www.w3.org/1999/02/22-rdf-syntax-ns#"
   xmlns:svg="http://www.w3.org/2000/svg"
   xmlns="http://www.w3.org/2000/svg"
   xmlns:sodipodi="http://sodipodi.sourceforge.net/DTD/sodipodi-0.dtd"
   xmlns:inkscape="http://www.inkscape.org/namespaces/inkscape"
   width="90.400002cm"
   height="124.4cm"
   viewBox="0 0 9040 12440"
   version="1.1"
   id="svg30"
   inkscape:version="0.92.2 (5c3e80d, 2017-08-06)"
   sodipodi:docname="66.svg">
  <defs
     id="defs24" />
  <sodipodi:namedview
     id="base"
     pagecolor="#ffffff"
     bordercolor="#666666"
     borderopacity="1.0"
     inkscape:pageopacity="0.0"
     inkscape:pageshadow="2"
     inkscape:zoom="0.087500002"
     inkscape:cx="5636.2022"
     inkscape:cy="1998.4079"
     inkscape:document-units="cm"
     inkscape:current-layer="layer1"
     showgrid="false"
     units="cm"
     inkscape:window-width="1920"
     inkscape:window-height="1057"
     inkscape:window-x="-8"
     inkscape:window-y="-8"
     inkscape:window-maximized="1"
     inkscape:measure-start="0,0"
     inkscape:measure-end="0,0"
     fit-margin-top="0"
     fit-margin-left="0"
     fit-margin-right="0"
     fit-margin-bottom="0"
     inkscape:snap-global="false" />
  <metadata
     id="metadata27">
    <rdf:RDF>
      <cc:Work
         rdf:about="">
        <dc:format>image/svg+xml</dc:format>
        <dc:type
           rdf:resource="http://purl.org/dc/dcmitype/StillImage" />
        <dc:title></dc:title>
      </cc:Work>
    </rdf:RDF>
  </metadata>
  <g
     inkscape:label="Layer 1"
     inkscape:groupmode="layer"
     id="layer1"
     transform="translate(-5035.79,9478.0277)">
    <circle
       id="path32"
       cx="9555.79"
       cy="-1558.0278"
       style="fill:#be141e;fill-opacity:1;stroke:none;stroke-width:7.43594885"
       r="4500" />
    <circle
       style="fill:#ffffff;fill-opacity:1;stroke:none;stroke-width:4.06587029"
       id="path5072"
       cx="9555.79"
       cy="-1558.0278"
       r="3600" />
    <path
       d="m 6939.7583,79.728756 c 284.95,226.006804 598.098,338.529704 937.521,338.529704 381.241,0 687.099,-146.156 917.576,-439.220004 215.208,-269.612596 323.191,-600.989596 323.191,-991.995856 0,-363.1501 -94.501,-657.1111 -284.124,-883.2549 -202.348,-238.7305 -481.038,-357.5803 -835.935,-357.5803 -122.496,0 -251.388,27.3053 -389.289,81.6408 l 42.644,-816.7467 h 1315.116 v -549.129 h -1836.116 l -93.469,1937.7011 532.828,69.8781 c 145.191,-127.9265 301.252,-191.5468 467.42,-191.5468 181.507,0 318.582,71.8051 411.985,214.3132 79.989,121.5996 120.774,278.6914 120.774,470.0341 0,249.73416 -60.87,456.62156 -183.433,622.79006 -134.324,186.8019 -323.947,280.4803 -567.216,280.4803 -179.787,0 -349.466,-60.9403 -510.133,-182.402 z"
       style="fill:#000000;fill-opacity:1;fill-rule:nonzero;stroke:none;stroke-width:68.77864075"
       id="path1192"
       inkscape:connector-curvature="0" />
    <path
       d="m 11689.863,-1483.0586 c 0,323.9472 -32.945,600.84956 -99.109,830.08836 -102.549,354.4863 -272.225,532.1404 -508.893,532.1404 -237.424,0 -406.069,-191.9607 -505.179,-573.9573 -61.557,-240.1754 -91.89,-528.42656 -91.89,-865.02836 0,-964.0707 199.046,-1446.2085 597.069,-1446.2085 405.381,0 608.002,508.0681 608.002,1522.9654 m 524.919,-88.3806 c 0,-1311.3332 -373.193,-1966.5203 -1117.654,-1966.5203 -759.66,0 -1139.9374,655.1871 -1139.9374,1966.5203 0,1329.28366 380.2774,1993.41156 1139.9374,1993.41156 744.461,0 1117.654,-664.1279 1117.654,-1993.41156"
       style="fill:#000000;fill-opacity:1;fill-rule:nonzero;stroke:none;stroke-width:68.77864075"
       id="path1196"
       inkscape:connector-curvature="0" />
    <rect
       style="fill:#be141e;fill-opacity:1;stroke:none;stroke-width:1.83630848"
       id="rect819"
       width="9000"
       height="2770"
       x="5055.79"
       y="-9458.0273"
       rx="520"
       ry="520" />
    <rect
       rx="350"
       y="-9288.0264"
       x="5225.79"
       height="2430"
       width="8660"
       id="rect821"
       style="fill:#ffffff;fill-opacity:1;stroke:none;stroke-width:1.68712234" />
    <path
       d="m 5635.7897,-7681.294 241.151,-93.0486 c 123.8,362.5852 535.203,236.5627 563.232,107.8865 92.69,-425.3811 -448.105,-264.7348 -642.373,-500.365 -100.216,-121.8649 -107.385,-351.8317 -26.955,-481.2254 219.646,-353.6951 766.821,-285.4514 890.263,108.8904 l -255.128,69.8226 c -5.234,-71.9014 -134.912,-165.8095 -212.763,-158.5695 -250.326,23.3704 -339.073,367.6044 103.442,403.0877 238.642,19.1418 640.582,356.5643 277.565,793.7029 -226.453,272.4058 -811.407,184.3029 -938.434,-250.1816"
       style="fill:#000000;fill-opacity:1;fill-rule:evenodd;stroke:none;stroke-width:71.68549347"
       id="path2111"
       inkscape:connector-curvature="0" />
    <path
       d="m 7044.5597,-7276.0564 554.128,-1598.0859 h 257.997 l 581.728,1588.1208 h -292.763 l -163.014,-439.2172 h -494.126 l -167.316,449.1823 z m 527.749,-705.1713 h 326.24 l -173.98,-445.9554 z"
       style="fill:#000000;fill-opacity:1;fill-rule:evenodd;stroke:none;stroke-width:71.68549347"
       id="path2115"
       inkscape:connector-curvature="0" />
    <path
       d="m 8765.5917,-7276.0564 v -1598.0859 h 261.51 v 1363.3152 h 738.289 v 234.7707 z"
       style="fill:#000000;fill-opacity:1;fill-rule:evenodd;stroke:none;stroke-width:71.68549347"
       id="path2119"
       inkscape:connector-curvature="0" />
    <path
       d="m 10092.354,-8874.0692 h 252.189 v 1606.0414 h -252.189 z"
       style="fill:#000000;fill-opacity:1;fill-rule:evenodd;stroke:none;stroke-width:71.68549347"
       id="path2121"
       inkscape:connector-curvature="0" />
    <path
       d="m 10671.78,-7276.0564 v -1598.0859 l 449.611,3.2269 c 434.7,3.1537 637.07,288.032 633.412,787.3221 -2.649,370.112 -152.76,807.5369 -634.487,807.5369 z m 257.064,-250.1103 h 193.049 c 182.868,0 348.392,-140.3606 349.753,-557.4266 1.219,-380.4366 -172.619,-534.9177 -340.578,-534.9177 h -202.224 z"
       style="fill:#000000;fill-opacity:1;fill-rule:evenodd;stroke:none;stroke-width:71.68549347"
       id="path2125"
       inkscape:connector-curvature="0" />
    <path
       d="m 12081.982,-7276.0564 553.986,-1598.0859 h 258.139 l 581.728,1588.1208 h -292.763 l -163.084,-439.2172 h -494.056 l -167.386,449.1823 z m 527.678,-705.1713 h 326.24 l -174.051,-445.9554 z"
       style="fill:#000000;fill-opacity:1;fill-rule:evenodd;stroke:none;stroke-width:71.68549347"
       id="path2129"
       inkscape:connector-curvature="0" />
  </g>
</svg>
