<?xml version="1.0" encoding="utf-8"?>
<!-- Generator: Adobe Illustrator 16.0.3, SVG Export Plug-In . SVG Version: 6.00 Build 0)  -->
<!DOCTYPE svg PUBLIC "-//W3C//DTD SVG 1.1//EN" "http://www.w3.org/Graphics/SVG/1.1/DTD/svg11.dtd">
<svg version="1.1"
	 id="svg30" xmlns:rdf="http://www.w3.org/1999/02/22-rdf-syntax-ns#" xmlns:svg="http://www.w3.org/2000/svg" xmlns:sodipodi="http://sodipodi.sourceforge.net/DTD/sodipodi-0.dtd" xmlns:dc="http://purl.org/dc/elements/1.1/" xmlns:inkscape="http://www.inkscape.org/namespaces/inkscape" xmlns:cc="http://creativecommons.org/ns#" inkscape:version="0.92.2 (5c3e80d, 2017-08-06)" sodipodi:docname="66.svg"
	 xmlns="http://www.w3.org/2000/svg" xmlns:xlink="http://www.w3.org/1999/xlink" x="0px" y="0px" width="2562.52px"
	 height="2562.52px" viewBox="0 0 2562.52 2562.52" enable-background="new 0 0 2562.52 2562.52" xml:space="preserve">
<g id="layer1" transform="translate(0,6069.9998)" inkscape:label="Layer 1" inkscape:groupmode="layer">
	<circle id="path32" fill="#BE141E" cx="1281.26" cy="-4788.74" r="1275.591"/>
	<circle id="path5072" fill="#FFFFFF" cx="1281.26" cy="-4788.74" r="1020.472"/>
	<path id="path285" inkscape:connector-curvature="0" d="M1923.307-4169.116h-102.07v-219.487c0-46.46-2.225-76.457-6.589-90.133
		c-4.327-13.543-11.535-24.196-21.315-31.799c-9.799-7.452-21.597-11.338-35.356-11.338c-17.72,0-33.62,5.396-47.633,16.162
		c-14.004,10.925-23.69,25.173-28.899,43.024c-5.209,17.814-7.818,50.722-7.818,98.796v194.774h-102.08v-430.012h94.76v63.186
		c33.742-48.675,76.175-73.013,127.263-73.013c22.45,0,43.155,4.571,61.759,13.563c18.611,9.113,32.766,20.602,42.302,34.689
		c9.583,14.098,16.256,30.007,19.982,47.803c3.839,17.852,5.696,43.297,5.696,76.457V-4169.116z M1177.856-4384.184
		c0,42.696,9.057,75.313,27.294,97.988c18.124,22.667,40.575,34.005,67.249,34.005c26.675,0,48.994-11.338,66.949-34.005
		c18.124-22.676,27.191-55.563,27.191-98.833c0-42.011-9.067-74.485-27.191-97.152c-17.955-22.667-40.274-34.005-66.949-34.005
		c-26.674,0-49.125,11.338-67.249,34.005C1186.914-4459.514,1177.856-4426.748,1177.856-4384.184 M1073.186-4390.274
		c0-37.74,8.429-74.383,25.051-109.749c16.754-35.243,40.443-62.35,71.079-80.877c30.645-18.659,64.875-28.055,102.709-28.055
		c58.286,0,106.191,21.165,143.51,63.448c37.317,42.302,55.93,95.651,55.93,160.188c0,64.996-18.855,118.881-56.418,161.736
		c-37.722,42.865-85.102,64.134-142.271,64.134c-35.488,0-69.099-8.86-101.236-26.675c-32.137-17.824-56.549-43.944-73.303-78.372
		C1081.614-4298.903,1073.186-4340.802,1073.186-4390.274 M797.214-4169.116v-493.169H639.213v-100.494h423.329v100.494H904.879
		v493.169H797.214z"/>
	<path id="path1192" inkscape:connector-curvature="0" d="M1088.127-4993.324c50.529,40.076,106.058,60.029,166.247,60.029
		c67.603,0,121.84-25.916,162.71-77.885c38.162-47.81,57.31-106.57,57.31-175.906c0-64.396-16.757-116.523-50.382-156.624
		c-35.882-42.333-85.301-63.408-148.234-63.408c-21.722,0-44.577,4.842-69.031,14.478l7.562-144.83h233.204v-97.375h-325.59
		l-16.575,343.604l94.485,12.392c25.746-22.685,53.419-33.966,82.885-33.966c32.187,0,56.492,12.732,73.056,38.003
		c14.184,21.563,21.415,49.419,21.415,83.35c0,44.284-10.793,80.97-32.526,110.437c-23.819,33.125-57.444,49.736-100.582,49.736
		c-31.881,0-61.969-10.807-90.46-32.345L1088.127-4993.324z"/>
</g>
</svg>
