<?xml version="1.0" encoding="utf-8"?>
<!-- Generator: Adobe Illustrator 16.0.3, SVG Export Plug-In . SVG Version: 6.00 Build 0)  -->
<!DOCTYPE svg PUBLIC "-//W3C//DTD SVG 1.1//EN" "http://www.w3.org/Graphics/SVG/1.1/DTD/svg11.dtd">
<svg version="1.1"
	 id="svg30" xmlns:rdf="http://www.w3.org/1999/02/22-rdf-syntax-ns#" xmlns:svg="http://www.w3.org/2000/svg" xmlns:sodipodi="http://sodipodi.sourceforge.net/DTD/sodipodi-0.dtd" xmlns:dc="http://purl.org/dc/elements/1.1/" xmlns:inkscape="http://www.inkscape.org/namespaces/inkscape" xmlns:cc="http://creativecommons.org/ns#" inkscape:version="0.92.2 (5c3e80d, 2017-08-06)" sodipodi:docname="66.svg"
	 xmlns="http://www.w3.org/2000/svg" xmlns:xlink="http://www.w3.org/1999/xlink" x="0px" y="0px" width="2562.52px"
	 height="2562.52px" viewBox="0 0 2562.52 2562.52" enable-background="new 0 0 2562.52 2562.52" xml:space="preserve">
<g id="layer1" transform="translate(0,6070)" inkscape:label="Layer 1" inkscape:groupmode="layer">
	<circle id="path32" fill="#BE141E" cx="1281.26" cy="-4788.74" r="1275.591"/>
	<circle id="path5072" fill="#FFFFFF" cx="1281.26" cy="-4788.74" r="1020.472"/>
	<path id="path1319" inkscape:connector-curvature="0" sodipodi:nodetypes="cccc" d="M875.905-3929.843l405.359-413.857
		l405.35,413.857H875.905z"/>
	<path id="path281" inkscape:connector-curvature="0" stroke="#000000" stroke-width="74.8" stroke-miterlimit="22.926" d="
		M1063.604-4706.372v-281.445l-195.16,281.445H1063.604z M1063.604-4486.555v-149.444H793.092v-70.373l284.602-404.569h62.566
		v404.569h48.788v70.373h-48.787v149.444H1063.604z"/>
	<path id="path297" inkscape:connector-curvature="0" stroke="#000000" stroke-width="28.4313" stroke-miterlimit="22.926" d="
		M1653.311-5072.486c-8.697,0-16.513,3.016-23.389,8.914c-6.828,5.993-12.183,16.683-15.978,32.04
		c-4.932,19.97-7.477,53.521-7.477,100.75c0,47.237,2.272,79.653,6.688,97.294c4.472,17.706,10.116,29.409,16.88,35.327
		c6.847,5.814,14.578,8.801,23.275,8.801c8.801,0,16.617-2.986,23.492-8.988c6.838-5.908,12.192-16.589,15.968-31.956
		c4.932-19.781,7.496-53.239,7.496-100.478c0-47.229-2.302-79.663-6.697-97.369c-4.472-17.611-10.106-29.428-16.87-35.421
		C1669.861-5069.471,1662.111-5072.486,1653.311-5072.486L1653.311-5072.486z M1653.311-5136.491
		c36.661,0,65.226,13.978,85.787,41.79c24.535,32.904,36.83,87.553,36.83,163.919c0,76.103-12.38,130.846-37.084,164.21
		c-20.392,27.456-48.872,41.133-85.533,41.133c-36.642,0-66.268-15.011-88.783-45.162c-22.487-30.096-33.73-83.796-33.73-161.026
		c0-75.82,12.38-130.356,37.093-163.618C1588.273-5122.701,1616.753-5136.491,1653.311-5136.491L1653.311-5136.491z"/>
	<path id="path299" inkscape:connector-curvature="0" d="M1281.26-4653.811h430.866v81.07H1281.26V-4653.811z"/>
	<path id="path1910" inkscape:connector-curvature="0" sodipodi:nodetypes="cccc" d="M875.905-5647.638l405.359,413.858
		l405.35-413.858H875.905z"/>
	<path id="path1514" inkscape:connector-curvature="0" d="M1338.178-4716.523h59.197c0-109.278,25.851-212.745,77.438-310.514
		c7.695-11.204,18.496-28.211,32.585-51.03v-67.341h-251.85v67.341h177.437C1371.019-4970.297,1339.39-4849.715,1338.178-4716.523"
		/>
</g>
</svg>
