<?xml version="1.0" encoding="UTF-8" standalone="no"?>
<!-- Created with Inkscape (http://www.inkscape.org/) -->

<svg
   xmlns:dc="http://purl.org/dc/elements/1.1/"
   xmlns:cc="http://creativecommons.org/ns#"
   xmlns:rdf="http://www.w3.org/1999/02/22-rdf-syntax-ns#"
   xmlns:svg="http://www.w3.org/2000/svg"
   xmlns="http://www.w3.org/2000/svg"
   xmlns:sodipodi="http://sodipodi.sourceforge.net/DTD/sodipodi-0.dtd"
   xmlns:inkscape="http://www.inkscape.org/namespaces/inkscape"
   width="121.4cm"
   height="199.39999cm"
   viewBox="0 0 1214 1993.9998"
   version="1.1"
   id="svg8"
   inkscape:version="0.92.2 (5c3e80d, 2017-08-06)"
   sodipodi:docname="66.svg">
  <defs
     id="defs2" />
  <sodipodi:namedview
     id="base"
     pagecolor="#ffffff"
     bordercolor="#666666"
     borderopacity="1.0"
     inkscape:pageopacity="0.0"
     inkscape:pageshadow="2"
     inkscape:zoom="0.085115818"
     inkscape:cx="4115.5515"
     inkscape:cy="3825.2558"
     inkscape:document-units="cm"
     inkscape:current-layer="layer1"
     showgrid="false"
     units="cm"
     fit-margin-top="0"
     fit-margin-left="0"
     fit-margin-right="0"
     fit-margin-bottom="0"
     inkscape:window-width="1920"
     inkscape:window-height="1057"
     inkscape:window-x="-8"
     inkscape:window-y="-8"
     inkscape:window-maximized="1"
     showguides="false" />
  <metadata
     id="metadata5">
    <rdf:RDF>
      <cc:Work
         rdf:about="">
        <dc:format>image/svg+xml</dc:format>
        <dc:type
           rdf:resource="http://purl.org/dc/dcmitype/StillImage" />
        <dc:title></dc:title>
      </cc:Work>
    </rdf:RDF>
  </metadata>
  <g
     inkscape:label="Layer 1"
     inkscape:groupmode="layer"
     id="layer1"
     transform="translate(2234.2905,3214.3142)">
    <rect
       style="fill:#000000;fill-opacity:1;stroke:none;stroke-width:1.23986554"
       id="rect815"
       width="1210"
       height="1989.9999"
       x="-2232.2905"
       y="-3212.3142"
       rx="104.99999"
       ry="104.99999" />
    <rect
       ry="100"
       rx="100"
       y="-3207.3145"
       x="-2227.2905"
       height="1980"
       width="1200"
       id="rect8703"
       style="fill:#ffffff;fill-opacity:1;stroke:none;stroke-width:1.23162544" />
    <rect
       ry="80"
       rx="80"
       style="fill:#000000;fill-opacity:1;stroke:none;stroke-width:1.19863033"
       id="rect8705"
       width="1160"
       height="1940"
       x="-2207.2905"
       y="-3187.3145" />
    <rect
       ry="40"
       rx="40"
       style="fill:#ffffff;fill-opacity:1;stroke:none;stroke-width:1.13246238"
       id="rect8707"
       width="1080"
       height="1860"
       x="-2167.2905"
       y="-3147.3145" />
    <circle
       r="500"
       style="fill:#be141e;fill-opacity:1;stroke:none;stroke-width:0.82621646"
       cy="-2607.3145"
       cx="-1627.2905"
       id="circle8709" />
    <circle
       r="399.99997"
       cy="-2607.3145"
       cx="-1627.2905"
       id="circle8711"
       style="fill:#ffffff;fill-opacity:1;stroke:none;stroke-width:0.45176333" />
    <path
       sodipodi:nodetypes="cccccccccc"
       inkscape:connector-curvature="0"
       id="path8713"
       d="m -1797.2905,-2272.3147 -156.7677,-250.3837 c -7.2478,-13.3192 4.2154,-29.0824 19.12,-26.292 l 67.6477,12.6757 v -369.0001 h 140 v 369.0001 l 67.6477,-12.6757 c 14.9046,-2.7904 26.3679,12.9728 19.12,26.292 z"
       style="color:#000000;font-style:normal;font-variant:normal;font-weight:normal;font-stretch:normal;font-size:medium;line-height:normal;font-family:sans-serif;font-variant-ligatures:normal;font-variant-position:normal;font-variant-caps:normal;font-variant-numeric:normal;font-variant-alternates:normal;font-feature-settings:normal;text-indent:0;text-align:start;text-decoration:none;text-decoration-line:none;text-decoration-style:solid;text-decoration-color:#000000;letter-spacing:normal;word-spacing:normal;text-transform:none;writing-mode:lr-tb;direction:ltr;text-orientation:mixed;dominant-baseline:auto;baseline-shift:baseline;text-anchor:start;white-space:normal;shape-padding:0;clip-rule:nonzero;display:inline;overflow:visible;visibility:visible;opacity:1;isolation:auto;mix-blend-mode:normal;color-interpolation:sRGB;color-interpolation-filters:linearRGB;solid-color:#000000;solid-opacity:1;vector-effect:none;fill:#000000;fill-opacity:1;fill-rule:nonzero;stroke:none;stroke-width:35.99062347;stroke-linecap:butt;stroke-linejoin:round;stroke-miterlimit:4;stroke-dasharray:none;stroke-dashoffset:0;stroke-opacity:1;color-rendering:auto;image-rendering:auto;shape-rendering:auto;text-rendering:auto;enable-background:accumulate" />
    <path
       sodipodi:nodetypes="cccccccccc"
       inkscape:connector-curvature="0"
       id="path8715"
       d="m -1578.1539,-2736.6968 c -6.4627,10.4387 2.6874,23.5468 14.7141,21.0791 l 52.1493,-10.697 v 429 h 108 v -429 l 52.1516,10.6975 c 12.0259,2.4654 21.1736,-10.6414 14.7121,-21.0791 l -120.8637,-190.6185 z"
       style="color:#000000;font-style:normal;font-variant:normal;font-weight:normal;font-stretch:normal;font-size:medium;line-height:normal;font-family:sans-serif;font-variant-ligatures:normal;font-variant-position:normal;font-variant-caps:normal;font-variant-numeric:normal;font-variant-alternates:normal;font-feature-settings:normal;text-indent:0;text-align:start;text-decoration:none;text-decoration-line:none;text-decoration-style:solid;text-decoration-color:#000000;letter-spacing:normal;word-spacing:normal;text-transform:none;writing-mode:lr-tb;direction:ltr;text-orientation:mixed;dominant-baseline:auto;baseline-shift:baseline;text-anchor:start;white-space:normal;shape-padding:0;clip-rule:nonzero;display:inline;overflow:visible;visibility:visible;opacity:1;isolation:auto;mix-blend-mode:normal;color-interpolation:sRGB;color-interpolation-filters:linearRGB;solid-color:#000000;solid-opacity:1;vector-effect:none;fill:#000000;fill-opacity:1;fill-rule:nonzero;stroke:none;stroke-width:27.99101257;stroke-linecap:butt;stroke-linejoin:round;stroke-miterlimit:4;stroke-dasharray:none;stroke-dashoffset:0;stroke-opacity:1;color-rendering:auto;image-rendering:auto;shape-rendering:auto;text-rendering:auto;enable-background:accumulate" />
    <path
       inkscape:connector-curvature="0"
       id="path8717"
       style="fill:#000000;fill-opacity:1;fill-rule:nonzero;stroke:none;stroke-width:7.22143078"
       d="m -2010.1283,-1889.1732 h 0.3071 c 4.268,0.2047 7.7275,-0.696 10.4213,-2.5486 3.0337,-2.0941 4.5485,-5.2424 4.5485,-9.4163 0,-3.8709 -1.392,-6.8964 -4.2598,-9.0416 -2.5486,-2.0471 -5.7911,-3.0399 -9.7418,-3.0399 h -21.8888 v 24.0464 z m -35.7021,-39.485 h 33.6019 c 6.3826,0 11.1706,0.5322 14.2104,1.5967 5.4962,1.8218 10.0304,5.1708 13.627,10.0017 3.5679,4.8453 5.3652,10.1451 5.3652,15.9299 0,8.5648 -3.2117,15.4468 -9.6394,20.6238 -5.9138,4.7818 -13.2729,7.1707 -22.1058,7.1707 h -19.9748 v 42.9383 h -15.0845 z" />
    <path
       inkscape:connector-curvature="0"
       id="path8719"
       style="fill:#000000;fill-opacity:1;fill-rule:nonzero;stroke:none;stroke-width:7.22143078"
       d="m -1916.1762,-1889.2653 c -2.6878,1.9242 -5.9876,2.8085 -9.9015,2.6856 h -18.8325 v -23.5427 h 19.6125 c 3.7051,0 6.8902,1.0644 9.5616,3.1565 2.657,2.1227 3.9794,5.0049 3.9794,8.6445 0,3.871 -1.4739,6.8596 -4.4195,9.0561 m 4.7225,15.2073 c 4.5484,-2.2538 8.1819,-5.5966 10.8901,-10.0079 2.743,-4.4195 4.0797,-9.187 4.0797,-14.2268 0,-7.9506 -2.7594,-14.4499 -8.2904,-19.5061 -5.5597,-5.0684 -12.3272,-7.5883 -20.3433,-7.5883 h -34.6909 v 96.1179 h 14.8983 v -41.7981 h 18.2553 l 15.5839,41.7981 h 16.6096 z" />
    <path
       inkscape:connector-curvature="0"
       id="path8721"
       style="fill:#000000;fill-opacity:1;fill-rule:nonzero;stroke:none;stroke-width:7.22143078"
       d="m -1877.723,-1828.5999 h 59.599 v -15.6699 h -44.7949 v -26.4516 h 28.2652 v -15.3526 h -28.2652 v -23.5428 h 41.7101 v -15.0927 h -56.5142 z" />
    <path
       inkscape:connector-curvature="0"
       id="path8723"
       style="fill:#000000;fill-opacity:1;fill-rule:nonzero;stroke:none;stroke-width:7.22143078"
       d="m -1794.1923,-1829.5517 h 14.8901 v -42.1093 h 28.0708 v -15.3669 h -28.0708 v -23.5408 h 44.6864 v -15.0927 h -59.5765 z" />
    <path
       inkscape:connector-curvature="0"
       id="path8725"
       style="fill:#000000;fill-opacity:1;fill-rule:nonzero;stroke:none;stroke-width:7.22143078"
       d="m -1711.5438,-1829.5517 h 59.5846 v -15.672 h -44.7867 v -26.4373 h 28.2489 v -15.3669 h -28.2489 v -23.5408 h 41.7183 v -15.0927 h -56.5162 z" />
    <path
       inkscape:connector-curvature="0"
       id="path8727"
       style="fill:#000000;fill-opacity:1;fill-rule:nonzero;stroke:none;stroke-width:7.22143078"
       d="m -1586.735,-1889.2653 c -2.6938,1.9242 -5.9936,2.8085 -9.9219,2.6856 h -18.8346 v -23.5427 h 19.6289 c 3.6969,0 6.8739,1.0644 9.5391,3.1565 2.6795,2.1227 3.9937,5.0049 3.9937,8.6445 0,3.871 -1.4738,6.8596 -4.4052,9.0561 m 4.7,15.2073 c 4.5567,-2.2538 8.1819,-5.5966 10.9045,-10.0079 2.7368,-4.4195 4.0817,-9.187 4.0817,-14.2268 0,-7.9506 -2.7532,-14.4499 -8.2986,-19.5061 -5.5536,-5.0684 -12.3272,-7.5883 -20.3351,-7.5883 h -34.699 v 96.1179 h 14.89 v -41.7981 h 18.2553 l 15.584,41.7981 h 16.6238 z" />
    <path
       inkscape:connector-curvature="0"
       id="path8729"
       style="fill:#000000;fill-opacity:1;fill-rule:nonzero;stroke:none;stroke-width:7.22143078"
       d="m -1544.3023,-1829.5517 h 59.5765 v -15.672 h -44.7868 v -26.4373 h 28.2571 v -15.3669 h -28.2571 v -23.5408 h 41.7101 v -15.0927 h -56.4998 z" />
    <path
       inkscape:connector-curvature="0"
       id="path8731"
       style="fill:#000000;fill-opacity:1;fill-rule:nonzero;stroke:none;stroke-width:7.22143078"
       d="m -1467.7847,-1828.9315 h 14.8982 v -65.0584 l 36.9098,65.0584 h 13.5615 v -96.1035 h -15.195 v 61.427 l -35.2763,-61.427 h -14.8982 z" />
    <path
       inkscape:connector-curvature="0"
       id="path8733"
       style="fill:#000000;fill-opacity:1;fill-rule:nonzero;stroke:none;stroke-width:7.22143078"
       d="m -1335.2483,-1853.8601 c -2.7308,7.2587 -7.8872,10.8472 -15.4694,10.8472 -7.4225,0 -12.8389,-4.0511 -16.241,-12.1818 -2.4974,-5.9159 -3.7543,-13.2156 -3.7543,-21.9113 0,-5.9794 0.7165,-11.6394 2.1146,-17.0272 1.8628,-7.0335 4.6222,-11.8502 8.2843,-14.4151 2.6059,-1.8013 6.2885,-2.7 11.0478,-2.7 5.2506,0 10.0304,3.4022 14.3127,10.2044 l 14.1122,-6.1677 c -5.4819,-13.0067 -15.455,-19.5122 -29.8763,-19.5122 -12.4929,0 -21.7946,5.3653 -27.9684,16.061 -5.005,8.7018 -7.488,19.9011 -7.488,33.5568 0,13.1643 2.483,24.2653 7.488,33.2558 6.2025,11.0703 15.3895,16.6014 27.4853,16.6014 15.1787,0 25.3319,-7.0848 30.3594,-21.2235 z" />
    <path
       inkscape:connector-curvature="0"
       id="path8735"
       style="fill:#000000;fill-opacity:1;fill-rule:nonzero;stroke:none;stroke-width:7.22143078"
       d="m -1308.4283,-1829.5517 h 15.367 v -96.1097 h -15.367 z" />
    <path
       inkscape:connector-curvature="0"
       id="path8737"
       style="fill:#000000;fill-opacity:1;fill-rule:nonzero;stroke:none;stroke-width:7.22143078"
       d="m -1249.8487,-1873.7755 9.9014,-26.8999 9.4245,26.8999 z m 17.2953,-53.808 h -15.1869 l -33.2477,96.1096 h 16.2349 l 9.533,-26.8262 h 30.1567 l 9.5248,26.8262 h 16.241 z" />
    <path
       inkscape:connector-curvature="0"
       id="path8739"
       style="fill:#000000;fill-opacity:1;fill-rule:nonzero;stroke:none;stroke-width:7.22143078"
       d="m -1979.3575,-1682.2134 9.9014,-26.908 9.4081,26.908 z m 17.2953,-53.8223 h -15.1869 l -33.2538,96.1179 h 16.2329 l 9.5329,-26.8201 h 30.1629 l 9.5268,26.8201 h 16.2411 z" />
    <path
       inkscape:connector-curvature="0"
       id="path8741"
       style="fill:#000000;fill-opacity:1;fill-rule:nonzero;stroke:none;stroke-width:7.22143078"
       d="m -1911.8795,-1640.0325 h 59.5969 v -13.9095 h -44.7867 v -82.194 h -14.8102 z" />
    <path
       inkscape:connector-curvature="0"
       id="path8743"
       style="fill:#000000;fill-opacity:1;fill-rule:nonzero;stroke:none;stroke-width:7.22143078"
       d="m -1751.7166,-1638.2413 c 8.8534,0 16.0978,-2.7737 21.7721,-8.313 5.6703,-5.5454 8.5013,-12.7529 8.5013,-21.5838 0,-10.6813 -3.9937,-18.6258 -11.9955,-23.8396 -1.8628,-1.1463 -9.3447,-4.0571 -22.4088,-8.7448 -8.0591,-2.8597 -12.1163,-6.9456 -12.1163,-12.1962 0,-3.1278 1.4943,-5.6108 4.4257,-7.3958 2.4994,-1.5558 5.4246,-2.3173 8.7448,-2.3173 7.7644,0 13.0498,2.8311 15.8583,8.4563 l 13.5636,-4.0286 c -4.9989,-13.0067 -14.4663,-19.5204 -28.3595,-19.5204 -8.6015,0 -15.5041,2.0061 -20.7465,5.9569 -5.7849,4.4932 -8.6589,10.8615 -8.6589,19.1376 0,9.4736 3.9794,16.6156 11.9014,21.4179 7.4593,3.0255 14.8757,6.0387 22.3064,9.0417 7.9506,3.394 11.9157,8.1308 11.9157,14.2268 0,4.485 -1.4739,7.9506 -4.3622,10.3845 -2.917,2.4401 -6.6508,3.6396 -11.2013,3.6396 -4.223,0 -8.182,-1.3305 -11.885,-3.9937 -3.6765,-2.6509 -6.2823,-5.9875 -7.8217,-10.0304 l -14.5072,5.3796 c 2.8945,7.2935 7.4962,13.2155 13.8296,17.6412 6.3458,4.4645 13.4449,6.6815 21.244,6.6815" />
    <path
       inkscape:connector-curvature="0"
       id="path8745"
       style="fill:#000000;fill-opacity:1;fill-rule:nonzero;stroke:none;stroke-width:7.22143078"
       d="m -1698.0314,-1638.9578 h 59.5764 v -15.6761 h -44.7867 v -26.4454 h 28.2632 v -15.3527 h -28.2632 v -23.5571 h 41.7101 v -15.0927 h -56.4998 z" />
    <path
       inkscape:connector-curvature="0"
       id="path8747"
       style="fill:#000000;fill-opacity:1;fill-rule:nonzero;stroke:none;stroke-width:7.22143078"
       d="m -1615.0514,-1640.0325 h 14.8982 v -65.0584 l 36.9016,65.0584 h 13.5472 v -96.1035 h -15.2011 v 61.3963 l -35.2477,-61.3963 h -14.8982 z" />
    <path
       inkscape:connector-curvature="0"
       id="path8749"
       style="fill:#000000;fill-opacity:1;fill-rule:nonzero;stroke:none;stroke-width:7.22143078"
       d="m -1465.928,-1735.0818 h -59.5847 v 13.4756 h 21.9174 v 82.6484 h 15.1726 v -82.6484 h 22.4947" />
    <path
       inkscape:connector-curvature="0"
       id="path8751"
       style="fill:#000000;fill-opacity:1;fill-rule:nonzero;stroke:none;stroke-width:7.22143078"
       d="m -1445.6728,-1638.9578 h 15.3895 v -96.124 h -15.3895 z" />
    <path
       inkscape:connector-curvature="0"
       id="path8753"
       style="fill:#000000;fill-opacity:1;fill-rule:nonzero;stroke:none;stroke-width:7.22143078"
       d="m -1362.3734,-1666.6233 c -3.3346,8.0018 -8.3969,11.9894 -15.193,11.9894 h -16.1325 v -65.3552 h 17.5839 c 6.4051,0 11.1562,4.1023 14.2267,12.321 2.174,5.834 3.263,12.6302 3.263,20.3638 0,7.8135 -1.2692,14.716 -3.7481,20.681 m 14.1265,-47.9637 c -4.0818,-10.1901 -9.8646,-16.5808 -17.2891,-19.1294 -2.6857,-0.9007 -5.8996,-1.3715 -9.6108,-1.3715 h -33.4504 v 96.124 h 34.9959 c 4.094,0 8.5422,-1.9242 13.367,-5.7542 11.3221,-9.1788 16.9903,-23.6943 16.9903,-43.5606 0,-9.2075 -1.6581,-18.0035 -5.0029,-26.3144" />
    <path
       inkscape:connector-curvature="0"
       id="path8755"
       style="fill:#000000;fill-opacity:1;fill-rule:nonzero;stroke:none;stroke-width:7.22143078"
       d="m -1273.0374,-1665.5322 c -3.2772,8.5217 -8.5852,12.7816 -15.9647,12.7816 -6.9701,0 -11.9894,-4.2599 -15.0926,-12.7816 -2.0962,-5.834 -3.1565,-13.019 -3.1565,-21.549 0,-8.3682 1.0644,-15.5328 3.1565,-21.4261 3.1032,-8.7019 7.9936,-13.0477 14.7242,-13.0477 7.5023,0 12.9044,3.9568 16.2554,11.8993 2.311,5.6334 3.443,12.9269 3.443,21.8315 0,8.8963 -1.1258,16.3127 -3.3653,22.292 m 11.7356,-55.3514 c -5.8279,-10.753 -15.0927,-16.1551 -27.7658,-16.1551 -12.1756,0 -21.1232,5.5249 -26.82,16.5297 -4.485,8.5217 -6.7306,19.4405 -6.7306,32.7564 0,13.8665 2.2456,25.1087 6.7306,33.7451 5.7542,11.3323 14.9555,17.0067 27.5774,17.0067 12.19,0 21.2174,-5.5966 27.1251,-16.804 4.5198,-8.7817 6.8084,-19.8725 6.8084,-33.2764 0,-14.1469 -2.3111,-25.426 -6.9251,-33.8024" />
    <path
       inkscape:connector-curvature="0"
       id="path8757"
       style="fill:#000000;fill-opacity:1;fill-rule:nonzero;stroke:none;stroke-width:7.22143078"
       d="m -1934.2657,-1476.6844 c -2.7308,7.2567 -7.879,10.8615 -15.4612,10.8615 -7.4388,0 -12.8471,-4.0736 -16.241,-12.1982 -2.5076,-5.8995 -3.742,-13.2135 -3.742,-21.9092 0,-5.9794 0.696,-11.6558 2.1023,-17.0271 1.8628,-7.0479 4.614,-11.8502 8.2761,-14.4152 2.6284,-1.8013 6.2885,-2.7143 11.056,-2.7143 5.2485,0 10.0222,3.4144 14.3045,10.2105 l 14.1327,-6.1595 c -5.4963,-13.0129 -15.4673,-19.506 -29.8886,-19.506 -12.4929,0 -21.8028,5.3591 -27.9766,16.0548 -4.9968,8.6855 -7.4819,19.9011 -7.4819,33.5568 0,13.1787 2.4851,24.2633 7.4819,33.2559 6.225,11.0702 15.3813,16.6013 27.4915,16.6013 15.195,0 25.3257,-7.0848 30.3737,-21.2235 z" />
    <path
       inkscape:connector-curvature="0"
       id="path8759"
       style="fill:#000000;fill-opacity:1;fill-rule:nonzero;stroke:none;stroke-width:7.22143078"
       d="m -1852.3317,-1478.3302 c -3.2855,8.5197 -8.6077,12.7816 -15.9893,12.7816 -6.9619,0 -11.973,-4.2619 -15.0783,-12.7816 -2.1085,-5.836 -3.1688,-13.0067 -3.1688,-21.5346 0,-8.3846 1.0644,-15.5328 3.1688,-21.4344 3.1053,-8.708 7.9731,-13.0477 14.7098,-13.0477 7.5106,0 12.927,3.963 16.2554,11.9014 2.3193,5.6252 3.4534,12.9187 3.4534,21.8376 0,8.8882 -1.1054,16.3127 -3.351,22.2777 m 11.7274,-55.3453 c -5.8361,-10.7611 -15.0927,-16.1612 -27.7658,-16.1612 -12.1839,0 -21.1171,5.5372 -26.8283,16.544 -4.4768,8.5074 -6.7244,19.4406 -6.7244,32.7708 0,13.8358 2.2476,25.0862 6.7244,33.7164 5.7706,11.3446 14.9617,17.021 27.5857,17.021 12.1757,0 21.2173,-5.5965 27.1087,-16.8183 4.5362,-8.7674 6.8104,-19.8745 6.8104,-33.262 0,-14.147 -2.2968,-25.4261 -6.9107,-33.8107" />
    <path
       inkscape:connector-curvature="0"
       id="path8761"
       style="fill:#000000;fill-opacity:1;fill-rule:nonzero;stroke:none;stroke-width:7.22143078"
       d="m -1811.7475,-1450.7302 h 14.8982 v -65.0645 l 36.9078,65.0645 h 13.5615 v -96.1096 h -15.1869 v 61.4024 l -35.2824,-61.4024 h -14.8982 z" />
    <path
       inkscape:connector-curvature="0"
       id="path8763"
       style="fill:#000000;fill-opacity:1;fill-rule:nonzero;stroke:none;stroke-width:7.22143078"
       d="m -1700.1542,-1451.7414 h 15.1786 v -82.6628 h 22.5029 v -13.4612 h -59.5928 v 13.4612 h 21.9113 z" />
    <path
       inkscape:connector-curvature="0"
       id="path8765"
       style="fill:#000000;fill-opacity:1;fill-rule:nonzero;stroke:none;stroke-width:7.22143078"
       d="m -1592.7143,-1510.6833 c -2.6857,1.9446 -5.9732,2.8249 -9.9076,2.702 h -18.8264 v -23.5571 h 19.6125 c 3.6969,0 6.8759,1.044 9.5555,3.1565 2.657,2.1289 3.9998,5.003 3.9998,8.6733 0,3.8402 -1.4943,6.8452 -4.4338,9.0253 m 4.7143,15.2093 c 4.5505,-2.2394 8.1819,-5.5822 10.9044,-10.0099 2.7369,-4.4052 4.0736,-9.1788 4.0736,-14.2186 0,-7.9588 -2.7594,-14.4581 -8.2904,-19.4979 -5.5679,-5.0684 -12.3333,-7.6046 -20.3433,-7.6046 h -34.6908 v 96.1178 h 14.8982 v -41.8125 h 18.2491 l 15.582,41.8125 h 16.6177 z" />
    <path
       inkscape:connector-curvature="0"
       id="path8767"
       style="fill:#000000;fill-opacity:1;fill-rule:nonzero;stroke:none;stroke-width:7.22143078"
       d="m -1526.1698,-1494.037 9.8871,-26.908 9.4245,26.908 z m 17.2891,-53.8366 h -15.1868 l -33.2477,96.1322 h 16.2267 l 9.533,-26.8344 h 30.1628 l 9.5248,26.8344 h 16.2411 z" />
    <path
       inkscape:connector-curvature="0"
       id="path8769"
       style="fill:#000000;fill-opacity:1;fill-rule:nonzero;stroke:none;stroke-width:7.22143078"
       d="m -1418.3451,-1510.6833 c -2.702,1.9446 -5.9936,2.8249 -9.9157,2.702 h -18.849 v -23.5571 h 19.635 c 3.699,0 6.8821,1.044 9.5412,3.1565 2.6632,2.1289 3.9855,5.003 3.9855,8.6733 0,3.8402 -1.4533,6.8452 -4.397,9.0253 m 4.6857,15.2093 c 4.5648,-2.2394 8.1901,-5.5822 10.9044,-10.0099 2.7369,-4.4052 4.0879,-9.1788 4.0879,-14.2186 0,-7.9588 -2.7593,-14.4581 -8.2986,-19.4979 -5.5597,-5.0684 -12.3333,-7.6046 -20.3494,-7.6046 h -34.6765 v 96.1178 h 14.8818 v -41.8125 h 18.2635 l 15.584,41.8125 h 16.6238 z" />
    <path
       inkscape:connector-curvature="0"
       id="path8771"
       style="fill:#000000;fill-opacity:1;fill-rule:nonzero;stroke:none;stroke-width:7.22143078"
       d="m -1379.8918,-1450.7302 h 15.3752 v -96.1096 h -15.3752 z" />
    <path
       inkscape:connector-curvature="0"
       id="path8773"
       style="fill:#000000;fill-opacity:1;fill-rule:nonzero;stroke:none;stroke-width:7.22143078"
       d="m -1295.1186,-1478.3302 c -3.2731,8.5197 -8.5872,12.7816 -15.9749,12.7816 -6.9619,0 -11.9955,-4.2619 -15.0702,-12.7816 -2.1166,-5.836 -3.1708,-13.0067 -3.1708,-21.5346 0,-8.3846 1.0645,-15.5615 3.1708,-21.4344 3.0747,-8.708 7.965,-13.0477 14.7017,-13.0477 7.4962,0 12.927,3.963 16.2493,11.9014 2.3172,5.6252 3.4594,12.9187 3.4594,21.8069 0,8.9189 -1.1258,16.3434 -3.3653,22.3084 m 11.7336,-55.3453 c -5.834,-10.7611 -15.0927,-16.1612 -27.7658,-16.1612 -12.1757,0 -21.115,5.5372 -26.8344,16.544 -4.4707,8.5074 -6.7245,19.4406 -6.7245,32.7708 0,13.8358 2.2538,25.0862 6.7245,33.7164 5.7685,11.3446 14.9699,17.021 27.6061,17.021 12.1695,0 21.203,-5.5965 27.0964,-16.8183 4.5424,-8.7674 6.8166,-19.8745 6.8166,-33.262 0,-14.147 -2.2968,-25.4261 -6.9189,-33.8107" />
  </g>
</svg>
