<?xml version="1.0" encoding="UTF-8" standalone="no"?>
<!-- Created with Inkscape (http://www.inkscape.org/) -->

<svg
   xmlns:dc="http://purl.org/dc/elements/1.1/"
   xmlns:cc="http://creativecommons.org/ns#"
   xmlns:rdf="http://www.w3.org/1999/02/22-rdf-syntax-ns#"
   xmlns:svg="http://www.w3.org/2000/svg"
   xmlns="http://www.w3.org/2000/svg"
   xmlns:sodipodi="http://sodipodi.sourceforge.net/DTD/sodipodi-0.dtd"
   xmlns:inkscape="http://www.inkscape.org/namespaces/inkscape"
   width="90.400002cm"
   height="90.400002cm"
   viewBox="0 0 9040.0001 9039.9996"
   version="1.1"
   id="svg30"
   inkscape:version="0.92.2 (5c3e80d, 2017-08-06)"
   sodipodi:docname="66.svg">
  <defs
     id="defs24">
    <inkscape:perspective
       sodipodi:type="inkscape:persp3d"
       inkscape:vp_x="0 : 1484.9999 : 1"
       inkscape:vp_y="0 : 999.99997 : 0"
       inkscape:vp_z="2100.0001 : 1484.9999 : 1"
       inkscape:persp3d-origin="1050.0001 : 989.99995 : 1"
       id="perspective1834" />
  </defs>
  <sodipodi:namedview
     id="base"
     pagecolor="#ffffff"
     bordercolor="#666666"
     borderopacity="1.0"
     inkscape:pageopacity="0.0"
     inkscape:pageshadow="2"
     inkscape:zoom="0.0875"
     inkscape:cx="2696.2121"
     inkscape:cy="91.63628"
     inkscape:document-units="cm"
     inkscape:current-layer="layer1"
     showgrid="false"
     units="cm"
     inkscape:window-width="1920"
     inkscape:window-height="1057"
     inkscape:window-x="-8"
     inkscape:window-y="-8"
     inkscape:window-maximized="1"
     fit-margin-top="0"
     fit-margin-left="0"
     fit-margin-right="0"
     fit-margin-bottom="0" />
  <metadata
     id="metadata27">
    <rdf:RDF>
      <cc:Work
         rdf:about="">
        <dc:format>image/svg+xml</dc:format>
        <dc:type
           rdf:resource="http://purl.org/dc/dcmitype/StillImage" />
        <dc:title></dc:title>
      </cc:Work>
    </rdf:RDF>
  </metadata>
  <g
     inkscape:label="Layer 1"
     inkscape:groupmode="layer"
     id="layer1"
     transform="translate(2067.1023,25891.604)">
    <circle
       id="path32"
       cx="2452.8977"
       cy="-21371.604"
       style="fill:#be141e;fill-opacity:1;stroke:none;stroke-width:7.43594885"
       r="4500" />
    <circle
       style="fill:#ffffff;fill-opacity:1;stroke:none;stroke-width:4.06587029"
       id="path5072"
       cx="2452.8977"
       cy="-21371.604"
       r="3600" />
    <path
       style="fill:#000000;fill-opacity:1;fill-rule:evenodd;stroke:none;stroke-width:33.36275101"
       d="m 148.89549,-21928.602 -795.9979,2196.998 H 5552.9011 l -796.0032,-2196.998 H 4136.321 c 18.116,75.065 30.3434,145.312 33.5793,207 3.235,62.455 1.0639,125.477 2,187.999 l 324.9982,-136.002 466.0024,1510.001 -2093.0037,-832.001 c 0,0 280.1479,-117.183 417.0028,-174 -139.923,7.873 -279.9434,14.699 -420,19.002 l -414.0007,15.001 -414.0006,-15.001 c -140.0568,-4.303 -280.0771,-11.129 -420.0001,-19.002 136.855,56.817 416.9978,174 416.9978,174 l -2092.998705,832.001 465.997395,-1510.001 325.0033,136.002 c 0.936,-62.522 -1.2351,-125.544 1.9999,-187.999 3.236,-61.688 15.4634,-131.935 33.5794,-207 z m 2244.00241,1134.995 h 120.0028 L 4554.9,-19943.602 H 350.89859 Z"
       id="path1818"
       inkscape:connector-curvature="0"
       sodipodi:nodetypes="ccccccccccccccccccccccccccc" />
    <path
       style="fill:#000000;fill-opacity:1;fill-rule:evenodd;stroke:none;stroke-width:44.31806946"
       d="m 2452.8716,-23255.105 c -263.649,0.298 -527.204,11.914 -790.853,35.801 -103.838,20.786 -193.222,73.218 -268.032,157.821 -135.833,166.945 -252.408,336.42 -333.865,510.633 -101.17801,216.406 -253.03001,608.137 -264.73101,834.205 -3.989,77.068 -5.096,161.005 -4.215,250.306 -10.434,70.076 4.054,105.735 43.342,106.007 v 369.629 c 0,129.138 103.961,233.098 233.09901,233.098 h 133.635 7.89 c 127.224,0 230.012,-100.908 233.03,-227.382 0.279,-4.729 0.433,-9.489 0.433,-14.286 v -232.858 c 336.758,22.492 673.528,36.505 1010.293,37.463 336.762,-0.958 673.533,-14.971 1010.29,-37.463 v 232.858 c 0,4.797 0.156,9.557 0.435,14.286 3.017,126.474 105.806,227.382 233.03,227.382 h 7.89 133.635 c 129.139,0 233.1,-103.96 233.1,-233.098 v -369.629 c 39.287,-0.272 53.777,-35.931 43.343,-106.007 0.88,-89.301 -0.226,-173.238 -4.215,-250.306 -11.702,-226.068 -163.559,-617.799 -264.738,-834.205 -81.456,-174.213 -198.027,-343.688 -333.862,-510.633 -74.808,-84.603 -164.198,-137.035 -268.036,-157.821 -263.647,-23.887 -527.198,-35.503 -790.847,-35.801 -0.01,0 -0.01,0 -0.03,0 -0.01,0 -0.01,0 -0.03,0 z m 0.03,141.523 c 264,-0.465 528.548,9.952 792.538,30.782 39.31,13.251 72.598,33.861 99.899,63.288 l 419.577,718.453 c 25.217,54.776 10.903,82.621 -42.457,84.084 -394.274,-25.508 -831.973,-38.63 -1269.559,-39.132 -437.587,0.502 -875.29,13.624 -1269.565,39.132 -53.358,-1.463 -67.673,-29.308 -42.456,-84.084 l 419.58,-718.453 c 27.301,-29.427 60.589,-50.037 99.899,-63.288 263.989,-20.83 528.542,-31.247 792.542,-30.782 z"
       id="path6543"
       inkscape:connector-curvature="0"
       sodipodi:nodetypes="cccccccsscscscccscscsscccccccscccccccccccc" />
    <path
       style="fill:#ffffff;fill-opacity:1;stroke:none;stroke-width:246.01426697;stroke-linejoin:miter;stroke-miterlimit:4;stroke-dasharray:none;stroke-opacity:1"
       d="m 2119.9246,-21815.556 c -18.447,0 -33.296,14.853 -33.296,33.299 v 237.546 h -646.801 v -87.407 c 0,-18.447 -14.848,-33.296 -33.295,-33.296 H 946.19359 c -18.447,0 -33.296,14.849 -33.296,33.296 v 108.217 c 0,18.447 14.849,33.296 33.296,33.296 H 3959.5986 c 18.446,0 33.299,-14.849 33.299,-33.296 v -108.217 c 0,-18.447 -14.853,-33.296 -33.299,-33.296 h -460.336 c -18.447,0 -33.296,14.849 -33.296,33.296 v 87.407 h -646.8 v -237.546 c 0,-18.446 -14.849,-33.299 -33.296,-33.299 z"
       id="rect6591"
       inkscape:connector-curvature="0" />
    <path
       id="path6595"
       d="m 946.19459,-21865.415 h 460.33501 c 18.447,0 33.298,14.85 33.298,33.297 v 108.216 c 0,18.447 -14.851,33.297 -33.298,33.297 H 946.19459 c -18.447,0 -33.297,-14.85 -33.297,-33.297 v -108.216 c 0,-18.447 14.85,-33.297 33.297,-33.297 z"
       style="fill:#ffffff;fill-opacity:1;stroke:none;stroke-width:246.01426697;stroke-linejoin:miter;stroke-miterlimit:4;stroke-dasharray:none;stroke-opacity:1"
       inkscape:connector-curvature="0" />
    <path
       inkscape:connector-curvature="0"
       style="fill:#ffffff;fill-opacity:1;stroke:none;stroke-width:246.01426697;stroke-linejoin:miter;stroke-miterlimit:4;stroke-dasharray:none;stroke-opacity:1"
       d="m 3959.6006,-21865.415 h -460.335 c -18.447,0 -33.297,14.85 -33.297,33.297 v 108.216 c 0,18.447 14.85,33.297 33.297,33.297 h 460.335 c 18.447,0 33.297,-14.85 33.297,-33.297 v -108.216 c 0,-18.447 -14.85,-33.297 -33.297,-33.297 z"
       id="path1861" />
    <rect
       y="-17377.545"
       x="16396.467"
       height="7999.9995"
       width="899.99994"
       id="rect2946"
       style="fill:#be141e;fill-opacity:1;stroke:none;stroke-width:369.42007446;stroke-miterlimit:4;stroke-dasharray:none;stroke-opacity:1"
       transform="rotate(-45)" />
  </g>
</svg>
