<?xml version="1.0" encoding="UTF-8" standalone="no"?>
<!-- Created with Inkscape (http://www.inkscape.org/) -->

<svg
   xmlns:dc="http://purl.org/dc/elements/1.1/"
   xmlns:cc="http://creativecommons.org/ns#"
   xmlns:rdf="http://www.w3.org/1999/02/22-rdf-syntax-ns#"
   xmlns:svg="http://www.w3.org/2000/svg"
   xmlns="http://www.w3.org/2000/svg"
   xmlns:sodipodi="http://sodipodi.sourceforge.net/DTD/sodipodi-0.dtd"
   xmlns:inkscape="http://www.inkscape.org/namespaces/inkscape"
   width="90.400002cm"
   height="90.400002cm"
   viewBox="0 0 9040.0001 9039.9995"
   version="1.1"
   id="svg30"
   inkscape:version="0.92.2 (5c3e80d, 2017-08-06)"
   sodipodi:docname="66.svg">
  <defs
     id="defs24" />
  <sodipodi:namedview
     id="base"
     pagecolor="#ffffff"
     bordercolor="#666666"
     borderopacity="1.0"
     inkscape:pageopacity="0.0"
     inkscape:pageshadow="2"
     inkscape:zoom="0.1618446"
     inkscape:cx="2409.4318"
     inkscape:cy="2029.434"
     inkscape:document-units="cm"
     inkscape:current-layer="layer1"
     showgrid="false"
     units="cm"
     inkscape:window-width="1920"
     inkscape:window-height="1057"
     inkscape:window-x="-8"
     inkscape:window-y="-8"
     inkscape:window-maximized="1"
     fit-margin-top="0"
     fit-margin-left="0"
     fit-margin-right="0"
     fit-margin-bottom="0" />
  <metadata
     id="metadata27">
    <rdf:RDF>
      <cc:Work
         rdf:about="">
        <dc:format>image/svg+xml</dc:format>
        <dc:type
           rdf:resource="http://purl.org/dc/dcmitype/StillImage" />
        <dc:title></dc:title>
      </cc:Work>
    </rdf:RDF>
  </metadata>
  <g
     inkscape:label="Layer 1"
     inkscape:groupmode="layer"
     id="layer1"
     transform="translate(-1600,9129.9997)">
    <circle
       id="path32"
       cx="6120"
       cy="-4610"
       style="fill:#be141e;fill-opacity:1;stroke:none;stroke-width:7.43594885"
       r="4500" />
    <circle
       style="fill:#ffffff;fill-opacity:1;stroke:none;stroke-width:4.06587029"
       id="path5072"
       cx="6120"
       cy="-4610"
       r="3600" />
    <path
       d="m 5281.3683,-4049.6571 c -8.5802,161.9429 -142.7484,290.604 -307.0289,290.604 -169.756,0 -307.3961,-137.5066 -307.3961,-307.1629 0,-5.4743 0.123,-11.0156 0.4637,-16.4578 l -378.97,-20.3632 c -0.634,12.2177 -1.0011,24.5033 -1.0011,36.821 0,189.5534 76.9488,361.1439 201.2025,485.2977 124.2538,124.1528 296.0452,200.9681 485.6972,200.9681 189.686,0 361.5106,-76.8153 485.7643,-200.9681 116.1751,-116.0744 190.921,-273.5781 200.2015,-448.4087 z m 1001.2398,-1040.3662 350.7606,18.796 412.2534,-58.3552 278.6862,-421.7672 c 18.3952,-33.3508 45.1349,-62.5615 79.5871,-83.9936 l 69.9046,-43.6314 c 107.8286,-67.2687 251.1779,-34.1519 318.5132,73.577 l 466.6348,746.4891 c 12.1856,19.4971 21.0317,40.0612 26.8411,61.2264 v 0 l 694.2108,1582.08 -0.2649,0.18 h -239.0265 l -641.2651,-1166.5891 -170.4901,462.2294 v 474.7141 l 1.6832,54.3509 -213.5595,-224.1813 1.7272,-40.1522 v -283.0256 l 6.5768,-36.0879 75.1793,-590.7555 -3.6716,-5.6753 -384.1454,-614.5238 -225.973,215.8578 -69.3709,41.0273 -441.0637,62.4944 -38.2913,130.8972 -7.657,24.9451 -416.5337,-384.5207 z M 3220,-5254.5364 l 1717.4174,92.2721 1157.3074,1156.2396 -224.5707,-12.0187 c -12.0853,228.3106 -109.6986,433.9869 -261.4605,585.5483 -162.3103,162.2109 -386.6483,262.4954 -634.3542,262.4954 -247.6729,0 -472.0108,-100.2845 -634.288,-262.4954 -162.3445,-162.1439 -262.7617,-386.1813 -262.7617,-633.7209 0,-16.1238 0.4353,-32.1477 1.2681,-48.0716 l -695.6134,-37.357 z"
       style="fill:#000000;fill-opacity:1;fill-rule:evenodd;stroke:none;stroke-width:33.383564"
       id="path269"
       inkscape:connector-curvature="0"
       sodipodi:nodetypes="cssccscscccccccccccccccccccccccccccccccccccccccscsccc" />
    <rect
       y="-2932.2688"
       x="7137.2559"
       height="8000"
       width="900"
       id="rect1259"
       style="fill:#be141e;fill-opacity:1;stroke:none;stroke-width:168.22227478;stroke-miterlimit:4;stroke-dasharray:none;stroke-opacity:1"
       transform="rotate(-45)" />
    <circle
       style="fill:#000000;fill-opacity:1;stroke:none;stroke-width:265.09051514;stroke-miterlimit:4;stroke-dasharray:none;stroke-opacity:1"
       id="path1281"
       cx="7302.5"
       cy="-5982.5"
       r="287.5" />
  </g>
</svg>
