<?xml version="1.0" encoding="UTF-8" standalone="no"?>
<!-- Created with Inkscape (http://www.inkscape.org/) -->

<svg
   xmlns:dc="http://purl.org/dc/elements/1.1/"
   xmlns:cc="http://creativecommons.org/ns#"
   xmlns:rdf="http://www.w3.org/1999/02/22-rdf-syntax-ns#"
   xmlns:svg="http://www.w3.org/2000/svg"
   xmlns="http://www.w3.org/2000/svg"
   xmlns:sodipodi="http://sodipodi.sourceforge.net/DTD/sodipodi-0.dtd"
   xmlns:inkscape="http://www.inkscape.org/namespaces/inkscape"
   width="90.400002cm"
   height="90.400002cm"
   viewBox="0 0 9040.0002 9040"
   version="1.1"
   id="svg30"
   inkscape:version="0.92.2 (5c3e80d, 2017-08-06)"
   sodipodi:docname="66.svg">
  <defs
     id="defs24" />
  <sodipodi:namedview
     id="base"
     pagecolor="#ffffff"
     bordercolor="#666666"
     borderopacity="1.0"
     inkscape:pageopacity="0.0"
     inkscape:pageshadow="2"
     inkscape:zoom="0.13489583"
     inkscape:cx="2460.8541"
     inkscape:cy="1200.8122"
     inkscape:document-units="cm"
     inkscape:current-layer="layer1"
     showgrid="false"
     units="cm"
     inkscape:window-width="1920"
     inkscape:window-height="1057"
     inkscape:window-x="-8"
     inkscape:window-y="-8"
     inkscape:window-maximized="1"
     fit-margin-top="0"
     fit-margin-left="0"
     fit-margin-right="0"
     fit-margin-bottom="0" />
  <metadata
     id="metadata27">
    <rdf:RDF>
      <cc:Work
         rdf:about="">
        <dc:format>image/svg+xml</dc:format>
        <dc:type
           rdf:resource="http://purl.org/dc/dcmitype/StillImage" />
        <dc:title></dc:title>
      </cc:Work>
    </rdf:RDF>
  </metadata>
  <g
     inkscape:label="Layer 1"
     inkscape:groupmode="layer"
     id="layer1"
     transform="translate(60.997383,27849.939)">
    <circle
       id="path32"
       cx="4459.0024"
       cy="-23329.939"
       style="fill:#be141e;fill-opacity:1;stroke:none;stroke-width:7.43594885"
       r="4500" />
    <circle
       style="fill:#ffffff;fill-opacity:1;stroke:none;stroke-width:4.06587029"
       id="path5072"
       cx="4459.0024"
       cy="-23329.939"
       r="3600" />
    <path
       style="fill:#000000;fill-opacity:1;fill-rule:nonzero;stroke:none;stroke-width:33.69497681"
       d="m 1739.0008,-25179.935 c -155.12,0 -279.998,124.878 -279.998,279.998 v 2719.999 h 3059.999 c 0,0 241.814,17.191 275.265,-0.418 74.029,25.575 142.293,44.979 221.847,45.418 h 26.8889 l -524.0009,-535 v -2229.999 c 0,-155.12 -124.878,-279.998 -279.998,-279.998 z"
       id="path1255"
       inkscape:connector-curvature="0"
       sodipodi:nodetypes="ssccccccsss" />
    <path
       inkscape:connector-curvature="0"
       id="path1257"
       style="fill:#000000;fill-opacity:1;fill-rule:nonzero;stroke:none;stroke-width:33.69497681"
       d="m 6930.4608,-21706.912 c -265.82,0 -481.266,-215.479 -481.266,-481.3 0,-133.499 54.418,-254.329 142.261,-341.465 l 111.328,223.971 -29.214,80.329 c -62.066,-3.436 -84.372,116.383 12.131,120.459 24.529,87.809 110.35,159.243 202.304,173.597 23.013,63.919 106.105,29.214 126.457,-11.624 94.616,-35.38 172.181,-136.802 172.923,-234.82 -2.73,-252.511 -257.295,-316.431 -387.223,-230.037 l -98.591,-203.685 c 67.996,-36.526 145.798,-57.383 228.418,-57.383 187.412,0 349.922,106.847 429.846,262.956 1.449,2.998 2.933,6.03 4.449,9.063 l 0.105,0.229 c 30.359,63.077 47.442,133.77 47.442,208.404 0,265.82 -215.547,481.299 -481.366,481.299 m 708.538,-481.299 c 0,-391.3 -317.103,-708.538 -708.538,-708.538 -109.476,0 -213.425,24.866 -306.086,69.31 l -206.719,-383.415 c 259.857,-129.355 620.73,-75.578 892.851,152.437 38.175,29.921 45.589,-38.111 15.734,-71.468 -204.258,-243.648 -598.321,-340.319 -944.638,-186.501 l -14.388,-23.823 8.188,-19.037 -12.871,-21.8 -18.465,-4.078 -16.982,-45.59 78.913,-306.961 -308.915,-123.862 16.948,-33.325 c 3.471,-42.253 -93.874,-47.003 -141.553,-70.827 -30.628,-29.28 -89.089,-20.419 -112.271,22.441 l -108.869,52.429 c -34.671,17.725 -34.671,87.102 19.678,97.345 -14.354,17.016 -16.948,42.894 -9.535,61.225 -86.462,4.111 -166.722,44.948 -223.971,119.784 6.84,-87.741 -143.506,-12.197 -247.725,105.501 -63.279,58.661 -156.513,110.114 -269.122,104.925 l 809.387,809.421 c -11.22,-30.258 -25.103,-57.484 -41.31,-79.251 l 25.911,-63.986 114.293,8.862 -4.177,48.317 c -10.783,39.457 72.949,8.862 88.55,-30.628 43.601,-154.492 107.52,-306.253 241.694,-396.085 l 190.478,364.783 17.488,20.015 c -144.923,127.367 -237.247,313.026 -240.718,520.25 l 720.299,720.398 c 385.84,-6.503 696.441,-320.945 696.441,-708.268" />
    <circle
       r="874"
       cy="-22295.939"
       cx="3015.002"
       id="circle1375"
       style="fill:#ffffff;fill-opacity:1;stroke:none;stroke-width:173.26303101;stroke-miterlimit:4;stroke-dasharray:none;stroke-opacity:1" />
    <circle
       style="fill:#000000;fill-opacity:1;stroke:none;stroke-width:297.13934326;stroke-miterlimit:4;stroke-dasharray:none;stroke-opacity:1"
       id="circle1377"
       cx="3015.002"
       cy="-22295.939"
       r="816" />
    <circle
       r="378"
       cy="-22295.939"
       cx="3015.002"
       id="circle1379"
       style="fill:#ffffff;fill-opacity:1;stroke:none;stroke-width:137.64543152;stroke-miterlimit:4;stroke-dasharray:none;stroke-opacity:1" />
    <circle
       r="113"
       cy="-22295.939"
       cx="3015.002"
       id="circle1381"
       style="fill:#000000;fill-opacity:1;stroke:none;stroke-width:41.14797211;stroke-miterlimit:4;stroke-dasharray:none;stroke-opacity:1" />
    <rect
       y="-17343.766"
       x="19199.748"
       height="8000"
       width="900"
       id="rect1915"
       style="fill:#be141e;fill-opacity:1;stroke:none;stroke-width:2.21745968;stroke-miterlimit:10;stroke-dasharray:none;stroke-opacity:1"
       transform="rotate(-45)" />
  </g>
</svg>
