<?xml version="1.0" encoding="UTF-8" standalone="no"?>
<!-- Created with Inkscape (http://www.inkscape.org/) -->

<svg
   xmlns:dc="http://purl.org/dc/elements/1.1/"
   xmlns:cc="http://creativecommons.org/ns#"
   xmlns:rdf="http://www.w3.org/1999/02/22-rdf-syntax-ns#"
   xmlns:svg="http://www.w3.org/2000/svg"
   xmlns="http://www.w3.org/2000/svg"
   xmlns:sodipodi="http://sodipodi.sourceforge.net/DTD/sodipodi-0.dtd"
   xmlns:inkscape="http://www.inkscape.org/namespaces/inkscape"
   width="121.4cm"
   height="199.39999cm"
   viewBox="0 0 1214 1993.9998"
   version="1.1"
   id="svg8"
   inkscape:version="0.92.2 (5c3e80d, 2017-08-06)"
   sodipodi:docname="66.svg">
  <defs
     id="defs2" />
  <sodipodi:namedview
     id="base"
     pagecolor="#ffffff"
     bordercolor="#666666"
     borderopacity="1.0"
     inkscape:pageopacity="0.0"
     inkscape:pageshadow="2"
     inkscape:zoom="0.042557909"
     inkscape:cx="3767.5391"
     inkscape:cy="3635.6607"
     inkscape:document-units="cm"
     inkscape:current-layer="layer1"
     showgrid="false"
     units="cm"
     fit-margin-top="0"
     fit-margin-left="0"
     fit-margin-right="0"
     fit-margin-bottom="0"
     inkscape:window-width="1920"
     inkscape:window-height="1057"
     inkscape:window-x="-8"
     inkscape:window-y="-8"
     inkscape:window-maximized="1"
     showguides="false" />
  <metadata
     id="metadata5">
    <rdf:RDF>
      <cc:Work
         rdf:about="">
        <dc:format>image/svg+xml</dc:format>
        <dc:type
           rdf:resource="http://purl.org/dc/dcmitype/StillImage" />
        <dc:title></dc:title>
      </cc:Work>
    </rdf:RDF>
  </metadata>
  <g
     inkscape:label="Layer 1"
     inkscape:groupmode="layer"
     id="layer1"
     transform="translate(2995.0923,7293.4615)">
    <rect
       style="fill:#000000;fill-opacity:1;stroke:none;stroke-width:1.23986554"
       id="rect815"
       width="1210"
       height="1989.9999"
       x="-2993.0923"
       y="-7291.4614"
       rx="104.99999"
       ry="104.99999" />
    <rect
       ry="100"
       rx="100"
       y="-7286.4614"
       x="-2988.0923"
       height="1980"
       width="1200"
       id="rect8703"
       style="fill:#ffffff;fill-opacity:1;stroke:none;stroke-width:1.23162544" />
    <rect
       ry="80"
       rx="80"
       style="fill:#000000;fill-opacity:1;stroke:none;stroke-width:1.19863033"
       id="rect8705"
       width="1160"
       height="1940"
       x="-2968.0923"
       y="-7266.4614" />
    <rect
       ry="40"
       rx="40"
       style="fill:#ffffff;fill-opacity:1;stroke:none;stroke-width:1.13246238"
       id="rect8707"
       width="1080"
       height="1860"
       x="-2928.0923"
       y="-7226.4614" />
    <path
       d="m -2670.8902,-6067.8191 h 0.2868 c 4.2727,0.239 7.7377,-0.7168 10.4283,-2.5617 3.0349,-2.1028 4.5428,-5.2357 4.5428,-9.4176 0,-3.8688 -1.4099,-6.8869 -4.2321,-9.0376 -2.5616,-2.0312 -5.8164,-3.0516 -9.7617,-3.0516 h -21.8844 v 24.0685 z m -35.7108,-39.496 h 33.6103 c 6.3732,0 11.1549,0.5257 14.2137,1.5771 5.5057,1.8401 10.0316,5.176 13.6066,10.015 3.582,4.8558 5.379,10.1585 5.379,15.9246 0,8.5645 -3.2211,15.4443 -9.6446,20.6298 -5.9096,4.7793 -13.2696,7.1642 -22.0947,7.1642 h -19.9798 v 42.9444 h -15.0905 z"
       style="fill:#000000;fill-opacity:1;fill-rule:nonzero;stroke:none;stroke-width:8.43013859;stroke-opacity:1"
       id="path1584"
       inkscape:connector-curvature="0" />
    <path
       d="m -2588.8226,-6067.7187 c 4.005,0.239 7.3768,-0.7886 10.1417,-2.7481 3.0014,-2.2223 4.5021,-5.3098 4.5021,-9.2312 0,-3.7422 -1.3621,-6.6934 -4.0815,-8.8345 -2.698,-2.1746 -5.9694,-3.2523 -9.7785,-3.2523 h -20.03 v 24.0661 z m -34.4969,-39.5964 h 35.4742 c 8.2038,0 15.1241,2.588 20.7972,7.7544 5.673,5.1759 8.4713,11.8287 8.4713,19.9535 0,5.1688 -1.3622,10.0079 -4.146,14.5434 -2.7816,4.5093 -6.5166,7.9145 -11.1454,10.2157 l 17.3655,45.8789 h -16.9688 l -15.9413,-42.7413 h -18.656 v 42.7413 h -15.2507 z"
       style="fill:#000000;fill-opacity:1;fill-rule:nonzero;stroke:none;stroke-width:8.43013859;stroke-opacity:1"
       id="path1588"
       inkscape:connector-curvature="0" />
    <path
       d="m -2489.3894,-6081.2727 c -3.3981,-8.1368 -8.9349,-12.1896 -16.5818,-12.1896 -6.887,0 -11.9028,4.4495 -15.0643,13.37 -2.1745,6.0267 -3.2547,13.3199 -3.2547,21.9011 0,8.7079 1.0993,16.0584 3.2547,22.0111 3.1615,8.7174 8.304,13.0737 15.4514,13.0737 7.5274,0 12.94,-4.3563 16.295,-13.0737 2.2941,-6.0961 3.4411,-13.6904 3.4411,-22.7949 0,-9.1045 -1.1948,-16.5411 -3.5414,-22.2977 m 12.2063,57.079 c -6.0697,11.4584 -15.2675,17.1983 -27.7008,17.1983 -12.9232,0 -22.3312,-5.8092 -28.2169,-17.399 -4.6096,-8.8441 -6.8703,-20.3335 -6.8703,-34.4802 0,-13.6305 2.2702,-24.7926 6.8703,-33.5005 5.8188,-11.2719 14.964,-16.9043 27.4164,-16.9043 12.9303,0 22.4316,5.4986 28.3914,16.5077 4.7219,8.5812 7.0829,20.1065 7.0829,34.5805 0,13.6903 -2.3658,25.0196 -6.973,33.9975"
       style="fill:#000000;fill-opacity:1;fill-rule:nonzero;stroke:none;stroke-width:8.43013859;stroke-opacity:1"
       id="path1592"
       inkscape:connector-curvature="0" />
    <path
       d="m -2453.7383,-6107.3151 h 15.2245 v 39.5964 h 35.8877 v -39.5964 h 15.7143 v 98.2551 h -15.7143 v -42.7413 h -35.8877 v 42.7413 h -15.2245 z"
       style="fill:#000000;fill-opacity:1;fill-rule:nonzero;stroke:none;stroke-width:8.43013859;stroke-opacity:1"
       id="path1596"
       inkscape:connector-curvature="0" />
    <path
       d="m -2370.4066,-6107.3151 h 15.7215 v 98.2551 h -15.7215 z"
       style="fill:#000000;fill-opacity:1;fill-rule:nonzero;stroke:none;stroke-width:8.43013859;stroke-opacity:1"
       id="path1598"
       inkscape:connector-curvature="0" />
    <path
       d="m -2298.0075,-6025.0778 c 3.1353,0 5.7663,-1.0277 7.8142,-3.1018 2.079,-2.0552 3.1113,-4.6622 3.1113,-7.7974 0,-4.0648 -1.2904,-7.6732 -3.8616,-10.8084 -2.741,-3.2882 -6.1199,-4.9155 -10.0819,-4.9155 h -21.9275 v 26.6231 z m -5.195,-42.5382 c 3.8712,0 7.1331,-1.4098 9.8214,-4.1651 2.6979,-2.7983 4.0217,-6.1199 4.0217,-9.9816 0,-6.6838 -3.5819,-10.0221 -10.8154,-10.0221 h -22.7782 v 24.1688 z m -34.9916,-39.6991 h 37.5222 c 7.2908,0 13.5302,2.2941 18.7993,6.8798 5.3696,4.8485 8.0412,10.8322 8.0412,17.982 0,10.0915 -4.5929,17.4493 -13.8575,22.1043 5.0493,2.1745 9.0113,5.3265 11.9363,9.4821 2.9177,4.1579 4.3754,8.9277 4.3754,14.2996 0,8.5143 -2.8748,15.2914 -8.6242,20.3335 -5.4628,4.7865 -12.4931,7.1738 -21.1269,7.1738 h -37.0658 z"
       style="fill:#000000;fill-opacity:1;fill-rule:nonzero;stroke:none;stroke-width:8.43013859;stroke-opacity:1"
       id="path1602"
       inkscape:connector-curvature="0" />
    <path
       d="m -2254.8552,-6107.3151 h 15.7239 v 98.2551 h -15.7239 z"
       style="fill:#000000;fill-opacity:1;fill-rule:nonzero;stroke:none;stroke-width:8.43013859;stroke-opacity:1"
       id="path1604"
       inkscape:connector-curvature="0" />
    <path
       d="m -2175.3828,-6037.3702 c 2.5618,-6.0864 3.8259,-13.124 3.8259,-21.1245 0,-7.9169 -1.0992,-14.8635 -3.3288,-20.8305 -3.1281,-8.3709 -8.0101,-12.5624 -14.5505,-12.5624 h -17.9726 v 66.8002 h 16.4957 c 6.93,0 12.0988,-4.0887 15.5303,-12.2828 m -3.2212,-68.5614 c 7.5776,2.6048 13.48,9.1309 17.6524,19.5402 3.4052,8.5143 5.1185,17.4851 5.1185,26.9194 0,20.3072 -5.802,35.1445 -17.3846,44.519 -4.8893,3.9119 -9.475,5.8834 -13.6401,5.8834 h -35.7778 v -98.2455 h 34.1935 c 3.7852,0 7.0733,0.454 9.8381,1.3859"
       style="fill:#000000;fill-opacity:1;fill-rule:nonzero;stroke:none;stroke-width:8.43013859;stroke-opacity:1"
       id="path1608"
       inkscape:connector-curvature="0" />
    <path
       d="m -2088.7222,-6081.2727 c -3.4316,-8.1368 -8.9516,-12.1896 -16.6319,-12.1896 -6.8703,0 -11.8694,4.4495 -15.0142,13.37 -2.1507,6.0267 -3.238,13.3199 -3.238,21.9011 0,8.7079 1.0753,16.0584 3.238,22.0111 3.1448,8.7174 8.2873,13.0737 15.418,13.0737 7.5107,0 12.9734,-4.3563 16.3284,-13.0737 2.2463,-6.0961 3.4077,-13.6904 3.4077,-22.7949 0,-9.1045 -1.1471,-16.5411 -3.508,-22.2977 m 12.1561,57.079 c -6.0028,11.4584 -15.2579,17.1983 -27.7008,17.1983 -12.8897,0 -22.2811,-5.8092 -28.1978,-17.399 -4.5618,-8.8441 -6.8894,-20.3335 -6.8894,-34.4802 0,-13.6305 2.318,-24.7926 6.8894,-33.5005 5.8331,-11.2719 14.9544,-16.9043 27.3973,-16.9043 13.0068,0 22.4483,5.4986 28.4009,16.5077 4.7196,8.5812 7.0901,20.1065 7.0901,34.5805 0,13.6903 -2.318,25.0196 -6.9897,33.9975"
       style="fill:#000000;fill-opacity:1;fill-rule:nonzero;stroke:none;stroke-width:8.43013859;stroke-opacity:1"
       id="path1612"
       inkscape:connector-curvature="0" />
    <path
       d="m -2728.139,-5849.2166 c 0,9.4151 -2.9679,17.0118 -8.9205,22.7447 -5.9837,5.7327 -13.6902,8.5979 -23.1055,8.5979 -12.2493,0 -21.4207,-5.6134 -27.524,-16.8016 -4.8318,-8.8418 -7.2502,-19.9798 -7.2502,-33.4073 0,-14.1371 2.4519,-25.703 7.3506,-34.6834 6.2896,-11.3292 15.9413,-16.9951 28.8909,-16.9951 15.2578,0 25.476,7.2669 30.5587,21.8104 l -14.7369,5.8068 c -3.0014,-7.7377 -8.5812,-11.6066 -16.6989,-11.6066 -7.4103,0 -12.7392,4.2488 -16.0106,12.7798 -2.3179,5.893 -3.4387,13.2937 -3.4387,22.2047 0,23.5714 6.2394,35.3644 18.7563,35.3644 5.2357,0 9.3579,-1.6729 12.3258,-5.0159 2.9919,-3.3312 4.4687,-7.6206 4.4687,-12.8635 0,-0.5974 0,-1.2665 0,-2.0551 h -17.8889 v -15.418 h 33.2997 z"
       style="fill:#000000;fill-opacity:1;fill-rule:nonzero;stroke:none;stroke-width:8.43013859;stroke-opacity:1"
       id="path1616"
       inkscape:connector-curvature="0" />
    <path
       d="m -2711.6241,-5917.9978 h 15.7047 v 98.2431 h -15.7047 z"
       style="fill:#000000;fill-opacity:1;fill-rule:nonzero;stroke:none;stroke-width:8.43013859;stroke-opacity:1"
       id="path1618"
       inkscape:connector-curvature="0" />
    <path
       d="m -2644.9171,-5878.4109 c 3.9883,0.239 7.3768,-0.7887 10.1417,-2.7481 3.0013,-2.2224 4.4925,-5.3098 4.4925,-9.2312 0,-3.7422 -1.3383,-6.6839 -4.0552,-8.8418 -2.7314,-2.1506 -6.0005,-3.2474 -9.7785,-3.2474 h -20.0635 v 24.0685 z m -34.497,-39.5964 h 35.4743 c 8.1774,0 15.1169,2.5879 20.7804,7.7568 5.673,5.1759 8.5072,11.8263 8.5072,19.9535 0,5.1688 -1.3861,10.0078 -4.1819,14.5338 -2.7816,4.5188 -6.4999,7.924 -11.1453,10.2253 l 17.4013,45.8859 h -17.0047 l -15.9246,-42.7483 h -18.6727 v 42.7483 h -15.234 z"
       style="fill:#000000;fill-opacity:1;fill-rule:nonzero;stroke:none;stroke-width:8.43013859;stroke-opacity:1"
       id="path1622"
       inkscape:connector-curvature="0" />
    <path
       d="m -2544.4971,-5862.9834 -9.6445,-27.5 -10.1083,27.5 z m -17.5782,-55.0144 h 15.5136 l 33.9975,98.2526 h -16.5985 l -9.7282,-27.4235 h -30.8551 l -9.7282,27.4235 h -16.5986 z"
       style="fill:#000000;fill-opacity:1;fill-rule:nonzero;stroke:none;stroke-width:8.43013859;stroke-opacity:1"
       id="path1626"
       inkscape:connector-curvature="0" />
    <path
       d="m -2461.6026,-5878.4109 c 4.0194,0.239 7.3744,-0.7887 10.1393,-2.7481 3.0013,-2.2224 4.5188,-5.3098 4.5188,-9.2312 0,-3.7422 -1.3621,-6.6839 -4.0791,-8.8418 -2.7147,-2.1506 -5.9861,-3.2474 -9.7785,-3.2474 h -20.03 v 24.0685 z m -34.4969,-39.5964 h 35.4742 c 8.2013,0 15.1241,2.5879 20.7972,7.7568 5.673,5.1759 8.4713,11.8263 8.4713,19.9535 0,5.1688 -1.3622,10.0078 -4.1461,14.5338 -2.7839,4.5188 -6.5166,7.924 -11.1453,10.2253 l 17.3655,45.8859 h -16.9521 l -15.9413,-42.7483 h -18.656 v 42.7483 h -15.2674 z"
       style="fill:#000000;fill-opacity:1;fill-rule:nonzero;stroke:none;stroke-width:8.43013859;stroke-opacity:1"
       id="path1630"
       inkscape:connector-curvature="0" />
    <path
       d="m -2275.8626,-5862.9834 -9.6446,-27.5 -10.1416,27.5 z m -17.6189,-55.0144 h 15.5542 l 33.9976,98.2526 h -16.6319 l -9.7212,-27.4235 h -30.8455 l -9.7115,27.4235 h -16.632 z"
       style="fill:#000000;fill-opacity:1;fill-rule:nonzero;stroke:none;stroke-width:8.43013859;stroke-opacity:1"
       id="path1634"
       inkscape:connector-curvature="0" />
    <path
       d="m -2142.1763,-5917.9978 h 15.1385 v 84.0056 h 45.8024 v 14.247 h -60.9409 z"
       style="fill:#000000;fill-opacity:1;fill-rule:nonzero;stroke:none;stroke-width:8.43013859;stroke-opacity:1"
       id="path1638"
       inkscape:connector-curvature="0" />
    <path
       d="m -2013.1449,-5862.9834 -9.6447,-27.5 -10.1416,27.5 z m -17.6189,-55.0144 h 15.5518 l 34,98.2526 h -16.632 l -9.7211,-27.4235 h -30.8455 l -9.7116,27.4235 h -16.6319 z"
       style="fill:#000000;fill-opacity:1;fill-rule:nonzero;stroke:none;stroke-width:8.43013859;stroke-opacity:1"
       id="path1642"
       inkscape:connector-curvature="0" />
    <path
       d="m -2626.6578,-5658.7475 c 2.564,-6.0936 3.8282,-13.124 3.8282,-21.1245 0,-7.9169 -1.1232,-14.8707 -3.3312,-20.8305 -3.1448,-8.371 -7.991,-12.5696 -14.5171,-12.5696 h -18.006 v 66.8169 h 16.5149 c 6.9371,0 12.0964,-4.1054 15.5112,-12.2923 m -3.2189,-68.5685 c 7.5943,2.6119 13.4967,9.138 17.669,19.5473 3.4053,8.5167 5.1163,17.4946 5.1163,26.9193 0,20.3072 -5.7997,35.135 -17.4158,44.5096 -4.8725,3.9285 -9.4414,5.8929 -13.6066,5.8929 h -35.7778 v -98.2432 h 34.1934 c 3.7852,0 7.0543,0.454 9.8215,1.3861"
       style="fill:#000000;fill-opacity:1;fill-rule:nonzero;stroke:none;stroke-width:8.43013859;stroke-opacity:1"
       id="path1646"
       inkscape:connector-curvature="0" />
    <path
       d="m -2590.6028,-5728.6901 h 57.7815 v 15.418 h -42.624 v 24.0757 h 28.8741 v 15.7143 h -28.8741 v 27.0365 h 45.7856 v 16.0082 h -60.9431 z"
       style="fill:#000000;fill-opacity:1;fill-rule:nonzero;stroke:none;stroke-width:8.43013859;stroke-opacity:1"
       id="path1650"
       inkscape:connector-curvature="0" />
    <path
       d="m -2478.6742,-5689.1032 c 4.0026,0.239 7.3601,-0.7886 10.1249,-2.7481 3.0014,-2.2223 4.4926,-5.3122 4.4926,-9.2312 0,-3.7422 -1.3622,-6.6934 -4.0553,-8.8512 -2.7314,-2.1507 -5.9861,-3.2452 -9.7617,-3.2452 h -20.0802 v 24.0757 z m -34.4707,-39.5964 h 35.4647 c 8.1607,0 15.0978,2.588 20.7637,7.7568 5.6396,5.1759 8.5048,11.8192 8.5048,19.9535 0,5.1664 -1.41,10.0055 -4.1796,14.5339 -2.8006,4.5092 -6.4998,7.924 -11.1619,10.2252 l 17.3989,45.886 h -17.0023 l -15.8911,-42.7508 h -18.7062 v 42.7508 h -15.191 z"
       style="fill:#000000;fill-opacity:1;fill-rule:nonzero;stroke:none;stroke-width:8.43013859;stroke-opacity:1"
       id="path1654"
       inkscape:connector-curvature="0" />
    <path
       d="m -2429.8562,-5728.6901 h 57.7626 v 15.418 h -42.605 v 24.0757 h 28.874 v 15.7143 h -28.874 v 27.0365 h 45.7664 v 16.0082 h -60.924 z"
       style="fill:#000000;fill-opacity:1;fill-rule:nonzero;stroke:none;stroke-width:8.43013859;stroke-opacity:1"
       id="path1658"
       inkscape:connector-curvature="0" />
    <path
       d="m -2285.6172,-5650.3909 c -5.1759,14.4741 -15.5111,21.7242 -31.0462,21.7242 -12.3927,0 -21.7506,-5.6753 -28.0902,-17.0047 -5.1092,-9.1714 -7.6636,-20.4936 -7.6636,-33.9974 0,-13.9436 2.5544,-25.3853 7.6636,-34.2867 6.2632,-10.9326 15.7979,-16.4145 28.5777,-16.4145 14.7441,0 24.9359,6.6599 30.5587,19.956 l -14.431,6.2871 c -4.4089,-6.9371 -9.2647,-10.4188 -14.6509,-10.4188 -4.8653,0 -8.6075,0.908 -11.3055,2.748 -3.7517,2.6215 -6.5427,7.5274 -8.4473,14.7442 -1.4577,5.4962 -2.1746,11.3054 -2.1746,17.3847 0,8.9086 1.2904,16.3786 3.845,22.3981 3.4649,8.3279 9.0041,12.4835 16.5984,12.4835 7.7234,0 12.9997,-3.692 15.8243,-11.1022 z"
       style="fill:#000000;fill-opacity:1;fill-rule:nonzero;stroke:none;stroke-width:8.43013859;stroke-opacity:1"
       id="path1662"
       inkscape:connector-curvature="0" />
    <path
       d="m -2269.119,-5728.6901 h 15.2411 v 39.5941 h 35.8471 v -39.5941 h 15.7382 v 98.2527 h -15.7382 v -42.7412 h -35.8471 v 42.7412 h -15.2411 z"
       style="fill:#000000;fill-opacity:1;fill-rule:nonzero;stroke:none;stroke-width:8.43013859;stroke-opacity:1"
       id="path1666"
       inkscape:connector-curvature="0" />
    <path
       d="m -2134.2283,-5673.6756 -9.6087,-27.5001 -10.1249,27.5001 z m -17.5591,-55.0145 h 15.4945 l 33.9974,98.2527 h -16.5817 l -9.7449,-27.4235 h -30.8528 l -9.7306,27.4235 h -16.5817 z"
       style="fill:#000000;fill-opacity:1;fill-rule:nonzero;stroke:none;stroke-width:8.43013859;stroke-opacity:1"
       id="path1670"
       inkscape:connector-curvature="0" />
    <path
       d="m -2821.2921,-5461.076 c -5.1761,14.4837 -15.4945,21.7243 -31.0487,21.7243 -12.376,0 -21.7338,-5.673 -28.0903,-17.0047 -5.1066,-9.1715 -7.6612,-20.4936 -7.6612,-33.9975 0,-13.9364 2.5546,-25.3828 7.6612,-34.2867 6.2992,-10.9421 15.8171,-16.4049 28.5802,-16.4049 14.7776,0 24.9526,6.6528 30.5588,19.9464 l -14.4168,6.28 c -4.4089,-6.93 -9.2813,-10.4117 -14.6509,-10.4117 -4.839,0 -8.6243,0.932 -11.2886,2.7576 -3.7494,2.6143 -6.574,7.5274 -8.445,14.737 -1.4578,5.4962 -2.1747,11.3031 -2.1747,17.3823 0,8.9109 1.2665,16.3786 3.8283,22.3982 3.4458,8.3303 9.0017,12.4858 16.5817,12.4858 7.7377,0 13.0235,-3.692 15.8649,-11.1023 z"
       style="fill:#000000;fill-opacity:1;fill-rule:nonzero;stroke:none;stroke-width:8.43013859;stroke-opacity:1"
       id="path1674"
       inkscape:connector-curvature="0" />
    <path
       d="m -2754.1813,-5513.3352 c -3.3957,-8.1343 -8.9349,-12.1896 -16.5818,-12.1896 -6.8869,0 -11.9028,4.4519 -15.0643,13.3702 -2.1746,6.0266 -3.2547,13.3198 -3.2547,21.901 0,8.7079 1.0992,16.0513 3.2547,22.0111 3.1615,8.7174 8.304,13.0761 15.4539,13.0761 7.5273,0 12.9566,-4.3587 16.295,-13.0761 2.294,-6.0936 3.4387,-13.6903 3.4387,-22.7853 0,-9.1141 -1.1949,-16.5483 -3.5415,-22.3074 m 12.2087,57.0816 c -6.0697,11.4727 -15.2674,17.1958 -27.7032,17.1958 -12.9231,0 -22.3312,-5.8068 -28.2145,-17.3894 -4.612,-8.8442 -6.8703,-20.343 -6.8703,-34.4898 0,-13.6305 2.2703,-24.7925 6.8703,-33.5004 5.8164,-11.272 14.9639,-16.902 27.414,-16.902 12.9328,0 22.434,5.4962 28.4105,16.5052 4.7028,8.5837 7.0805,20.1161 7.0805,34.5806 0,13.6904 -2.3657,25.022 -6.9873,34"
       style="fill:#000000;fill-opacity:1;fill-rule:nonzero;stroke:none;stroke-width:8.43013859;stroke-opacity:1"
       id="path1678"
       inkscape:connector-curvature="0" />
    <path
       d="m -2718.5206,-5539.3751 h 15.2244 l 36.0646,62.7784 v -62.7784 h 15.5374 v 98.2526 h -13.8504 l -37.7516,-66.5133 v 66.5133 h -15.2244 z"
       style="fill:#000000;fill-opacity:1;fill-rule:nonzero;stroke:none;stroke-width:8.43013859;stroke-opacity:1"
       id="path1682"
       inkscape:connector-curvature="0" />
    <path
       d="m -2549.9096,-5539.3751 h 15.1241 v 84.0152 h 45.7832 v 14.2374 h -60.9073 z"
       style="fill:#000000;fill-opacity:1;fill-rule:nonzero;stroke:none;stroke-width:8.43013859;stroke-opacity:1"
       id="path1686"
       inkscape:connector-curvature="0" />
    <path
       d="m -2457.263,-5539.3751 v 63.0747 c 0,5.9 1.4577,10.7557 4.4256,14.5338 3.1878,4.1962 7.6899,6.3039 13.4466,6.3039 5.2954,0 9.6876,-1.864 13.0594,-5.6133 3.4052,-3.7254 5.1162,-8.2706 5.1162,-13.6496 v -64.6495 h 15.5279 v 64.2552 c 0,10.1655 -3.042,18.613 -9.1284,25.3493 -6.2992,6.9539 -14.4837,10.4189 -24.5751,10.4189 -10.0724,0 -18.1757,-3.3479 -24.2788,-10.0246 -5.7997,-6.3469 -8.751,-14.5075 -8.8179,-24.4628 v -65.536 z"
       style="fill:#000000;fill-opacity:1;fill-rule:nonzero;stroke:none;stroke-width:8.43013859;stroke-opacity:1"
       id="path1690"
       inkscape:connector-curvature="0" />
    <path
       d="m -2389.1796,-5454.5762 44.7294,-69.3713 h -40.8869 v -15.4276 h 62.9815 v 9.3411 l -45.7067,72.8937 h 45.7067 v 16.0106 h -66.824 z"
       style="fill:#000000;fill-opacity:1;fill-rule:nonzero;stroke:none;stroke-width:8.43013859;stroke-opacity:1"
       id="path1694"
       inkscape:connector-curvature="0" />
    <path
       d="m -2186.0812,-5499.7787 c 3.9859,0.239 7.3768,-0.7885 10.1417,-2.7481 3.0014,-2.2224 4.4925,-5.3121 4.4925,-9.2312 0,-3.7445 -1.3621,-6.6934 -4.0552,-8.8512 -2.7314,-2.1507 -6.0028,-3.2475 -9.7951,-3.2475 h -20.0468 v 24.078 z m -34.4969,-39.5964 h 35.4743 c 8.1774,0 15.1144,2.5784 20.7636,7.7544 5.673,5.1783 8.5071,11.8192 8.5071,19.9559 0,5.1664 -1.3859,10.0054 -4.1651,14.5338 -2.7816,4.5093 -6.4999,7.9241 -11.1453,10.2253 l 17.3823,45.8765 h -17.0024 l -15.9079,-42.7412 h -18.6726 v 42.7412 h -15.234 z"
       style="fill:#000000;fill-opacity:1;fill-rule:nonzero;stroke:none;stroke-width:8.43013859;stroke-opacity:1"
       id="path1698"
       inkscape:connector-curvature="0" />
    <path
       d="m -2086.6481,-5513.3352 c -3.4314,-8.1343 -8.9539,-12.1896 -16.6319,-12.1896 -6.8701,0 -11.8861,4.4519 -15.0141,13.3702 -2.1507,6.0266 -3.2379,13.3198 -3.2379,21.901 0,8.7079 1.0753,16.0513 3.2379,22.0111 3.128,8.7174 8.2873,13.0761 15.4012,13.0761 7.5274,0 12.9902,-4.3587 16.3452,-13.0761 2.2463,-6.0936 3.4077,-13.6903 3.4077,-22.7853 0,-9.1141 -1.147,-16.5483 -3.5081,-22.3074 m 12.1562,57.0816 c -6.0028,11.4727 -15.2578,17.1958 -27.7007,17.1958 -12.8898,0 -22.2978,-5.8068 -28.2003,-17.3894 -4.5595,-8.8442 -6.8869,-20.343 -6.8869,-34.4898 0,-13.6305 2.3179,-24.7925 6.8869,-33.5004 5.8355,-11.272 14.9568,-16.902 27.3997,-16.902 13.0069,0 22.4483,5.4962 28.3842,16.5052 4.7363,8.5837 7.0901,20.1161 7.0901,34.5806 0,13.6904 -2.3179,25.022 -6.973,34"
       style="fill:#000000;fill-opacity:1;fill-rule:nonzero;stroke:none;stroke-width:8.43013859;stroke-opacity:1"
       id="path1702"
       inkscape:connector-curvature="0" />
    <path
       d="m -2036.8669,-5464.0104 c 3.6992,5.6992 9.1045,8.5477 16.2257,8.5477 4.9824,0 9.0041,-1.5533 12.0892,-4.6789 3.0683,-3.1089 4.5953,-7.1737 4.5953,-12.223 v -67.0105 h 15.9317 v 68.4848 c 0,9.3005 -2.9918,16.8614 -8.9946,22.6945 -6.0028,5.8331 -13.6137,8.7437 -22.9143,8.7437 -13.781,0 -24.0924,-5.9861 -30.9364,-17.9749 z"
       style="fill:#000000;fill-opacity:1;fill-rule:nonzero;stroke:none;stroke-width:8.43013859;stroke-opacity:1"
       id="path1706"
       inkscape:connector-curvature="0" />
    <path
       d="m -1920.0252,-5484.3607 -9.6278,-27.4904 -10.1417,27.4904 z m -17.6116,-55.0144 h 15.5613 l 33.9831,98.2526 h -16.6175 l -9.7187,-27.4139 h -30.8623 l -9.7115,27.4139 h -16.6153 z"
       style="fill:#000000;fill-opacity:1;fill-rule:nonzero;stroke:none;stroke-width:8.43013859;stroke-opacity:1"
       id="path1710"
       inkscape:connector-curvature="0" />
    <circle
       style="fill:#be141e;fill-opacity:1;stroke:none;stroke-width:214.78665161;stroke-linejoin:miter;stroke-miterlimit:4;stroke-dasharray:none;stroke-opacity:1"
       id="path5041-3"
       cx="-2388.0923"
       cy="-6686.4614"
       r="499.99997" />
    <circle
       r="399.99994"
       cy="-6686.4614"
       cx="-2388.0923"
       id="circle5043-5"
       style="fill:#ffffff;fill-opacity:1;stroke:none;stroke-width:171.82933044;stroke-linejoin:miter;stroke-miterlimit:4;stroke-dasharray:none;stroke-opacity:1" />
    <path
       style="color:#000000;font-style:normal;font-variant:normal;font-weight:normal;font-stretch:normal;font-size:medium;line-height:normal;font-family:sans-serif;font-variant-ligatures:normal;font-variant-position:normal;font-variant-caps:normal;font-variant-numeric:normal;font-variant-alternates:normal;font-feature-settings:normal;text-indent:0;text-align:start;text-decoration:none;text-decoration-line:none;text-decoration-style:solid;text-decoration-color:#000000;letter-spacing:normal;word-spacing:normal;text-transform:none;writing-mode:lr-tb;direction:ltr;text-orientation:mixed;dominant-baseline:auto;baseline-shift:baseline;text-anchor:start;white-space:normal;shape-padding:0;clip-rule:nonzero;display:inline;overflow:visible;visibility:visible;opacity:1;isolation:auto;mix-blend-mode:normal;color-interpolation:sRGB;color-interpolation-filters:linearRGB;solid-color:#000000;solid-opacity:1;vector-effect:none;fill:#000000;fill-opacity:1;fill-rule:nonzero;stroke:none;stroke-width:44.45555115;stroke-linecap:butt;stroke-linejoin:round;stroke-miterlimit:4;stroke-dasharray:none;stroke-dashoffset:0;stroke-opacity:1;color-rendering:auto;image-rendering:auto;shape-rendering:auto;text-rendering:auto;enable-background:accumulate"
       d="m -2051.4257,-6796.4656 -213.5892,-160.1964 c -7.6969,-5.5941 -18.1006,-5.6695 -25.8776,-0.1872 -7.7772,5.4823 -11.2027,15.3062 -8.5206,24.4355 l 22.4319,69.2817 v 133.3372 l -22.4319,69.2817 c -2.6821,9.1293 0.7434,18.9532 8.5206,24.4355 7.777,5.4822 18.1807,5.4069 25.8776,-0.1872 z"
       id="path4497"
       inkscape:connector-curvature="0"
       sodipodi:nodetypes="ccsccccscc" />
    <path
       style="fill:#000000;fill-opacity:1;stroke:none;stroke-width:138.18292236;stroke-linejoin:miter;stroke-miterlimit:4;stroke-dasharray:none;stroke-opacity:1"
       d="m -2199.2034,-6863.128 h -363.3331 c -19.0823,0 -34.4447,15.3624 -34.4447,34.4446 v 453.3331 h 133.3332 v -330.5556 c 0,-13.2345 10.6543,-23.8889 23.8889,-23.8889 h 240.5557 z"
       id="rect7124"
       inkscape:connector-curvature="0"
       sodipodi:nodetypes="cssccsscc" />
    <rect
       y="-6861.123"
       x="2989.406"
       height="888.88885"
       width="99.999985"
       id="rect7148"
       style="fill:#be141e;fill-opacity:1;stroke:none;stroke-width:38.9966011;stroke-linejoin:miter;stroke-miterlimit:4;stroke-dasharray:none;stroke-opacity:1"
       transform="rotate(-45)" />
  </g>
</svg>
