<?xml version="1.0" encoding="UTF-8" standalone="no"?>
<!-- Created with Inkscape (http://www.inkscape.org/) -->

<svg
   xmlns:dc="http://purl.org/dc/elements/1.1/"
   xmlns:cc="http://creativecommons.org/ns#"
   xmlns:rdf="http://www.w3.org/1999/02/22-rdf-syntax-ns#"
   xmlns:svg="http://www.w3.org/2000/svg"
   xmlns="http://www.w3.org/2000/svg"
   xmlns:sodipodi="http://sodipodi.sourceforge.net/DTD/sodipodi-0.dtd"
   xmlns:inkscape="http://www.inkscape.org/namespaces/inkscape"
   width="90.400002cm"
   height="90.400002cm"
   viewBox="0 0 9040.0002 9039.9996"
   version="1.1"
   id="svg30"
   inkscape:version="0.92.2 (5c3e80d, 2017-08-06)"
   sodipodi:docname="66.svg">
  <defs
     id="defs24" />
  <sodipodi:namedview
     id="base"
     pagecolor="#ffffff"
     bordercolor="#666666"
     borderopacity="1.0"
     inkscape:pageopacity="0.0"
     inkscape:pageshadow="2"
     inkscape:zoom="0.12374369"
     inkscape:cx="4488.5218"
     inkscape:cy="1629.1422"
     inkscape:document-units="cm"
     inkscape:current-layer="layer1"
     showgrid="false"
     units="cm"
     inkscape:window-width="1920"
     inkscape:window-height="1057"
     inkscape:window-x="-8"
     inkscape:window-y="-8"
     inkscape:window-maximized="1" />
  <metadata
     id="metadata27">
    <rdf:RDF>
      <cc:Work
         rdf:about="">
        <dc:format>image/svg+xml</dc:format>
        <dc:type
           rdf:resource="http://purl.org/dc/dcmitype/StillImage" />
        <dc:title></dc:title>
      </cc:Work>
    </rdf:RDF>
  </metadata>
  <g
     inkscape:label="Layer 1"
     inkscape:groupmode="layer"
     id="layer1"
     transform="translate(0,6070)">
    <circle
       id="path32"
       cx="4520"
       cy="-1549.9999"
       style="fill:#be141e;fill-opacity:1;stroke:none;stroke-width:7.43594885"
       r="4500" />
    <circle
       style="fill:#ffffff;fill-opacity:1;stroke:none;stroke-width:4.06587029"
       id="path5072"
       cx="4520"
       cy="-1549.9999"
       r="3600" />
    <path
       d="m 6445.9743,-709.26927 -32.1884,18.58655 -32.1215,18.55263 v 37.17111 37.10525 l 32.1215,18.58655 32.1884,18.55263 32.1559,-18.55263 32.155,-18.58655 v -37.10525 -37.17111 l -32.155,-18.55263 z m 26.2966,397.4457 18.5868,32.15496 18.5523,32.15595 h 37.1381 37.1381 l 18.5533,-32.15595 18.5857,-32.15496 -18.5857,-32.18788 -18.5533,-32.15595 h -37.1381 -37.1381 l -18.5523,32.15595 z m 397.4456,-26.33037 32.1217,-18.58556 32.1549,-18.55262 v -37.13818 -37.10525 l -32.1549,-18.61949 -32.1217,-18.55162 -32.1884,18.55162 -32.1558,18.61949 v 37.10525 37.13818 l 32.1558,18.55262 z m -26.3299,-397.41177 -18.5858,-32.15496 -18.5533,-32.18888 h -37.1381 -37.1381 l -18.5523,32.18888 -18.5868,32.15496 18.5868,32.15595 18.5523,32.15495 h 37.1381 37.1381 l 18.5533,-32.15495 z m -185.5579,162.8976 c -27.0373,0 -48.9902,21.88608 -48.9902,48.957 0,27.06993 21.9529,48.98995 48.9902,48.98995 27.0373,0 48.9903,-21.92002 48.9903,-48.98995 0,-27.07092 -21.953,-48.957 -48.9903,-48.957 M 2370.0366,-977.28576 c -250.5072,0 -453.5742,203.06584 -453.5742,453.57465 0,250.50782 203.067,453.573657 453.5742,453.573657 250.5082,0 453.6085,-203.065837 453.6085,-453.573657 0,-250.50881 -203.1003,-453.57465 -453.6085,-453.57465 m -211.8534,268.01649 -32.1894,18.58655 -32.1216,18.55263 v 37.17111 37.10525 l 32.1216,18.58655 32.1894,18.55263 32.1549,-18.55263 32.155,-18.58655 v -37.10525 -37.17111 l -32.155,-18.55263 z m 26.3299,397.4457 18.5524,-32.18788 18.5524,-32.15595 h 37.1724 37.1047 l 18.5857,32.15595 18.5858,32.18788 -18.5858,32.15496 -18.5857,32.15595 h -37.1047 -37.1724 l -18.5524,-32.15595 z m 397.4113,-26.33037 -32.1884,-18.58556 -32.1549,-18.55262 v -37.13818 -37.10525 l 32.1549,-18.61949 32.1884,-18.55162 32.1216,18.55162 32.1893,18.61949 v 37.10525 37.13818 l -32.1893,18.55262 z m -26.3634,-397.41177 -18.5523,-32.15496 -18.5524,-32.18888 h -37.139 -37.1381 l -18.5858,32.18888 -18.5524,32.15496 18.5524,32.15595 18.5858,32.15495 h 37.1381 37.139 l 18.5524,-32.15495 z m -185.5244,162.8976 c -27.0706,0 -48.9903,21.88608 -48.9903,48.957 0,27.06993 21.9197,48.98995 48.9903,48.98995 27.0716,0 48.9912,-21.92002 48.9912,-48.98995 0,-27.07092 -21.9196,-48.957 -48.9912,-48.957 m 132.662,-954.25289 h 4.377 l -30.8083,-50.2704 h -212.4271 l -30.8082,50.2704 h 4.3436 c -28.8221,3.7716 -57.2738,8.8217 -85.2531,14.9826 l 3.771,-1.3803 -46.129,-36.7349 -199.6653,72.6266 -11.751,57.7787 3.8721,-1.4143 c -25.7917,13.5026 -50.9096,28.048 -75.3546,43.6035 l 3.6707,-3.0639 -55.9271,-18.7543 -162.7964,136.4994 8.7207,58.3176 4.2759,-3.6029 c -20.0336,21.8522 -39.1921,44.5796 -57.3064,68.1154 l 2.6257,-4.5121 -58.9565,1.4472 -106.2975,183.94123 28.0815,51.81839 1.6492,-2.79452 c -10.7403,25.92617 -20.4374,52.42521 -28.99,79.42926 l 0.5058,-3.06499 -54.883,21.58268 -37.0713,209.19482 44.1427,39.09235 0.8399,-4.74769 c -0.6395,14.84789 -0.9773,29.79758 -0.9773,44.84907 0,14.57841 0.3722,29.05702 0.9773,43.46777 l -0.9067,-5.25271 -44.2429,38.99055 36.6999,209.22876 54.8497,21.71642 -0.5727,-3.1648 c 8.5517,27.10386 18.2488,53.7047 28.9901,79.79854 l -1.7171,-3.03006 -28.2494,51.784462 105.994,184.110012 58.9575,1.61583 -2.5589,-4.44329 c 18.0465,23.534856 37.0704,46.195426 57.0706,68.047576 l -4.2425,-3.53507 -8.7874,58.28272 162.5272,136.80277 55.9261,-18.65243 -3.3672,-2.82945 c 24.1758,15.48893 49.0915,29.93341 74.614,43.36806 l -3.4684,-1.24455 11.6165,57.77771 199.5307,72.99827 46.1623,-36.63417 -3.1649,-1.17879 c 27.7102,6.12748 55.825,11.14505 84.3102,14.94939 h -4.0067 l 30.6736,50.338 212.4605,0.40081 30.8761,-50.20336 h -4.2425 c 28.7543,-3.70324 57.1383,-8.68637 85.0852,-14.74699 l -3.6698,1.31323 46.0611,36.83557 199.7665,-72.25662 11.8856,-57.74528 -3.771,1.34576 c 25.7574,-13.36689 50.8419,-27.8448 75.2192,-43.3 l -3.5353,2.92916 55.8928,18.88926 163.0322,-136.16321 -8.5862,-58.35059 -4.3093,3.569 c 20.1349,-21.78529 39.2932,-44.47879 57.4418,-67.980706 l -2.6265,4.51215 58.923,-1.38129 106.7013,-183.705803 -28.0471,-51.886261 -1.6158,2.86239 c 10.7747,-25.9601 20.5051,-52.45914 29.158,-79.4622 l -0.5058,3.06399 54.9163,-21.41501 37.4417,-209.12595 -44.0406,-39.22709 -0.8781,4.78163 c 0.7063,-15.52157 1.0776,-31.07807 1.0776,-46.80124 0,-13.8728 -0.3341,-27.67773 -0.8781,-41.38186 l 0.8781,5.11797 44.2773,-38.92269 -36.2638,-209.29462 -54.7809,-21.81822 0.5344,3.13086 c -8.4849,-27.10486 -18.1486,-53.7047 -28.8221,-79.7656 l 1.7171,2.99612 28.3171,-51.75053 -105.658,-184.2786 -58.9231,-1.7506 2.5588,4.4783 c -18.0139,-23.6018 -36.9701,-46.3302 -56.9369,-68.2163 l 4.2425,3.6029 8.9231,-58.2837 -162.2915,-137.1052 -55.9606,18.4858 3.5018,2.9951 c -24.2761,-15.6223 -49.2594,-30.2357 -74.8831,-43.7362 l 3.6707,1.3803 -11.5153,-57.8117 -199.3628,-73.402 -46.2968,36.5663 3.4684,1.2445 c -29.159,-6.5322 -58.7217,-11.7499 -88.7216,-15.6902 M 2620,-2818.8259 4739.9999,-697.96145 4053.7538,-709.13953 c -33.873,-0.53395 -67.9473,-16.32998 -98.452,-38.21507 -47.3744,-33.94045 -81.5844,-81.4493 -97.9482,-114.91767 -54.0746,-110.50633 -100.1691,-254.61573 -149.6987,-409.22953 -151.281,-472.801 -333.8419,-1043.3453 -894.1507,-1084.7261 -20.3037,-1.4821 -42.9973,3.6029 -50.6071,11.4475 -7.6088,7.8117 2.6266,15.3539 22.9638,16.8699 515.1906,38.0464 694.8224,599.299 843.6458,1064.422 49.4951,154.6817 95.624,298.79106 150.3714,410.74454 17.2057,35.11815 53.5029,85.25384 104.3114,121.68541 40.1684,28.78855 91.2127,49.63069 153.0993,50.67364 l 732.7111,11.95356 170,166.3648 -1156.6867,-26.0609 c -72.8971,-1.6837 -156.6689,-56.12894 -179.1945,-125.45601 -111.988,-344.51549 -159.8673,-679.53654 -279.7675,-959.40474 l -1795.1715,-182.6958 18.2831,-314.9185 1556.4145,115.4895 c -50.1347,-148.7224 -276.2989,-294.3468 -461.6544,-318.0514 l -771.4226,-98.5527 -323.3375,197.376 c -65.691,0 -131.382,70.1684 -197.0731,70.1684 92.7628,-229.7326 185.5245,-459.4991 278.354,-689.2665 -76.668,0 -198.7902,1.7865 -203.7399,1.6158 -121.3815,-4.5451 -110.3042,-189.8328 0,-189.8328 h 887.047 c 69.7311,69.6973 139.3955,139.4286 209.0598,209.093 29.158,-3.4342 70.4042,-5.4213 98.8894,-6.2627 m 4765.4408,806.1364 106.0952,-11.6492 -284.0433,-680.8829 c -264.2797,-20.8751 -646.001,-86.4994 -910.2464,-107.3416 -69.6977,-69.6644 -185.322,-130.8774 -278.7566,-139.3957 -20.9776,15.32 -43.8392,30.5052 -67.745,44.9499 l -13.0643,-19.2263 v 0 l 27.5088,-283.571 -272.7981,-213.6052 c 131.0451,-301.0137 303.7075,-388.6918 68.9236,-803.3089 -4.4448,-7.7787 -8.8552,-15.6223 -13.2666,-23.435 0.6108,-8.5512 0.7063,-17.8111 0.4391,-27.8794 -2.5923,-91.0105 -23.9393,-199.4289 -88.4181,-271.3489 -46.3981,-51.7515 -118.857,-74.1756 -116.6685,4.1079 l 3.772,133.0991 7.0361,249.1275 c 81.3142,8.3157 141.6183,15.5216 172.0897,-20.1695 195.0191,356.4022 16.903,413.7428 -110.7079,664.3853 l -64.3778,-127.9141 -1.2456,0.6387 v -0.6387 h -460.9805 c -50.7083,0 -92.2235,41.4816 -92.2235,92.2231 v 0.1338 c 0,50.7075 41.5152,92.2231 92.2235,92.2231 h 412.2938 c -26.3301,15.6234 -80.9105,16.2292 -139.9347,16.835 -108.721,1.1787 -227.6113,2.4572 -327.3099,109.4624 -15.6566,16.7342 -17.071,29.6299 -3.1648,28.7546 13.9395,-0.9062 37.913,-15.2181 53.5696,-31.9873 40.5731,-43.5356 133.267,-44.4778 218.0831,-45.4209 85.9947,-0.9072 166.2982,-1.8184 224.7842,-46.0617 l 182.2239,362.0252 h -83.8062 l -34.2758,213.5043 c -212.8651,-167.4696 -647.1129,-312.4543 -817.1487,-186.9983 -250.9452,185.12 -501.3857,302.5278 -754.8564,364.8187 l 1416.5474,1416.7162 41.1792,-95.8262 c 105.5569,-246.1304 174.5809,-406.9071 326.4012,-705.0914 44.5454,-87.4765 132.2907,-154.3454 228.4196,-200.5418 135.3554,-65.0844 292.1579,-90.2022 379.6674,-76.5998 18.5523,2.8623 24.5127,11.213 13.3669,18.6205 -11.1441,7.3725 -35.2522,11.0433 -53.7711,8.148 -57.711,-8.9565 -171.8206,12.76 -279.8352,64.6802 -88.1489,42.3908 -168.9582,104.3444 -210.6423,186.1979 -152.6946,299.9688 -221.2814,459.7016 -326.131,704.1822 -20.0337,46.6336 -41.3472,96.3312 -64.6136,150.2375 l 111.3142,111.3816 c 119.9679,-290.3068 245.5918,-573.3059 382.9677,-841.1877 89.3945,-174.3791 327.9827,-301.5517 521.5548,-271.2491 l 532.0928,83.3346 -20.9431,316.6701 343.6402,212.2249 172.0897,7.8446 z m -594.9568,485.8304 c 30.0008,3.9403 59.5635,9.158 88.7216,15.6902 l -3.4675,-1.2445 46.2969,-36.5663 199.3618,73.402 11.5496,57.8117 -3.7041,-1.3803 c 25.6237,13.5005 50.607,28.1139 74.8831,43.7362 l -3.5351,-2.9951 55.9939,-18.4858 162.2905,137.1052 -8.922,58.2837 -4.2759,-3.6029 c 19.9324,21.8861 38.9896,44.6145 56.9702,68.2163 l -2.5597,-4.4783 58.924,1.7506 105.6572,184.2786 -28.3163,51.75053 -1.6845,-2.99612 c 10.64,26.0609 20.2693,52.66074 28.7876,79.7656 l -0.5344,-3.13086 54.7818,21.81822 36.2972,209.29462 -44.3106,38.92269 -0.8781,-5.11797 c 0.5345,13.70413 0.8781,27.50906 0.8781,41.38186 0,15.72317 -0.3723,31.27967 -1.0786,46.80124 l 0.84,-4.78163 44.0748,39.22709 -37.4415,209.12595 -54.9164,21.41501 0.5058,-3.06399 c -8.6529,27.00306 -18.3843,53.5021 -29.1923,79.4622 l 1.6492,-2.86239 28.0471,51.886261 -106.7012,183.705803 -58.9566,1.38129 2.6256,-4.51215 c -18.1476,23.501916 -37.2726,46.195416 -57.4074,67.980706 l 4.3437,-3.569 8.5517,58.35059 -163.0656,136.16321 -55.8594,-18.88926 3.5019,-2.92916 c -24.3772,15.4552 -49.4617,29.93311 -75.1524,43.3 l 3.7376,-1.34576 -9.9328,48.28303 -492.6994,-492.733075 c 10.7747,0.735558 21.6505,1.179687 32.6609,1.179687 250.5072,0 453.5732,-203.065842 453.5732,-453.573652 0,-250.50882 -203.066,-453.57466 -453.5732,-453.57466 -250.5082,0 -453.5742,203.06584 -453.5742,453.57466 0,10.97648 0.4391,21.85115 1.1787,32.62603 l -496.3691,-496.43562 89.9003,-155.49008 58.9574,-1.4471 -2.6265,4.5121 c 18.1142,-23.5358 37.2726,-46.2643 57.3072,-68.1154 l -4.3102,3.6029 -8.6864,-58.3176 162.7955,-136.5004 55.9271,18.7542 -3.7042,3.064 c 24.4785,-15.5555 49.5963,-30.101 75.3881,-43.6025 l -3.8721,1.4142 11.751,-57.7787 199.6653,-72.6266 46.1289,36.735 -3.771,1.3803 c 28.0137,-6.1619 56.4311,-11.212 85.2876,-14.9836 h -4.4115 l 30.8083,-50.2705 h 212.4605 l 30.8083,50.2705 z"
       style="fill:#000000;fill-opacity:1;fill-rule:evenodd;stroke:none;stroke-width:33.67040634"
       id="path237"
       inkscape:connector-curvature="0"
       sodipodi:nodetypes="cccccccccccccccccccccccccccccccccccccccccccccccccccccsssccsssccccccccccccccccccccccccccccccccccccccccccccccccccccccssscccccccccccccccccccccccccccccccsccccccccccccccccccccccccccccccccccccccccccccccccccccccsccccccccccccccccccccccccccccccccccccccccccccccccccccscccccccccccccccccccccccccssssccccccccccccccccccccccccccccccccccccccccccccccccccccccccsccccccccccccccccccccccssssccccccccccccccccccccccc" />
    <rect
       y="-1899.8927"
       x="3842.1382"
       height="8000"
       width="900"
       id="rect1239"
       style="fill:#be141e;fill-opacity:1;stroke:none;stroke-width:369.47119141;stroke-miterlimit:4;stroke-dasharray:none;stroke-opacity:1"
       transform="rotate(-45)" />
  </g>
</svg>
