<?xml version="1.0" encoding="UTF-8" standalone="no"?>
<!-- Created with Inkscape (http://www.inkscape.org/) -->

<svg
   xmlns:dc="http://purl.org/dc/elements/1.1/"
   xmlns:cc="http://creativecommons.org/ns#"
   xmlns:rdf="http://www.w3.org/1999/02/22-rdf-syntax-ns#"
   xmlns:svg="http://www.w3.org/2000/svg"
   xmlns="http://www.w3.org/2000/svg"
   xmlns:sodipodi="http://sodipodi.sourceforge.net/DTD/sodipodi-0.dtd"
   xmlns:inkscape="http://www.inkscape.org/namespaces/inkscape"
   width="90.400002cm"
   height="90.400002cm"
   viewBox="0 0 9040.0002 9039.9998"
   version="1.1"
   id="svg830"
   inkscape:version="0.92.2 (5c3e80d, 2017-08-06)"
   sodipodi:docname="66.svg">
  <defs
     id="defs824" />
  <sodipodi:namedview
     id="base"
     pagecolor="#ffffff"
     bordercolor="#666666"
     borderopacity="1.0"
     inkscape:pageopacity="0.0"
     inkscape:pageshadow="2"
     inkscape:zoom="0.175"
     inkscape:cx="1962.1574"
     inkscape:cy="1918.4"
     inkscape:document-units="cm"
     inkscape:current-layer="layer1"
     showgrid="false"
     units="cm"
     inkscape:window-width="1920"
     inkscape:window-height="1057"
     inkscape:window-x="-8"
     inkscape:window-y="-8"
     inkscape:window-maximized="1"
     inkscape:snap-global="false"
     fit-margin-top="0"
     fit-margin-left="0"
     fit-margin-right="0"
     fit-margin-bottom="0" />
  <metadata
     id="metadata827">
    <rdf:RDF>
      <cc:Work
         rdf:about="">
        <dc:format>image/svg+xml</dc:format>
        <dc:type
           rdf:resource="http://purl.org/dc/dcmitype/StillImage" />
        <dc:title></dc:title>
      </cc:Work>
    </rdf:RDF>
  </metadata>
  <g
     inkscape:label="Layer 1"
     inkscape:groupmode="layer"
     id="layer1"
     transform="translate(-1500,9849.9998)">
    <circle
       style="opacity:1;fill:#be141e;fill-opacity:1;stroke:none;stroke-width:1785.60754395;stroke-linejoin:round;stroke-miterlimit:4;stroke-dasharray:none;stroke-opacity:1"
       id="path1375"
       cx="6020"
       cy="-5329.9995"
       r="4500" />
    <circle
       cy="-5329.9995"
       cx="6020"
       id="circle1377"
       style="opacity:1;fill:#ffffff;fill-opacity:1;stroke:none;stroke-width:1428.48608398;stroke-linejoin:round;stroke-miterlimit:4;stroke-dasharray:none;stroke-opacity:1"
       r="3600" />
    <rect
       y="-3512.0959"
       x="7575.6616"
       height="8000"
       width="900"
       id="rect8518"
       style="opacity:1;fill:#be141e;fill-opacity:1;stroke:none;stroke-width:392.65945435;stroke-linejoin:round;stroke-miterlimit:4;stroke-dasharray:none;stroke-opacity:1"
       transform="rotate(-45)" />
    <rect
       y="-6049.9995"
       x="3020"
       height="1440"
       width="6000"
       id="rect8538"
       style="opacity:1;fill:#ffffff;fill-opacity:1;stroke:none;stroke-width:491.49746704;stroke-linejoin:round;stroke-miterlimit:4;stroke-dasharray:none;stroke-opacity:1" />
    <path
       d="m 9302.6557,-4879.9995 h -154.2368 l -61.2814,-204.4827 h -280.5909 l -57.9301,204.4827 h -150.2962 l 273.3994,-900 h 149.8523 z m -260.9857,-356.0092 -96.748,-334.0399 -94.7791,334.0399 z"
       style="fill:#000000;fill-opacity:1;fill-rule:evenodd;stroke:none;stroke-width:49.26107788"
       id="path7435"
       inkscape:connector-curvature="0" />
    <path
       d="m 7983.9855,-5779.9995 h 259.014 c 58.3756,0 102.8572,5.714 133.597,17.2411 41.1331,15.469 76.4042,43.1047 105.6653,82.9559 29.458,39.6557 51.8223,88.2273 67.2411,145.6659 15.1717,57.5852 22.8084,128.4234 22.8084,212.7576 0,74.089 -7.1927,137.9314 -21.5279,191.5774 -17.4868,65.3686 -42.5127,118.4225 -75.1726,158.9161 -24.4826,30.7873 -57.6843,54.7282 -99.5561,71.8226 -31.1825,12.8565 -73.0542,19.0634 -125.4686,19.0634 h -266.6006 z m 141.6751,152.4146 v 595.9109 h 105.8118 c 39.5077,0 68.1293,-2.7593 85.7641,-8.6212 22.9062,-7.2905 42.0198,-19.7043 57.1928,-37.2903 15.1228,-17.586 27.4877,-46.699 37.0934,-86.9957 9.5065,-40.1961 14.433,-95.3195 14.433,-164.9261 0,-69.5563 -4.9265,-122.7583 -14.433,-160.0486 -9.6057,-37.2413 -23.0542,-66.4535 -40.1975,-87.1925 -17.2899,-20.9359 -39.2117,-34.9262 -65.6646,-42.3145 -19.7532,-5.8131 -58.5222,-8.522 -116.4034,-8.522 z"
       style="fill:#000000;fill-opacity:1;fill-rule:evenodd;stroke:none;stroke-width:49.26107788"
       id="path7439"
       inkscape:connector-curvature="0" />
    <path
       d="M 7933.0499,-4879.9995 H 7778.813 l -61.2814,-204.4827 h -280.5908 l -57.9301,204.4827 h -150.2962 l 273.3994,-900 h 149.802 z m -260.9857,-356.0092 -96.7494,-334.0399 -94.7777,334.0399 z"
       style="fill:#000000;fill-opacity:1;fill-rule:evenodd;stroke:none;stroke-width:49.26107788"
       id="path7443"
       inkscape:connector-curvature="0" />
    <path
       d="m 6614.4286,-4879.9995 v -900 h 298.3751 c 75.0734,0 129.4581,8.2274 163.4976,24.4338 33.9403,16.0597 61.2311,44.8768 81.7244,86.109 20.394,41.3788 30.5415,88.5708 30.5415,141.7728 0,67.4883 -15.6157,123.497 -46.4044,167.3893 -30.9353,43.842 -77.3886,71.6746 -138.9158,83.0048 30.7385,23.0053 56.059,48.1778 76.009,75.6655 19.9515,27.4374 46.7005,75.9601 80.5431,146.0094 l 85.7626,175.6154 H 7076.1044 L 6973.641,-5075.861 c -36.4538,-70.0995 -61.2814,-114.0896 -74.6796,-132.2662 -13.3996,-18.178 -27.5868,-30.4927 -42.6607,-37.5374 -15.0251,-6.6984 -38.7188,-10.0484 -71.4289,-10.0484 h -28.6202 v 375.7135 z m 141.823,-519.4579 h 104.8275 c 67.9309,0 110.4925,-3.4979 127.4878,-10.8862 16.7984,-7.2905 29.9998,-20.0492 39.6055,-38.0792 9.5568,-18.0789 14.4832,-40.4921 14.4832,-67.5371 0,-30.3936 -6.4038,-54.5816 -18.9656,-73.3489 -12.6107,-18.6207 -30.4438,-30.395 -53.4477,-35.3703 -11.4783,-1.9214 -45.9618,-2.9058 -103.4981,-2.9058 h -110.4926 z"
       style="fill:#000000;fill-opacity:1;fill-rule:evenodd;stroke:none;stroke-width:49.26107788"
       id="path7447"
       inkscape:connector-curvature="0" />
    <path
       d="m 5929.6508,-4879.9995 v -900 h 298.3737 c 75.0748,0 129.4581,8.2274 163.4976,24.4338 33.9418,16.0597 61.2312,44.8768 81.7244,86.109 20.3941,41.3788 30.5415,88.5708 30.5415,141.7728 0,67.4883 -15.5668,123.497 -46.403,167.3893 -30.9367,43.842 -77.3411,71.6746 -138.9171,83.0048 30.7398,23.0053 56.0589,48.1778 76.0103,75.6655 19.9012,27.4374 46.6991,75.9601 80.5417,146.0094 l 85.7641,175.6154 h -169.4588 l -102.4633,-195.8615 c -36.4525,-70.0995 -61.28,-114.0896 -74.6797,-132.2662 -13.3982,-18.178 -27.5854,-30.4927 -42.6593,-37.5374 -15.0739,-6.6984 -38.7201,-10.0484 -71.4289,-10.0484 h -28.6215 v 375.7135 z m 141.8217,-519.4579 h 104.8288 c 67.931,0 110.4925,-3.4979 127.4864,-10.8862 16.7985,-7.2905 30.0012,-20.0492 39.6558,-38.0792 9.5079,-18.0789 14.4329,-40.4921 14.4329,-67.5371 0,-30.3936 -6.4038,-54.5816 -18.9642,-73.3489 -12.6121,-18.6207 -30.4438,-30.395 -53.498,-35.3703 -11.4293,-1.9214 -45.8626,-2.9058 -103.4478,-2.9058 h -110.4939 z"
       style="fill:#000000;fill-opacity:1;fill-rule:evenodd;stroke:none;stroke-width:49.26107788"
       id="path7451"
       inkscape:connector-curvature="0" />
    <path
       d="m 5298.4688,-4879.9995 v -900 h 520.3446 v 152.4146 h -378.671 v 199.4082 h 352.3646 v 151.5279 h -352.3646 v 244.9748 h 392.0203 v 151.6745 z"
       style="fill:#000000;fill-opacity:1;fill-rule:evenodd;stroke:none;stroke-width:49.26107788"
       id="path7455"
       inkscape:connector-curvature="0" />
    <path
       d="m 5056.7433,-5214.7279 132.7592,53.8918 c -20.3941,95.0235 -54.2367,165.5656 -101.6255,211.7732 -47.2409,46.0092 -107.5364,69.0634 -180.3938,69.0634 -90.0496,0 -164.0883,-39.5566 -222.1678,-118.3737 -58.0781,-79.0154 -87.0446,-186.9456 -87.0446,-323.6956 0,-144.9747 29.1634,-257.4375 87.5375,-337.7334 58.275,-79.9998 134.9264,-120.1973 230.1481,-120.1973 82.9546,0 150.4429,31.4785 202.2164,94.4831 31.0344,37.0933 54.0886,90.5913 69.6052,160.2468 l -135.7628,41.6749 c -7.9314,-45.272 -24.6796,-80.8866 -50.2472,-107.144 -25.516,-26.1081 -56.4528,-39.1126 -92.8074,-39.1126 -50.2459,0 -91.1821,23.152 -122.5126,69.5564 -31.2802,46.2564 -46.8959,121.1818 -46.8959,224.9759 0,109.9507 15.3196,188.4718 46.3052,235.0242 30.8376,46.7982 70.9849,70.1973 120.2951,70.1973 36.5027,0 67.7844,-14.7793 93.9413,-44.631 26.305,-29.5571 45.1226,-76.3539 56.6496,-139.9994"
       style="fill:#000000;fill-opacity:1;fill-rule:evenodd;stroke:none;stroke-width:49.26107788"
       id="path7459"
       inkscape:connector-curvature="0" />
    <path
       d="m 4333.0499,-4879.9995 h -154.2857 l -61.2311,-204.4827 h -280.5922 l -57.9301,204.4827 h -150.2963 l 273.3995,-900 h 149.8033 z m -260.9857,-356.0092 -96.7982,-334.0399 -94.7777,334.0399 z"
       style="fill:#000000;fill-opacity:1;fill-rule:evenodd;stroke:none;stroke-width:49.26107788"
       id="path7463"
       inkscape:connector-curvature="0" />
    <path
       d="m 3439.2568,-5779.9995 h 141.6751 v 900 h -141.6751 z"
       style="fill:#000000;fill-opacity:1;fill-rule:evenodd;stroke:none;stroke-width:49.26107788"
       id="path7465"
       inkscape:connector-curvature="0" />
    <path
       d="m 2983.8871,-4879.9995 -250.8871,-900 h 153.7928 l 177.4879,666.1585 171.922,-666.1585 h 150.394 l -251.4289,900 z"
       style="fill:#000000;fill-opacity:1;fill-rule:evenodd;stroke:none;stroke-width:49.26107788"
       id="path7469"
       inkscape:connector-curvature="0" />
  </g>
</svg>
